<svg viewBox="0 0 458 35" shape-rendering="crispEdges" xmlns="http://www.w3.org/2000/svg">
  <rect y="0" x="246" width="125" height="35" fill="#a3bff4" />
  <rect y="0" x="246" width="1" height="35" fill="#c8e3c2" />
  <rect y="0" x="265" width="1" height="35" fill="#c8e3c2" />
  <rect y="0" x="273" width="1" height="35" fill="#c8e3c2" />
  <rect y="0" x="285" width="1" height="35" fill="#c8e3c2" />
  <rect y="0" x="287" width="1" height="35" fill="#c8e3c2" />
  <rect y="0" x="300" width="1" height="35" fill="#c8e3c2" />
  <rect y="0" x="301" width="1" height="35" fill="#c8e3c2" />
  <rect y="0" x="304" width="1" height="35" fill="#c8e3c2" />
  <rect y="0" x="305" width="1" height="35" fill="#c8e3c2" />
  <rect y="0" x="309" width="1" height="35" fill="#c8e3c2" />
  <rect y="0" x="319" width="1" height="35" fill="#c8e3c2" />
  <rect y="0" x="321" width="1" height="35" fill="#c8e3c2" />
  <rect y="0" x="322" width="1" height="35" fill="#c8e3c2" />
  <rect y="0" x="323" width="1" height="35" fill="#c8e3c2" />
  <rect y="0" x="324" width="1" height="35" fill="#c8e3c2" />
  <rect y="0" x="325" width="1" height="35" fill="#c8e3c2" />
  <rect y="0" x="330" width="1" height="35" fill="#c8e3c2" />
  <rect y="0" x="331" width="1" height="35" fill="#c8e3c2" />
  <rect y="0" x="332" width="1" height="35" fill="#c8e3c2" />
  <rect y="0" x="351" width="1" height="35" fill="#c8e3c2" />
  <rect y="0" x="370" width="1" height="35" fill="#c8e3c2" />
</svg>
