<svg viewBox="0 0 458 35" shape-rendering="crispEdges" xmlns="http://www.w3.org/2000/svg">
  <rect y="0" x="117" width="313" height="35" fill="#a3bff4" />
  <rect y="0" x="117" width="1" height="35" fill="#c8e3c2" />
  <rect y="0" x="121" width="1" height="35" fill="#c8e3c2" />
  <rect y="0" x="122" width="1" height="35" fill="#c8e3c2" />
  <rect y="0" x="175" width="1" height="35" fill="#c8e3c2" />
  <rect y="0" x="272" width="1" height="35" fill="#c8e3c2" />
  <rect y="0" x="275" width="1" height="35" fill="#c8e3c2" />
  <rect y="0" x="301" width="1" height="35" fill="#c8e3c2" />
  <rect y="0" x="317" width="1" height="35" fill="#c8e3c2" />
  <rect y="0" x="319" width="1" height="35" fill="#c8e3c2" />
  <rect y="0" x="320" width="1" height="35" fill="#c8e3c2" />
  <rect y="0" x="321" width="1" height="35" fill="#c8e3c2" />
  <rect y="0" x="326" width="1" height="35" fill="#c8e3c2" />
  <rect y="0" x="331" width="1" height="35" fill="#c8e3c2" />
  <rect y="0" x="332" width="1" height="35" fill="#c8e3c2" />
  <rect y="0" x="347" width="1" height="35" fill="#c8e3c2" />
  <rect y="0" x="349" width="1" height="35" fill="#c8e3c2" />
  <rect y="0" x="367" width="1" height="35" fill="#c8e3c2" />
  <rect y="0" x="368" width="1" height="35" fill="#c8e3c2" />
  <rect y="0" x="429" width="1" height="35" fill="#c8e3c2" />
</svg>
