<svg viewBox="0 0 522 35" shape-rendering="crispEdges" xmlns="http://www.w3.org/2000/svg">
  <rect y="0" x="77" width="441" height="35" fill="#a3bff4" />
  <rect y="0" x="77" width="1" height="35" fill="#c8e3c2" />
  <rect y="0" x="104" width="1" height="35" fill="#c8e3c2" />
  <rect y="0" x="126" width="1" height="35" fill="#c8e3c2" />
  <rect y="0" x="128" width="1" height="35" fill="#c8e3c2" />
  <rect y="0" x="155" width="1" height="35" fill="#c8e3c2" />
  <rect y="0" x="162" width="1" height="35" fill="#c8e3c2" />
  <rect y="0" x="165" width="1" height="35" fill="#c8e3c2" />
  <rect y="0" x="166" width="1" height="35" fill="#c8e3c2" />
  <rect y="0" x="172" width="1" height="35" fill="#c8e3c2" />
  <rect y="0" x="174" width="1" height="35" fill="#c8e3c2" />
  <rect y="0" x="181" width="1" height="35" fill="#c8e3c2" />
  <rect y="0" x="182" width="1" height="35" fill="#c8e3c2" />
  <rect y="0" x="183" width="1" height="35" fill="#c8e3c2" />
  <rect y="0" x="189" width="1" height="35" fill="#c8e3c2" />
  <rect y="0" x="192" width="1" height="35" fill="#c8e3c2" />
  <rect y="0" x="193" width="1" height="35" fill="#c8e3c2" />
  <rect y="0" x="199" width="1" height="35" fill="#c8e3c2" />
  <rect y="0" x="200" width="1" height="35" fill="#c8e3c2" />
  <rect y="0" x="202" width="1" height="35" fill="#c8e3c2" />
  <rect y="0" x="206" width="1" height="35" fill="#c8e3c2" />
  <rect y="0" x="210" width="1" height="35" fill="#c8e3c2" />
  <rect y="0" x="216" width="1" height="35" fill="#c8e3c2" />
  <rect y="0" x="217" width="1" height="35" fill="#c8e3c2" />
  <rect y="0" x="218" width="1" height="35" fill="#c8e3c2" />
  <rect y="0" x="219" width="1" height="35" fill="#c8e3c2" />
  <rect y="0" x="220" width="1" height="35" fill="#c8e3c2" />
  <rect y="0" x="222" width="1" height="35" fill="#c8e3c2" />
  <rect y="0" x="223" width="1" height="35" fill="#c8e3c2" />
  <rect y="0" x="226" width="1" height="35" fill="#c8e3c2" />
  <rect y="0" x="228" width="1" height="35" fill="#c8e3c2" />
  <rect y="0" x="229" width="1" height="35" fill="#c8e3c2" />
  <rect y="0" x="231" width="1" height="35" fill="#c8e3c2" />
  <rect y="0" x="233" width="1" height="35" fill="#c8e3c2" />
  <rect y="0" x="240" width="1" height="35" fill="#c8e3c2" />
  <rect y="0" x="241" width="1" height="35" fill="#c8e3c2" />
  <rect y="0" x="245" width="1" height="35" fill="#c8e3c2" />
  <rect y="0" x="252" width="1" height="35" fill="#c8e3c2" />
  <rect y="0" x="257" width="1" height="35" fill="#c8e3c2" />
  <rect y="0" x="258" width="1" height="35" fill="#c8e3c2" />
  <rect y="0" x="259" width="1" height="35" fill="#c8e3c2" />
  <rect y="0" x="263" width="1" height="35" fill="#c8e3c2" />
  <rect y="0" x="264" width="1" height="35" fill="#c8e3c2" />
  <rect y="0" x="273" width="1" height="35" fill="#c8e3c2" />
  <rect y="0" x="279" width="1" height="35" fill="#c8e3c2" />
  <rect y="0" x="281" width="1" height="35" fill="#c8e3c2" />
  <rect y="0" x="282" width="1" height="35" fill="#c8e3c2" />
  <rect y="0" x="283" width="1" height="35" fill="#c8e3c2" />
  <rect y="0" x="285" width="1" height="35" fill="#c8e3c2" />
  <rect y="0" x="286" width="1" height="35" fill="#c8e3c2" />
  <rect y="0" x="287" width="1" height="35" fill="#c8e3c2" />
  <rect y="0" x="288" width="1" height="35" fill="#c8e3c2" />
  <rect y="0" x="289" width="1" height="35" fill="#c8e3c2" />
  <rect y="0" x="291" width="1" height="35" fill="#c8e3c2" />
  <rect y="0" x="292" width="1" height="35" fill="#c8e3c2" />
  <rect y="0" x="294" width="1" height="35" fill="#c8e3c2" />
  <rect y="0" x="296" width="1" height="35" fill="#c8e3c2" />
  <rect y="0" x="299" width="1" height="35" fill="#c8e3c2" />
  <rect y="0" x="303" width="1" height="35" fill="#c8e3c2" />
  <rect y="0" x="308" width="1" height="35" fill="#c8e3c2" />
  <rect y="0" x="309" width="1" height="35" fill="#c8e3c2" />
  <rect y="0" x="310" width="1" height="35" fill="#c8e3c2" />
  <rect y="0" x="313" width="1" height="35" fill="#c8e3c2" />
  <rect y="0" x="314" width="1" height="35" fill="#c8e3c2" />
  <rect y="0" x="317" width="1" height="35" fill="#c8e3c2" />
  <rect y="0" x="318" width="1" height="35" fill="#c8e3c2" />
  <rect y="0" x="319" width="1" height="35" fill="#c8e3c2" />
  <rect y="0" x="320" width="1" height="35" fill="#c8e3c2" />
  <rect y="0" x="321" width="1" height="35" fill="#c8e3c2" />
  <rect y="0" x="322" width="1" height="35" fill="#c8e3c2" />
  <rect y="0" x="323" width="1" height="35" fill="#c8e3c2" />
  <rect y="0" x="324" width="1" height="35" fill="#c8e3c2" />
  <rect y="0" x="325" width="1" height="35" fill="#c8e3c2" />
  <rect y="0" x="326" width="1" height="35" fill="#c8e3c2" />
  <rect y="0" x="327" width="1" height="35" fill="#c8e3c2" />
  <rect y="0" x="330" width="1" height="35" fill="#c8e3c2" />
  <rect y="0" x="331" width="1" height="35" fill="#c8e3c2" />
  <rect y="0" x="332" width="1" height="35" fill="#c8e3c2" />
  <rect y="0" x="333" width="1" height="35" fill="#c8e3c2" />
  <rect y="0" x="334" width="1" height="35" fill="#c8e3c2" />
  <rect y="0" x="335" width="1" height="35" fill="#c8e3c2" />
  <rect y="0" x="336" width="1" height="35" fill="#c8e3c2" />
  <rect y="0" x="337" width="1" height="35" fill="#c8e3c2" />
  <rect y="0" x="339" width="1" height="35" fill="#c8e3c2" />
  <rect y="0" x="341" width="1" height="35" fill="#c8e3c2" />
  <rect y="0" x="342" width="1" height="35" fill="#c8e3c2" />
  <rect y="0" x="343" width="1" height="35" fill="#c8e3c2" />
  <rect y="0" x="344" width="1" height="35" fill="#c8e3c2" />
  <rect y="0" x="345" width="1" height="35" fill="#c8e3c2" />
  <rect y="0" x="346" width="1" height="35" fill="#c8e3c2" />
  <rect y="0" x="347" width="1" height="35" fill="#c8e3c2" />
  <rect y="0" x="348" width="1" height="35" fill="#c8e3c2" />
  <rect y="0" x="349" width="1" height="35" fill="#c8e3c2" />
  <rect y="0" x="350" width="1" height="35" fill="#c8e3c2" />
  <rect y="0" x="351" width="1" height="35" fill="#c8e3c2" />
  <rect y="0" x="352" width="1" height="35" fill="#c8e3c2" />
  <rect y="0" x="354" width="1" height="35" fill="#c8e3c2" />
  <rect y="0" x="355" width="1" height="35" fill="#c8e3c2" />
  <rect y="0" x="356" width="1" height="35" fill="#c8e3c2" />
  <rect y="0" x="357" width="1" height="35" fill="#c8e3c2" />
  <rect y="0" x="358" width="1" height="35" fill="#c8e3c2" />
  <rect y="0" x="359" width="1" height="35" fill="#c8e3c2" />
  <rect y="0" x="360" width="1" height="35" fill="#c8e3c2" />
  <rect y="0" x="361" width="1" height="35" fill="#c8e3c2" />
  <rect y="0" x="362" width="1" height="35" fill="#c8e3c2" />
  <rect y="0" x="363" width="1" height="35" fill="#c8e3c2" />
  <rect y="0" x="364" width="1" height="35" fill="#c8e3c2" />
  <rect y="0" x="365" width="1" height="35" fill="#c8e3c2" />
  <rect y="0" x="366" width="1" height="35" fill="#c8e3c2" />
  <rect y="0" x="367" width="1" height="35" fill="#c8e3c2" />
  <rect y="0" x="368" width="1" height="35" fill="#c8e3c2" />
  <rect y="0" x="369" width="1" height="35" fill="#c8e3c2" />
  <rect y="0" x="370" width="1" height="35" fill="#c8e3c2" />
  <rect y="0" x="371" width="1" height="35" fill="#c8e3c2" />
  <rect y="0" x="372" width="1" height="35" fill="#c8e3c2" />
  <rect y="0" x="373" width="1" height="35" fill="#c8e3c2" />
  <rect y="0" x="374" width="1" height="35" fill="#c8e3c2" />
  <rect y="0" x="375" width="1" height="35" fill="#c8e3c2" />
  <rect y="0" x="376" width="1" height="35" fill="#c8e3c2" />
  <rect y="0" x="377" width="1" height="35" fill="#c8e3c2" />
  <rect y="0" x="378" width="1" height="35" fill="#c8e3c2" />
  <rect y="0" x="379" width="1" height="35" fill="#c8e3c2" />
  <rect y="0" x="380" width="1" height="35" fill="#c8e3c2" />
  <rect y="0" x="381" width="1" height="35" fill="#c8e3c2" />
  <rect y="0" x="382" width="1" height="35" fill="#c8e3c2" />
  <rect y="0" x="383" width="1" height="35" fill="#c8e3c2" />
  <rect y="0" x="384" width="1" height="35" fill="#c8e3c2" />
  <rect y="0" x="385" width="1" height="35" fill="#c8e3c2" />
  <rect y="0" x="386" width="1" height="35" fill="#c8e3c2" />
  <rect y="0" x="387" width="1" height="35" fill="#c8e3c2" />
  <rect y="0" x="388" width="1" height="35" fill="#c8e3c2" />
  <rect y="0" x="389" width="1" height="35" fill="#c8e3c2" />
  <rect y="0" x="390" width="1" height="35" fill="#c8e3c2" />
  <rect y="0" x="391" width="1" height="35" fill="#c8e3c2" />
  <rect y="0" x="392" width="1" height="35" fill="#c8e3c2" />
  <rect y="0" x="393" width="1" height="35" fill="#c8e3c2" />
  <rect y="0" x="394" width="1" height="35" fill="#c8e3c2" />
  <rect y="0" x="395" width="1" height="35" fill="#c8e3c2" />
  <rect y="0" x="396" width="1" height="35" fill="#c8e3c2" />
  <rect y="0" x="397" width="1" height="35" fill="#c8e3c2" />
  <rect y="0" x="398" width="1" height="35" fill="#c8e3c2" />
  <rect y="0" x="399" width="1" height="35" fill="#c8e3c2" />
  <rect y="0" x="400" width="1" height="35" fill="#c8e3c2" />
  <rect y="0" x="401" width="1" height="35" fill="#c8e3c2" />
  <rect y="0" x="402" width="1" height="35" fill="#c8e3c2" />
  <rect y="0" x="403" width="1" height="35" fill="#c8e3c2" />
  <rect y="0" x="404" width="1" height="35" fill="#c8e3c2" />
  <rect y="0" x="405" width="1" height="35" fill="#c8e3c2" />
  <rect y="0" x="406" width="1" height="35" fill="#c8e3c2" />
  <rect y="0" x="407" width="1" height="35" fill="#c8e3c2" />
  <rect y="0" x="408" width="1" height="35" fill="#c8e3c2" />
  <rect y="0" x="409" width="1" height="35" fill="#c8e3c2" />
  <rect y="0" x="410" width="1" height="35" fill="#c8e3c2" />
  <rect y="0" x="411" width="1" height="35" fill="#c8e3c2" />
  <rect y="0" x="412" width="1" height="35" fill="#c8e3c2" />
  <rect y="0" x="413" width="1" height="35" fill="#c8e3c2" />
  <rect y="0" x="416" width="1" height="35" fill="#c8e3c2" />
  <rect y="0" x="417" width="1" height="35" fill="#c8e3c2" />
  <rect y="0" x="418" width="1" height="35" fill="#c8e3c2" />
  <rect y="0" x="419" width="1" height="35" fill="#c8e3c2" />
  <rect y="0" x="420" width="1" height="35" fill="#c8e3c2" />
  <rect y="0" x="421" width="1" height="35" fill="#c8e3c2" />
  <rect y="0" x="422" width="1" height="35" fill="#c8e3c2" />
  <rect y="0" x="423" width="1" height="35" fill="#c8e3c2" />
  <rect y="0" x="424" width="1" height="35" fill="#c8e3c2" />
  <rect y="0" x="425" width="1" height="35" fill="#c8e3c2" />
  <rect y="0" x="426" width="1" height="35" fill="#c8e3c2" />
  <rect y="0" x="427" width="1" height="35" fill="#c8e3c2" />
  <rect y="0" x="428" width="1" height="35" fill="#c8e3c2" />
  <rect y="0" x="429" width="1" height="35" fill="#c8e3c2" />
  <rect y="0" x="430" width="1" height="35" fill="#c8e3c2" />
  <rect y="0" x="431" width="1" height="35" fill="#c8e3c2" />
  <rect y="0" x="432" width="1" height="35" fill="#c8e3c2" />
  <rect y="0" x="433" width="1" height="35" fill="#c8e3c2" />
  <rect y="0" x="434" width="1" height="35" fill="#c8e3c2" />
  <rect y="0" x="435" width="1" height="35" fill="#c8e3c2" />
  <rect y="0" x="436" width="1" height="35" fill="#c8e3c2" />
  <rect y="0" x="437" width="1" height="35" fill="#c8e3c2" />
  <rect y="0" x="444" width="1" height="35" fill="#c8e3c2" />
  <rect y="0" x="445" width="1" height="35" fill="#c8e3c2" />
  <rect y="0" x="448" width="1" height="35" fill="#c8e3c2" />
  <rect y="0" x="449" width="1" height="35" fill="#c8e3c2" />
  <rect y="0" x="450" width="1" height="35" fill="#c8e3c2" />
  <rect y="0" x="451" width="1" height="35" fill="#c8e3c2" />
  <rect y="0" x="452" width="1" height="35" fill="#c8e3c2" />
  <rect y="0" x="454" width="1" height="35" fill="#c8e3c2" />
  <rect y="0" x="455" width="1" height="35" fill="#c8e3c2" />
  <rect y="0" x="456" width="1" height="35" fill="#c8e3c2" />
  <rect y="0" x="457" width="1" height="35" fill="#c8e3c2" />
  <rect y="0" x="458" width="1" height="35" fill="#c8e3c2" />
  <rect y="0" x="459" width="1" height="35" fill="#c8e3c2" />
  <rect y="0" x="460" width="1" height="35" fill="#c8e3c2" />
  <rect y="0" x="461" width="1" height="35" fill="#c8e3c2" />
  <rect y="0" x="466" width="1" height="35" fill="#c8e3c2" />
  <rect y="0" x="476" width="1" height="35" fill="#c8e3c2" />
  <rect y="0" x="477" width="1" height="35" fill="#c8e3c2" />
  <rect y="0" x="478" width="1" height="35" fill="#c8e3c2" />
  <rect y="0" x="479" width="1" height="35" fill="#c8e3c2" />
  <rect y="0" x="482" width="1" height="35" fill="#c8e3c2" />
  <rect y="0" x="483" width="1" height="35" fill="#c8e3c2" />
  <rect y="0" x="484" width="1" height="35" fill="#c8e3c2" />
  <rect y="0" x="485" width="1" height="35" fill="#c8e3c2" />
  <rect y="0" x="486" width="1" height="35" fill="#c8e3c2" />
  <rect y="0" x="487" width="1" height="35" fill="#c8e3c2" />
  <rect y="0" x="490" width="1" height="35" fill="#c8e3c2" />
  <rect y="0" x="491" width="1" height="35" fill="#c8e3c2" />
  <rect y="0" x="492" width="1" height="35" fill="#c8e3c2" />
  <rect y="0" x="493" width="1" height="35" fill="#c8e3c2" />
  <rect y="0" x="494" width="1" height="35" fill="#c8e3c2" />
  <rect y="0" x="495" width="1" height="35" fill="#c8e3c2" />
  <rect y="0" x="496" width="1" height="35" fill="#c8e3c2" />
  <rect y="0" x="497" width="1" height="35" fill="#c8e3c2" />
  <rect y="0" x="498" width="1" height="35" fill="#c8e3c2" />
  <rect y="0" x="499" width="1" height="35" fill="#c8e3c2" />
  <rect y="0" x="500" width="1" height="35" fill="#c8e3c2" />
  <rect y="0" x="501" width="1" height="35" fill="#c8e3c2" />
  <rect y="0" x="502" width="1" height="35" fill="#c8e3c2" />
  <rect y="0" x="503" width="1" height="35" fill="#c8e3c2" />
  <rect y="0" x="504" width="1" height="35" fill="#c8e3c2" />
  <rect y="0" x="505" width="1" height="35" fill="#c8e3c2" />
  <rect y="0" x="506" width="1" height="35" fill="#c8e3c2" />
  <rect y="0" x="507" width="1" height="35" fill="#c8e3c2" />
  <rect y="0" x="508" width="1" height="35" fill="#c8e3c2" />
  <rect y="0" x="509" width="1" height="35" fill="#c8e3c2" />
  <rect y="0" x="510" width="1" height="35" fill="#c8e3c2" />
  <rect y="0" x="511" width="1" height="35" fill="#c8e3c2" />
  <rect y="0" x="512" width="1" height="35" fill="#c8e3c2" />
  <rect y="0" x="513" width="1" height="35" fill="#c8e3c2" />
  <rect y="0" x="517" width="1" height="35" fill="#c8e3c2" />
</svg>
