<svg viewBox="0 0 444 35" shape-rendering="crispEdges" xmlns="http://www.w3.org/2000/svg">
  <rect y="0" x="145" width="282" height="35" fill="#a3bff4" />
  <rect y="0" x="145" width="1" height="35" fill="#c8e3c2" />
  <rect y="0" x="175" width="1" height="35" fill="#c8e3c2" />
  <rect y="0" x="300" width="1" height="35" fill="#c8e3c2" />
  <rect y="0" x="307" width="1" height="35" fill="#c8e3c2" />
  <rect y="0" x="308" width="1" height="35" fill="#c8e3c2" />
  <rect y="0" x="318" width="1" height="35" fill="#c8e3c2" />
  <rect y="0" x="324" width="1" height="35" fill="#c8e3c2" />
  <rect y="0" x="325" width="1" height="35" fill="#c8e3c2" />
  <rect y="0" x="326" width="1" height="35" fill="#c8e3c2" />
  <rect y="0" x="328" width="1" height="35" fill="#c8e3c2" />
  <rect y="0" x="343" width="1" height="35" fill="#c8e3c2" />
  <rect y="0" x="347" width="1" height="35" fill="#c8e3c2" />
  <rect y="0" x="416" width="1" height="35" fill="#c8e3c2" />
  <rect y="0" x="419" width="1" height="35" fill="#c8e3c2" />
  <rect y="0" x="421" width="1" height="35" fill="#c8e3c2" />
  <rect y="0" x="426" width="1" height="35" fill="#c8e3c2" />
</svg>
