<svg viewBox="0 0 523 35" shape-rendering="crispEdges" xmlns="http://www.w3.org/2000/svg">
  <rect y="0" x="72" width="340" height="35" fill="#e5e5e5" />
  <rect y="0" x="72" width="1" height="35" fill="#d8774d" />
  <rect y="0" x="74" width="1" height="35" fill="#d9784c" />
  <rect y="0" x="209" width="1" height="35" fill="#dec44f" />
  <rect y="0" x="221" width="1" height="35" fill="#d4c550" />
  <rect y="0" x="247" width="1" height="35" fill="#c0c653" />
  <rect y="0" x="316" width="1" height="35" fill="#89c466" />
  <rect y="0" x="338" width="1" height="35" fill="#78bf78" />
  <rect y="0" x="343" width="1" height="35" fill="#74be7c" />
  <rect y="0" x="354" width="1" height="35" fill="#6cbc85" />
  <rect y="0" x="355" width="1" height="35" fill="#6bbc86" />
  <rect y="0" x="365" width="1" height="35" fill="#63ba8e" />
  <rect y="0" x="382" width="1" height="35" fill="#56b69c" />
  <rect y="0" x="383" width="1" height="35" fill="#55b69d" />
  <rect y="0" x="386" width="1" height="35" fill="#53b59f" />
  <rect y="0" x="388" width="1" height="35" fill="#51b4a1" />
  <rect y="0" x="393" width="1" height="35" fill="#4eb3a5" />
  <rect y="0" x="401" width="1" height="35" fill="#4bb1ab" />
  <rect y="0" x="402" width="1" height="35" fill="#4bb1ac" />
  <rect y="0" x="411" width="1" height="35" fill="#4badb1" />
</svg>
