<svg viewBox="0 0 523 35" shape-rendering="crispEdges" xmlns="http://www.w3.org/2000/svg">
  <rect y="0" x="77" width="441" height="35" fill="#e5e5e5" />
  <rect y="0" x="77" width="1" height="35" fill="#da794c" />
  <rect y="0" x="104" width="1" height="35" fill="#e0864b" />
  <rect y="0" x="126" width="1" height="35" fill="#e2954c" />
  <rect y="0" x="128" width="1" height="35" fill="#e2964c" />
  <rect y="0" x="155" width="1" height="35" fill="#e4a84d" />
  <rect y="0" x="162" width="1" height="35" fill="#e5ac4d" />
  <rect y="0" x="165" width="1" height="35" fill="#e5ae4d" />
  <rect y="0" x="166" width="1" height="35" fill="#e5af4d" />
  <rect y="0" x="172" width="1" height="35" fill="#e6b34e" />
  <rect y="0" x="174" width="1" height="35" fill="#e6b44e" />
  <rect y="0" x="181" width="1" height="35" fill="#e6b94e" />
  <rect y="0" x="182" width="1" height="35" fill="#e6ba4e" />
  <rect y="0" x="183" width="1" height="35" fill="#e6ba4e" />
  <rect y="0" x="189" width="1" height="35" fill="#e7be4e" />
  <rect y="0" x="192" width="1" height="35" fill="#e7c04e" />
  <rect y="0" x="193" width="1" height="35" fill="#e7c14e" />
  <rect y="0" x="199" width="1" height="35" fill="#e6c44f" />
  <rect y="0" x="200" width="1" height="35" fill="#e5c44f" />
  <rect y="0" x="202" width="1" height="35" fill="#e4c44f" />
  <rect y="0" x="206" width="1" height="35" fill="#e0c44f" />
  <rect y="0" x="210" width="1" height="35" fill="#ddc450" />
  <rect y="0" x="216" width="1" height="35" fill="#d8c450" />
  <rect y="0" x="217" width="1" height="35" fill="#d8c550" />
  <rect y="0" x="218" width="1" height="35" fill="#d7c550" />
  <rect y="0" x="219" width="1" height="35" fill="#d6c550" />
  <rect y="0" x="220" width="1" height="35" fill="#d5c550" />
  <rect y="0" x="222" width="1" height="35" fill="#d4c551" />
  <rect y="0" x="223" width="1" height="35" fill="#d3c551" />
  <rect y="0" x="226" width="1" height="35" fill="#d0c551" />
  <rect y="0" x="228" width="1" height="35" fill="#cfc551" />
  <rect y="0" x="229" width="1" height="35" fill="#cec551" />
  <rect y="0" x="231" width="1" height="35" fill="#ccc551" />
  <rect y="0" x="233" width="1" height="35" fill="#cbc551" />
  <rect y="0" x="240" width="1" height="35" fill="#c5c652" />
  <rect y="0" x="241" width="1" height="35" fill="#c4c652" />
  <rect y="0" x="245" width="1" height="35" fill="#c1c652" />
  <rect y="0" x="252" width="1" height="35" fill="#bcc653" />
  <rect y="0" x="257" width="1" height="35" fill="#b8c753" />
  <rect y="0" x="258" width="1" height="35" fill="#b7c753" />
  <rect y="0" x="259" width="1" height="35" fill="#b6c753" />
  <rect y="0" x="263" width="1" height="35" fill="#b3c754" />
  <rect y="0" x="264" width="1" height="35" fill="#b2c754" />
  <rect y="0" x="273" width="1" height="35" fill="#abc755" />
  <rect y="0" x="279" width="1" height="35" fill="#a6c855" />
  <rect y="0" x="281" width="1" height="35" fill="#a4c855" />
  <rect y="0" x="282" width="1" height="35" fill="#a4c855" />
  <rect y="0" x="283" width="1" height="35" fill="#a3c855" />
  <rect y="0" x="285" width="1" height="35" fill="#a1c856" />
  <rect y="0" x="286" width="1" height="35" fill="#a0c856" />
  <rect y="0" x="287" width="1" height="35" fill="#a0c856" />
  <rect y="0" x="288" width="1" height="35" fill="#9fc856" />
  <rect y="0" x="289" width="1" height="35" fill="#9ec856" />
  <rect y="0" x="291" width="1" height="35" fill="#9cc856" />
  <rect y="0" x="292" width="1" height="35" fill="#9cc856" />
  <rect y="0" x="294" width="1" height="35" fill="#9ac856" />
  <rect y="0" x="296" width="1" height="35" fill="#98c856" />
  <rect y="0" x="299" width="1" height="35" fill="#96c858" />
  <rect y="0" x="303" width="1" height="35" fill="#93c75b" />
  <rect y="0" x="308" width="1" height="35" fill="#8fc660" />
  <rect y="0" x="309" width="1" height="35" fill="#8ec660" />
  <rect y="0" x="310" width="1" height="35" fill="#8dc661" />
  <rect y="0" x="313" width="1" height="35" fill="#8bc564" />
  <rect y="0" x="314" width="1" height="35" fill="#8ac564" />
  <rect y="0" x="317" width="1" height="35" fill="#88c467" />
  <rect y="0" x="318" width="1" height="35" fill="#87c468" />
  <rect y="0" x="319" width="1" height="35" fill="#87c469" />
  <rect y="0" x="320" width="1" height="35" fill="#86c369" />
  <rect y="0" x="321" width="1" height="35" fill="#85c36a" />
  <rect y="0" x="322" width="1" height="35" fill="#84c36b" />
  <rect y="0" x="323" width="1" height="35" fill="#83c36c" />
  <rect y="0" x="324" width="1" height="35" fill="#83c36d" />
  <rect y="0" x="325" width="1" height="35" fill="#82c26d" />
  <rect y="0" x="326" width="1" height="35" fill="#81c26e" />
  <rect y="0" x="327" width="1" height="35" fill="#80c26f" />
  <rect y="0" x="330" width="1" height="35" fill="#7ec172" />
  <rect y="0" x="331" width="1" height="35" fill="#7dc172" />
  <rect y="0" x="332" width="1" height="35" fill="#7dc173" />
  <rect y="0" x="333" width="1" height="35" fill="#7cc174" />
  <rect y="0" x="334" width="1" height="35" fill="#7bc075" />
  <rect y="0" x="335" width="1" height="35" fill="#7ac076" />
  <rect y="0" x="336" width="1" height="35" fill="#79c076" />
  <rect y="0" x="337" width="1" height="35" fill="#79c077" />
  <rect y="0" x="339" width="1" height="35" fill="#77bf79" />
  <rect y="0" x="341" width="1" height="35" fill="#76bf7b" />
  <rect y="0" x="342" width="1" height="35" fill="#75bf7b" />
  <rect y="0" x="343" width="1" height="35" fill="#74be7c" />
  <rect y="0" x="344" width="1" height="35" fill="#73be7d" />
  <rect y="0" x="345" width="1" height="35" fill="#73be7e" />
  <rect y="0" x="346" width="1" height="35" fill="#72be7f" />
  <rect y="0" x="347" width="1" height="35" fill="#71be80" />
  <rect y="0" x="348" width="1" height="35" fill="#70bd80" />
  <rect y="0" x="349" width="1" height="35" fill="#6fbd81" />
  <rect y="0" x="350" width="1" height="35" fill="#6fbd82" />
  <rect y="0" x="351" width="1" height="35" fill="#6ebd83" />
  <rect y="0" x="352" width="1" height="35" fill="#6dbc84" />
  <rect y="0" x="354" width="1" height="35" fill="#6cbc85" />
  <rect y="0" x="355" width="1" height="35" fill="#6bbc86" />
  <rect y="0" x="356" width="1" height="35" fill="#6abc87" />
  <rect y="0" x="357" width="1" height="35" fill="#69bb88" />
  <rect y="0" x="358" width="1" height="35" fill="#69bb89" />
  <rect y="0" x="359" width="1" height="35" fill="#68bb89" />
  <rect y="0" x="360" width="1" height="35" fill="#67bb8a" />
  <rect y="0" x="361" width="1" height="35" fill="#66ba8b" />
  <rect y="0" x="362" width="1" height="35" fill="#65ba8c" />
  <rect y="0" x="363" width="1" height="35" fill="#65ba8d" />
  <rect y="0" x="364" width="1" height="35" fill="#64ba8d" />
  <rect y="0" x="365" width="1" height="35" fill="#63ba8e" />
  <rect y="0" x="366" width="1" height="35" fill="#62b98f" />
  <rect y="0" x="367" width="1" height="35" fill="#62b990" />
  <rect y="0" x="368" width="1" height="35" fill="#61b991" />
  <rect y="0" x="369" width="1" height="35" fill="#60b992" />
  <rect y="0" x="370" width="1" height="35" fill="#5fb892" />
  <rect y="0" x="371" width="1" height="35" fill="#5fb893" />
  <rect y="0" x="372" width="1" height="35" fill="#5eb894" />
  <rect y="0" x="373" width="1" height="35" fill="#5db895" />
  <rect y="0" x="374" width="1" height="35" fill="#5cb896" />
  <rect y="0" x="375" width="1" height="35" fill="#5bb796" />
  <rect y="0" x="376" width="1" height="35" fill="#5bb797" />
  <rect y="0" x="377" width="1" height="35" fill="#5ab798" />
  <rect y="0" x="378" width="1" height="35" fill="#59b799" />
  <rect y="0" x="379" width="1" height="35" fill="#58b69a" />
  <rect y="0" x="380" width="1" height="35" fill="#58b69b" />
  <rect y="0" x="381" width="1" height="35" fill="#57b69b" />
  <rect y="0" x="382" width="1" height="35" fill="#56b69c" />
  <rect y="0" x="383" width="1" height="35" fill="#55b69d" />
  <rect y="0" x="384" width="1" height="35" fill="#55b59e" />
  <rect y="0" x="385" width="1" height="35" fill="#54b59f" />
  <rect y="0" x="386" width="1" height="35" fill="#53b59f" />
  <rect y="0" x="387" width="1" height="35" fill="#52b5a0" />
  <rect y="0" x="388" width="1" height="35" fill="#51b4a1" />
  <rect y="0" x="389" width="1" height="35" fill="#51b4a2" />
  <rect y="0" x="390" width="1" height="35" fill="#50b4a3" />
  <rect y="0" x="391" width="1" height="35" fill="#4fb4a4" />
  <rect y="0" x="392" width="1" height="35" fill="#4eb4a4" />
  <rect y="0" x="393" width="1" height="35" fill="#4eb3a5" />
  <rect y="0" x="394" width="1" height="35" fill="#4db3a6" />
  <rect y="0" x="395" width="1" height="35" fill="#4cb3a7" />
  <rect y="0" x="396" width="1" height="35" fill="#4bb3a8" />
  <rect y="0" x="397" width="1" height="35" fill="#4bb3a9" />
  <rect y="0" x="398" width="1" height="35" fill="#4bb2a9" />
  <rect y="0" x="399" width="1" height="35" fill="#4bb2aa" />
  <rect y="0" x="400" width="1" height="35" fill="#4bb1aa" />
  <rect y="0" x="401" width="1" height="35" fill="#4bb1ab" />
  <rect y="0" x="402" width="1" height="35" fill="#4bb1ac" />
  <rect y="0" x="403" width="1" height="35" fill="#4bb0ac" />
  <rect y="0" x="404" width="1" height="35" fill="#4bb0ad" />
  <rect y="0" x="405" width="1" height="35" fill="#4bafad" />
  <rect y="0" x="406" width="1" height="35" fill="#4bafae" />
  <rect y="0" x="407" width="1" height="35" fill="#4bafaf" />
  <rect y="0" x="408" width="1" height="35" fill="#4baeaf" />
  <rect y="0" x="409" width="1" height="35" fill="#4baeb0" />
  <rect y="0" x="410" width="1" height="35" fill="#4badb0" />
  <rect y="0" x="411" width="1" height="35" fill="#4badb1" />
  <rect y="0" x="412" width="1" height="35" fill="#4badb2" />
  <rect y="0" x="413" width="1" height="35" fill="#4bacb2" />
  <rect y="0" x="416" width="1" height="35" fill="#4babb4" />
  <rect y="0" x="417" width="1" height="35" fill="#4babb5" />
  <rect y="0" x="418" width="1" height="35" fill="#4baab5" />
  <rect y="0" x="419" width="1" height="35" fill="#4baab6" />
  <rect y="0" x="420" width="1" height="35" fill="#4baab7" />
  <rect y="0" x="421" width="1" height="35" fill="#4ba9b7" />
  <rect y="0" x="422" width="1" height="35" fill="#4ba9b8" />
  <rect y="0" x="423" width="1" height="35" fill="#4ba8b8" />
  <rect y="0" x="424" width="1" height="35" fill="#4ba8b9" />
  <rect y="0" x="425" width="1" height="35" fill="#4ba8ba" />
  <rect y="0" x="426" width="1" height="35" fill="#4ba7ba" />
  <rect y="0" x="427" width="1" height="35" fill="#4ba7bb" />
  <rect y="0" x="428" width="1" height="35" fill="#4ba6bb" />
  <rect y="0" x="429" width="1" height="35" fill="#4ba6bc" />
  <rect y="0" x="430" width="1" height="35" fill="#4ba6bd" />
  <rect y="0" x="431" width="1" height="35" fill="#4ca5bd" />
  <rect y="0" x="432" width="1" height="35" fill="#4ca5be" />
  <rect y="0" x="433" width="1" height="35" fill="#4ca4be" />
  <rect y="0" x="434" width="1" height="35" fill="#4ca4bf" />
  <rect y="0" x="435" width="1" height="35" fill="#4ca4c0" />
  <rect y="0" x="436" width="1" height="35" fill="#4ca3c0" />
  <rect y="0" x="437" width="1" height="35" fill="#4ca3c1" />
  <rect y="0" x="444" width="1" height="35" fill="#4ca0c5" />
  <rect y="0" x="445" width="1" height="35" fill="#4ca0c6" />
  <rect y="0" x="448" width="1" height="35" fill="#4c9fc8" />
  <rect y="0" x="449" width="1" height="35" fill="#4c9ec8" />
  <rect y="0" x="450" width="1" height="35" fill="#4c9ec9" />
  <rect y="0" x="451" width="1" height="35" fill="#4c9dc9" />
  <rect y="0" x="452" width="1" height="35" fill="#4c9dca" />
  <rect y="0" x="454" width="1" height="35" fill="#4c9ccb" />
  <rect y="0" x="455" width="1" height="35" fill="#4c9ccc" />
  <rect y="0" x="456" width="1" height="35" fill="#4c9bcc" />
  <rect y="0" x="457" width="1" height="35" fill="#4c9bcd" />
  <rect y="0" x="458" width="1" height="35" fill="#4c9bce" />
  <rect y="0" x="459" width="1" height="35" fill="#4c9ace" />
  <rect y="0" x="460" width="1" height="35" fill="#4c9acf" />
  <rect y="0" x="461" width="1" height="35" fill="#4c9ad0" />
  <rect y="0" x="466" width="1" height="35" fill="#4d98d3" />
  <rect y="0" x="476" width="1" height="35" fill="#4d94d9" />
  <rect y="0" x="477" width="1" height="35" fill="#4d93d9" />
  <rect y="0" x="478" width="1" height="35" fill="#4d93da" />
  <rect y="0" x="479" width="1" height="35" fill="#4d93db" />
  <rect y="0" x="482" width="1" height="35" fill="#4d91dc" />
  <rect y="0" x="483" width="1" height="35" fill="#4d91dd" />
  <rect y="0" x="484" width="1" height="35" fill="#4d91de" />
  <rect y="0" x="485" width="1" height="35" fill="#4d90de" />
  <rect y="0" x="486" width="1" height="35" fill="#4d90df" />
  <rect y="0" x="487" width="1" height="35" fill="#4d8fdf" />
  <rect y="0" x="490" width="1" height="35" fill="#4d8ee1" />
  <rect y="0" x="491" width="1" height="35" fill="#4d8ee2" />
  <rect y="0" x="492" width="1" height="35" fill="#4d8de2" />
  <rect y="0" x="493" width="1" height="35" fill="#4d8de3" />
  <rect y="0" x="494" width="1" height="35" fill="#4d8de4" />
  <rect y="0" x="495" width="1" height="35" fill="#4d8ce4" />
  <rect y="0" x="496" width="1" height="35" fill="#4d8ce5" />
  <rect y="0" x="497" width="1" height="35" fill="#4e8ce6" />
  <rect y="0" x="498" width="1" height="35" fill="#4e8be6" />
  <rect y="0" x="499" width="1" height="35" fill="#4f8be6" />
  <rect y="0" x="500" width="1" height="35" fill="#508ae6" />
  <rect y="0" x="501" width="1" height="35" fill="#518ae6" />
  <rect y="0" x="502" width="1" height="35" fill="#5189e6" />
  <rect y="0" x="503" width="1" height="35" fill="#5289e6" />
  <rect y="0" x="504" width="1" height="35" fill="#5388e6" />
  <rect y="0" x="505" width="1" height="35" fill="#5488e6" />
  <rect y="0" x="506" width="1" height="35" fill="#5487e6" />
  <rect y="0" x="507" width="1" height="35" fill="#5587e6" />
  <rect y="0" x="508" width="1" height="35" fill="#5686e6" />
  <rect y="0" x="509" width="1" height="35" fill="#5786e6" />
  <rect y="0" x="510" width="1" height="35" fill="#5885e6" />
  <rect y="0" x="511" width="1" height="35" fill="#5885e6" />
  <rect y="0" x="512" width="1" height="35" fill="#5984e6" />
  <rect y="0" x="513" width="1" height="35" fill="#5a84e6" />
  <rect y="0" x="517" width="1" height="35" fill="#5d82e6" />
</svg>
