<svg viewBox="0 0 465 35" shape-rendering="crispEdges" xmlns="http://www.w3.org/2000/svg">
  <rect y="0" x="62" width="282" height="35" fill="#a3bff4" />
  <rect y="0" x="62" width="1" height="35" fill="#c8e3c2" />
  <rect y="0" x="88" width="1" height="35" fill="#c8e3c2" />
  <rect y="0" x="118" width="1" height="35" fill="#c8e3c2" />
  <rect y="0" x="139" width="1" height="35" fill="#c8e3c2" />
  <rect y="0" x="155" width="1" height="35" fill="#c8e3c2" />
  <rect y="0" x="156" width="1" height="35" fill="#c8e3c2" />
  <rect y="0" x="157" width="1" height="35" fill="#c8e3c2" />
  <rect y="0" x="175" width="1" height="35" fill="#c8e3c2" />
  <rect y="0" x="189" width="1" height="35" fill="#c8e3c2" />
  <rect y="0" x="192" width="1" height="35" fill="#c8e3c2" />
  <rect y="0" x="196" width="1" height="35" fill="#c8e3c2" />
  <rect y="0" x="199" width="1" height="35" fill="#c8e3c2" />
  <rect y="0" x="204" width="1" height="35" fill="#c8e3c2" />
  <rect y="0" x="213" width="1" height="35" fill="#c8e3c2" />
  <rect y="0" x="272" width="1" height="35" fill="#c8e3c2" />
  <rect y="0" x="285" width="1" height="35" fill="#c8e3c2" />
  <rect y="0" x="298" width="1" height="35" fill="#c8e3c2" />
  <rect y="0" x="302" width="1" height="35" fill="#c8e3c2" />
  <rect y="0" x="308" width="1" height="35" fill="#c8e3c2" />
  <rect y="0" x="318" width="1" height="35" fill="#c8e3c2" />
  <rect y="0" x="321" width="1" height="35" fill="#c8e3c2" />
  <rect y="0" x="338" width="1" height="35" fill="#c8e3c2" />
  <rect y="0" x="343" width="1" height="35" fill="#c8e3c2" />
</svg>
