<svg viewBox="0 0 523 35" shape-rendering="crispEdges" xmlns="http://www.w3.org/2000/svg">
  <rect y="0" x="110" width="383" height="35" fill="#e5e5e5" />
  <rect y="0" x="110" width="1" height="35" fill="#e18a4b" />
  <rect y="0" x="120" width="1" height="35" fill="#e1914b" />
  <rect y="0" x="129" width="1" height="35" fill="#e2974c" />
  <rect y="0" x="159" width="1" height="35" fill="#e4aa4d" />
  <rect y="0" x="180" width="1" height="35" fill="#e6b84e" />
  <rect y="0" x="184" width="1" height="35" fill="#e6bb4e" />
  <rect y="0" x="185" width="1" height="35" fill="#e7bc4e" />
  <rect y="0" x="238" width="1" height="35" fill="#c7c652" />
  <rect y="0" x="335" width="1" height="35" fill="#7ac076" />
  <rect y="0" x="338" width="1" height="35" fill="#78bf78" />
  <rect y="0" x="364" width="1" height="35" fill="#64ba8d" />
  <rect y="0" x="380" width="1" height="35" fill="#58b69b" />
  <rect y="0" x="382" width="1" height="35" fill="#56b69c" />
  <rect y="0" x="383" width="1" height="35" fill="#55b69d" />
  <rect y="0" x="384" width="1" height="35" fill="#55b59e" />
  <rect y="0" x="389" width="1" height="35" fill="#51b4a2" />
  <rect y="0" x="394" width="1" height="35" fill="#4db3a6" />
  <rect y="0" x="395" width="1" height="35" fill="#4cb3a7" />
  <rect y="0" x="410" width="1" height="35" fill="#4badb0" />
  <rect y="0" x="412" width="1" height="35" fill="#4badb2" />
  <rect y="0" x="430" width="1" height="35" fill="#4ba6bd" />
  <rect y="0" x="431" width="1" height="35" fill="#4ca5bd" />
  <rect y="0" x="492" width="1" height="35" fill="#4d8de2" />
</svg>
