<svg viewBox="0 0 444 35" shape-rendering="crispEdges" xmlns="http://www.w3.org/2000/svg">
  <rect y="0" x="98" width="191" height="35" fill="#a3bff4" />
  <rect y="0" x="98" width="1" height="35" fill="#c8e3c2" />
  <rect y="0" x="119" width="1" height="35" fill="#c8e3c2" />
  <rect y="0" x="135" width="1" height="35" fill="#c8e3c2" />
  <rect y="0" x="136" width="1" height="35" fill="#c8e3c2" />
  <rect y="0" x="137" width="1" height="35" fill="#c8e3c2" />
  <rect y="0" x="155" width="1" height="35" fill="#c8e3c2" />
  <rect y="0" x="169" width="1" height="35" fill="#c8e3c2" />
  <rect y="0" x="172" width="1" height="35" fill="#c8e3c2" />
  <rect y="0" x="176" width="1" height="35" fill="#c8e3c2" />
  <rect y="0" x="179" width="1" height="35" fill="#c8e3c2" />
  <rect y="0" x="184" width="1" height="35" fill="#c8e3c2" />
  <rect y="0" x="193" width="1" height="35" fill="#c8e3c2" />
  <rect y="0" x="252" width="1" height="35" fill="#c8e3c2" />
  <rect y="0" x="265" width="1" height="35" fill="#c8e3c2" />
  <rect y="0" x="288" width="1" height="35" fill="#c8e3c2" />
</svg>
