<svg viewBox="0 0 522 35" shape-rendering="crispEdges" xmlns="http://www.w3.org/2000/svg">
  <rect y="0" x="110" width="383" height="35" fill="#a3bff4" />
  <rect y="0" x="110" width="1" height="35" fill="#c8e3c2" />
  <rect y="0" x="120" width="1" height="35" fill="#c8e3c2" />
  <rect y="0" x="129" width="1" height="35" fill="#c8e3c2" />
  <rect y="0" x="159" width="1" height="35" fill="#c8e3c2" />
  <rect y="0" x="180" width="1" height="35" fill="#c8e3c2" />
  <rect y="0" x="184" width="1" height="35" fill="#c8e3c2" />
  <rect y="0" x="185" width="1" height="35" fill="#c8e3c2" />
  <rect y="0" x="238" width="1" height="35" fill="#c8e3c2" />
  <rect y="0" x="335" width="1" height="35" fill="#c8e3c2" />
  <rect y="0" x="338" width="1" height="35" fill="#c8e3c2" />
  <rect y="0" x="364" width="1" height="35" fill="#c8e3c2" />
  <rect y="0" x="380" width="1" height="35" fill="#c8e3c2" />
  <rect y="0" x="382" width="1" height="35" fill="#c8e3c2" />
  <rect y="0" x="383" width="1" height="35" fill="#c8e3c2" />
  <rect y="0" x="384" width="1" height="35" fill="#c8e3c2" />
  <rect y="0" x="389" width="1" height="35" fill="#c8e3c2" />
  <rect y="0" x="394" width="1" height="35" fill="#c8e3c2" />
  <rect y="0" x="395" width="1" height="35" fill="#c8e3c2" />
  <rect y="0" x="410" width="1" height="35" fill="#c8e3c2" />
  <rect y="0" x="412" width="1" height="35" fill="#c8e3c2" />
  <rect y="0" x="430" width="1" height="35" fill="#c8e3c2" />
  <rect y="0" x="431" width="1" height="35" fill="#c8e3c2" />
  <rect y="0" x="492" width="1" height="35" fill="#c8e3c2" />
</svg>
