<svg viewBox="0 0 522 35" shape-rendering="crispEdges" xmlns="http://www.w3.org/2000/svg">
  <rect y="0" x="119" width="282" height="35" fill="#a3bff4" />
  <rect y="0" x="119" width="1" height="35" fill="#c8e3c2" />
  <rect y="0" x="145" width="1" height="35" fill="#c8e3c2" />
  <rect y="0" x="175" width="1" height="35" fill="#c8e3c2" />
  <rect y="0" x="196" width="1" height="35" fill="#c8e3c2" />
  <rect y="0" x="212" width="1" height="35" fill="#c8e3c2" />
  <rect y="0" x="213" width="1" height="35" fill="#c8e3c2" />
  <rect y="0" x="214" width="1" height="35" fill="#c8e3c2" />
  <rect y="0" x="232" width="1" height="35" fill="#c8e3c2" />
  <rect y="0" x="246" width="1" height="35" fill="#c8e3c2" />
  <rect y="0" x="249" width="1" height="35" fill="#c8e3c2" />
  <rect y="0" x="253" width="1" height="35" fill="#c8e3c2" />
  <rect y="0" x="256" width="1" height="35" fill="#c8e3c2" />
  <rect y="0" x="261" width="1" height="35" fill="#c8e3c2" />
  <rect y="0" x="270" width="1" height="35" fill="#c8e3c2" />
  <rect y="0" x="329" width="1" height="35" fill="#c8e3c2" />
  <rect y="0" x="342" width="1" height="35" fill="#c8e3c2" />
  <rect y="0" x="355" width="1" height="35" fill="#c8e3c2" />
  <rect y="0" x="359" width="1" height="35" fill="#c8e3c2" />
  <rect y="0" x="365" width="1" height="35" fill="#c8e3c2" />
  <rect y="0" x="375" width="1" height="35" fill="#c8e3c2" />
  <rect y="0" x="378" width="1" height="35" fill="#c8e3c2" />
  <rect y="0" x="395" width="1" height="35" fill="#c8e3c2" />
  <rect y="0" x="400" width="1" height="35" fill="#c8e3c2" />
</svg>
