<svg viewBox="0 0 523 35" shape-rendering="crispEdges" xmlns="http://www.w3.org/2000/svg">
  <rect y="0" x="309" width="125" height="35" fill="#e5e5e5" />
  <rect y="0" x="309" width="1" height="35" fill="#8ec660" />
  <rect y="0" x="328" width="1" height="35" fill="#80c270" />
  <rect y="0" x="336" width="1" height="35" fill="#79c076" />
  <rect y="0" x="348" width="1" height="35" fill="#70bd80" />
  <rect y="0" x="350" width="1" height="35" fill="#6fbd82" />
  <rect y="0" x="363" width="1" height="35" fill="#65ba8d" />
  <rect y="0" x="364" width="1" height="35" fill="#64ba8d" />
  <rect y="0" x="367" width="1" height="35" fill="#62b990" />
  <rect y="0" x="368" width="1" height="35" fill="#61b991" />
  <rect y="0" x="372" width="1" height="35" fill="#5eb894" />
  <rect y="0" x="382" width="1" height="35" fill="#56b69c" />
  <rect y="0" x="384" width="1" height="35" fill="#55b59e" />
  <rect y="0" x="385" width="1" height="35" fill="#54b59f" />
  <rect y="0" x="386" width="1" height="35" fill="#53b59f" />
  <rect y="0" x="387" width="1" height="35" fill="#52b5a0" />
  <rect y="0" x="388" width="1" height="35" fill="#51b4a1" />
  <rect y="0" x="393" width="1" height="35" fill="#4eb3a5" />
  <rect y="0" x="394" width="1" height="35" fill="#4db3a6" />
  <rect y="0" x="395" width="1" height="35" fill="#4cb3a7" />
  <rect y="0" x="414" width="1" height="35" fill="#4bacb3" />
  <rect y="0" x="428" width="1" height="35" fill="#4ba6bb" />
  <rect y="0" x="430" width="1" height="35" fill="#4ba6bd" />
  <rect y="0" x="433" width="1" height="35" fill="#4ca4be" />
</svg>
