<svg viewBox="0 0 523 35" shape-rendering="crispEdges" xmlns="http://www.w3.org/2000/svg">
  <rect y="0" x="18" width="486" height="35" fill="#e5e5e5" />
  <rect y="0" x="18" width="1" height="35" fill="#c86151" />
  <rect y="0" x="222" width="1" height="35" fill="#d4c551" />
  <rect y="0" x="252" width="1" height="35" fill="#bcc653" />
  <rect y="0" x="369" width="1" height="35" fill="#60b992" />
  <rect y="0" x="376" width="1" height="35" fill="#5bb797" />
  <rect y="0" x="377" width="1" height="35" fill="#5ab798" />
  <rect y="0" x="384" width="1" height="35" fill="#55b59e" />
  <rect y="0" x="385" width="1" height="35" fill="#54b59f" />
  <rect y="0" x="389" width="1" height="35" fill="#51b4a2" />
  <rect y="0" x="393" width="1" height="35" fill="#4eb3a5" />
  <rect y="0" x="395" width="1" height="35" fill="#4cb3a7" />
  <rect y="0" x="401" width="1" height="35" fill="#4bb1ab" />
  <rect y="0" x="402" width="1" height="35" fill="#4bb1ac" />
  <rect y="0" x="403" width="1" height="35" fill="#4bb0ac" />
  <rect y="0" x="405" width="1" height="35" fill="#4bafad" />
  <rect y="0" x="406" width="1" height="35" fill="#4bafae" />
  <rect y="0" x="420" width="1" height="35" fill="#4baab7" />
  <rect y="0" x="424" width="1" height="35" fill="#4ba8b9" />
  <rect y="0" x="493" width="1" height="35" fill="#4d8de3" />
  <rect y="0" x="496" width="1" height="35" fill="#4d8ce5" />
  <rect y="0" x="498" width="1" height="35" fill="#4e8be6" />
  <rect y="0" x="499" width="1" height="35" fill="#4f8be6" />
  <rect y="0" x="503" width="1" height="35" fill="#5289e6" />
</svg>
