<svg viewBox="0 0 523 35" shape-rendering="crispEdges" xmlns="http://www.w3.org/2000/svg">
  <rect y="0" x="17" width="436" height="35" fill="#e5e5e5" />
  <rect y="0" x="17" width="1" height="35" fill="#c86151" />
  <rect y="0" x="23" width="1" height="35" fill="#c96350" />
  <rect y="0" x="46" width="1" height="35" fill="#d06d4f" />
  <rect y="0" x="61" width="1" height="35" fill="#d5734d" />
  <rect y="0" x="89" width="1" height="35" fill="#dd7e4b" />
  <rect y="0" x="90" width="1" height="35" fill="#dd7f4b" />
  <rect y="0" x="107" width="1" height="35" fill="#e0884b" />
  <rect y="0" x="117" width="1" height="35" fill="#e18f4b" />
  <rect y="0" x="154" width="1" height="35" fill="#e4a74d" />
  <rect y="0" x="188" width="1" height="35" fill="#e7be4e" />
  <rect y="0" x="222" width="1" height="35" fill="#d4c551" />
  <rect y="0" x="230" width="1" height="35" fill="#cdc551" />
  <rect y="0" x="247" width="1" height="35" fill="#c0c653" />
  <rect y="0" x="255" width="1" height="35" fill="#b9c653" />
  <rect y="0" x="281" width="1" height="35" fill="#a4c855" />
  <rect y="0" x="342" width="1" height="35" fill="#75bf7b" />
  <rect y="0" x="347" width="1" height="35" fill="#71be80" />
  <rect y="0" x="353" width="1" height="35" fill="#6cbc84" />
  <rect y="0" x="385" width="1" height="35" fill="#54b59f" />
  <rect y="0" x="388" width="1" height="35" fill="#51b4a1" />
  <rect y="0" x="395" width="1" height="35" fill="#4cb3a7" />
  <rect y="0" x="397" width="1" height="35" fill="#4bb3a9" />
  <rect y="0" x="402" width="1" height="35" fill="#4bb1ac" />
  <rect y="0" x="404" width="1" height="35" fill="#4bb0ad" />
  <rect y="0" x="411" width="1" height="35" fill="#4badb1" />
  <rect y="0" x="436" width="1" height="35" fill="#4ca3c0" />
  <rect y="0" x="452" width="1" height="35" fill="#4c9dca" />
</svg>
