<svg viewBox="0 0 444 35" shape-rendering="crispEdges" xmlns="http://www.w3.org/2000/svg">
  <rect y="0" x="25" width="408" height="35" fill="#a3bff4" />
  <rect y="0" x="25" width="1" height="35" fill="#c8e3c2" />
  <rect y="0" x="35" width="1" height="35" fill="#c8e3c2" />
  <rect y="0" x="48" width="1" height="35" fill="#c8e3c2" />
  <rect y="0" x="85" width="1" height="35" fill="#c8e3c2" />
  <rect y="0" x="148" width="1" height="35" fill="#c8e3c2" />
  <rect y="0" x="271" width="1" height="35" fill="#c8e3c2" />
  <rect y="0" x="277" width="1" height="35" fill="#c8e3c2" />
  <rect y="0" x="282" width="1" height="35" fill="#c8e3c2" />
  <rect y="0" x="283" width="1" height="35" fill="#c8e3c2" />
  <rect y="0" x="286" width="1" height="35" fill="#c8e3c2" />
  <rect y="0" x="298" width="1" height="35" fill="#c8e3c2" />
  <rect y="0" x="301" width="1" height="35" fill="#c8e3c2" />
  <rect y="0" x="311" width="1" height="35" fill="#c8e3c2" />
  <rect y="0" x="320" width="1" height="35" fill="#c8e3c2" />
  <rect y="0" x="321" width="1" height="35" fill="#c8e3c2" />
  <rect y="0" x="322" width="1" height="35" fill="#c8e3c2" />
  <rect y="0" x="325" width="1" height="35" fill="#c8e3c2" />
  <rect y="0" x="326" width="1" height="35" fill="#c8e3c2" />
  <rect y="0" x="327" width="1" height="35" fill="#c8e3c2" />
  <rect y="0" x="328" width="1" height="35" fill="#c8e3c2" />
  <rect y="0" x="340" width="1" height="35" fill="#c8e3c2" />
  <rect y="0" x="345" width="1" height="35" fill="#c8e3c2" />
  <rect y="0" x="346" width="1" height="35" fill="#c8e3c2" />
  <rect y="0" x="348" width="1" height="35" fill="#c8e3c2" />
  <rect y="0" x="351" width="1" height="35" fill="#c8e3c2" />
  <rect y="0" x="354" width="1" height="35" fill="#c8e3c2" />
  <rect y="0" x="355" width="1" height="35" fill="#c8e3c2" />
  <rect y="0" x="405" width="1" height="35" fill="#c8e3c2" />
  <rect y="0" x="408" width="1" height="35" fill="#c8e3c2" />
  <rect y="0" x="432" width="1" height="35" fill="#c8e3c2" />
</svg>
