<svg viewBox="0 0 444 35" shape-rendering="crispEdges" xmlns="http://www.w3.org/2000/svg">
  <rect y="0" x="232" width="125" height="35" fill="#a3bff4" />
  <rect y="0" x="232" width="1" height="35" fill="#c8e3c2" />
  <rect y="0" x="251" width="1" height="35" fill="#c8e3c2" />
  <rect y="0" x="259" width="1" height="35" fill="#c8e3c2" />
  <rect y="0" x="271" width="1" height="35" fill="#c8e3c2" />
  <rect y="0" x="273" width="1" height="35" fill="#c8e3c2" />
  <rect y="0" x="286" width="1" height="35" fill="#c8e3c2" />
  <rect y="0" x="287" width="1" height="35" fill="#c8e3c2" />
  <rect y="0" x="290" width="1" height="35" fill="#c8e3c2" />
  <rect y="0" x="291" width="1" height="35" fill="#c8e3c2" />
  <rect y="0" x="295" width="1" height="35" fill="#c8e3c2" />
  <rect y="0" x="305" width="1" height="35" fill="#c8e3c2" />
  <rect y="0" x="307" width="1" height="35" fill="#c8e3c2" />
  <rect y="0" x="308" width="1" height="35" fill="#c8e3c2" />
  <rect y="0" x="309" width="1" height="35" fill="#c8e3c2" />
  <rect y="0" x="310" width="1" height="35" fill="#c8e3c2" />
  <rect y="0" x="311" width="1" height="35" fill="#c8e3c2" />
  <rect y="0" x="316" width="1" height="35" fill="#c8e3c2" />
  <rect y="0" x="317" width="1" height="35" fill="#c8e3c2" />
  <rect y="0" x="318" width="1" height="35" fill="#c8e3c2" />
  <rect y="0" x="337" width="1" height="35" fill="#c8e3c2" />
  <rect y="0" x="356" width="1" height="35" fill="#c8e3c2" />
</svg>
