<svg viewBox="0 0 522 35" shape-rendering="crispEdges" xmlns="http://www.w3.org/2000/svg">
  <rect y="0" x="17" width="436" height="35" fill="#a3bff4" />
  <rect y="0" x="17" width="1" height="35" fill="#c8e3c2" />
  <rect y="0" x="23" width="1" height="35" fill="#c8e3c2" />
  <rect y="0" x="46" width="1" height="35" fill="#c8e3c2" />
  <rect y="0" x="61" width="1" height="35" fill="#c8e3c2" />
  <rect y="0" x="89" width="1" height="35" fill="#c8e3c2" />
  <rect y="0" x="90" width="1" height="35" fill="#c8e3c2" />
  <rect y="0" x="117" width="1" height="35" fill="#c8e3c2" />
  <rect y="0" x="154" width="1" height="35" fill="#c8e3c2" />
  <rect y="0" x="188" width="1" height="35" fill="#c8e3c2" />
  <rect y="0" x="222" width="1" height="35" fill="#c8e3c2" />
  <rect y="0" x="230" width="1" height="35" fill="#c8e3c2" />
  <rect y="0" x="255" width="1" height="35" fill="#c8e3c2" />
  <rect y="0" x="281" width="1" height="35" fill="#c8e3c2" />
  <rect y="0" x="388" width="1" height="35" fill="#c8e3c2" />
  <rect y="0" x="397" width="1" height="35" fill="#c8e3c2" />
  <rect y="0" x="404" width="1" height="35" fill="#c8e3c2" />
  <rect y="0" x="411" width="1" height="35" fill="#c8e3c2" />
  <rect y="0" x="452" width="1" height="35" fill="#c8e3c2" />
</svg>
