<svg viewBox="0 0 523 35" shape-rendering="crispEdges" xmlns="http://www.w3.org/2000/svg">
  <rect y="0" x="121" width="401" height="35" fill="#e5e5e5" />
  <rect y="0" x="121" width="1" height="35" fill="#e1914b" />
  <rect y="0" x="229" width="1" height="35" fill="#cec551" />
  <rect y="0" x="342" width="1" height="35" fill="#75bf7b" />
  <rect y="0" x="363" width="1" height="35" fill="#65ba8d" />
  <rect y="0" x="387" width="1" height="35" fill="#52b5a0" />
  <rect y="0" x="395" width="1" height="35" fill="#4cb3a7" />
  <rect y="0" x="396" width="1" height="35" fill="#4bb3a8" />
  <rect y="0" x="397" width="1" height="35" fill="#4bb3a9" />
  <rect y="0" x="402" width="1" height="35" fill="#4bb1ac" />
  <rect y="0" x="407" width="1" height="35" fill="#4bafaf" />
  <rect y="0" x="411" width="1" height="35" fill="#4badb1" />
  <rect y="0" x="419" width="1" height="35" fill="#4baab6" />
  <rect y="0" x="501" width="1" height="35" fill="#518ae6" />
  <rect y="0" x="519" width="1" height="35" fill="#5e81e6" />
  <rect y="0" x="521" width="1" height="35" fill="#6080e6" />
</svg>
