<svg viewBox="0 0 523 35" shape-rendering="crispEdges" xmlns="http://www.w3.org/2000/svg">
  <rect y="0" x="7" width="426" height="35" fill="#e5e5e5" />
  <rect y="0" x="7" width="1" height="35" fill="#c55d52" />
  <rect y="0" x="37" width="1" height="35" fill="#ce694f" />
  <rect y="0" x="62" width="1" height="35" fill="#d5734d" />
  <rect y="0" x="87" width="1" height="35" fill="#dd7d4b" />
  <rect y="0" x="93" width="1" height="35" fill="#de804b" />
  <rect y="0" x="118" width="1" height="35" fill="#e18f4b" />
  <rect y="0" x="146" width="1" height="35" fill="#e3a24c" />
  <rect y="0" x="169" width="1" height="35" fill="#e5b14d" />
  <rect y="0" x="299" width="1" height="35" fill="#96c858" />
  <rect y="0" x="307" width="1" height="35" fill="#90c65f" />
  <rect y="0" x="381" width="1" height="35" fill="#57b69b" />
  <rect y="0" x="404" width="1" height="35" fill="#4bb0ad" />
  <rect y="0" x="425" width="1" height="35" fill="#4ba8ba" />
  <rect y="0" x="432" width="1" height="35" fill="#4ca5be" />
</svg>
