<svg viewBox="0 0 442 35" shape-rendering="crispEdges" xmlns="http://www.w3.org/2000/svg">
  <rect y="0" x="0" width="433" height="35" fill="#a3bff4" />
  <rect y="0" x="0" width="1" height="35" fill="#c8e3c2" />
  <rect y="0" x="27" width="1" height="35" fill="#c8e3c2" />
  <rect y="0" x="49" width="1" height="35" fill="#c8e3c2" />
  <rect y="0" x="51" width="1" height="35" fill="#c8e3c2" />
  <rect y="0" x="78" width="1" height="35" fill="#c8e3c2" />
  <rect y="0" x="85" width="1" height="35" fill="#c8e3c2" />
  <rect y="0" x="88" width="1" height="35" fill="#c8e3c2" />
  <rect y="0" x="89" width="1" height="35" fill="#c8e3c2" />
  <rect y="0" x="95" width="1" height="35" fill="#c8e3c2" />
  <rect y="0" x="116" width="1" height="35" fill="#c8e3c2" />
  <rect y="0" x="122" width="1" height="35" fill="#c8e3c2" />
  <rect y="0" x="125" width="1" height="35" fill="#c8e3c2" />
  <rect y="0" x="129" width="1" height="35" fill="#c8e3c2" />
  <rect y="0" x="133" width="1" height="35" fill="#c8e3c2" />
  <rect y="0" x="139" width="1" height="35" fill="#c8e3c2" />
  <rect y="0" x="140" width="1" height="35" fill="#c8e3c2" />
  <rect y="0" x="141" width="1" height="35" fill="#c8e3c2" />
  <rect y="0" x="142" width="1" height="35" fill="#c8e3c2" />
  <rect y="0" x="143" width="1" height="35" fill="#c8e3c2" />
  <rect y="0" x="145" width="1" height="35" fill="#c8e3c2" />
  <rect y="0" x="146" width="1" height="35" fill="#c8e3c2" />
  <rect y="0" x="149" width="1" height="35" fill="#c8e3c2" />
  <rect y="0" x="151" width="1" height="35" fill="#c8e3c2" />
  <rect y="0" x="152" width="1" height="35" fill="#c8e3c2" />
  <rect y="0" x="154" width="1" height="35" fill="#c8e3c2" />
  <rect y="0" x="156" width="1" height="35" fill="#c8e3c2" />
  <rect y="0" x="163" width="1" height="35" fill="#c8e3c2" />
  <rect y="0" x="164" width="1" height="35" fill="#c8e3c2" />
  <rect y="0" x="168" width="1" height="35" fill="#c8e3c2" />
  <rect y="0" x="175" width="1" height="35" fill="#c8e3c2" />
  <rect y="0" x="180" width="1" height="35" fill="#c8e3c2" />
  <rect y="0" x="181" width="1" height="35" fill="#c8e3c2" />
  <rect y="0" x="182" width="1" height="35" fill="#c8e3c2" />
  <rect y="0" x="186" width="1" height="35" fill="#c8e3c2" />
  <rect y="0" x="187" width="1" height="35" fill="#c8e3c2" />
  <rect y="0" x="196" width="1" height="35" fill="#c8e3c2" />
  <rect y="0" x="202" width="1" height="35" fill="#c8e3c2" />
  <rect y="0" x="204" width="1" height="35" fill="#c8e3c2" />
  <rect y="0" x="205" width="1" height="35" fill="#c8e3c2" />
  <rect y="0" x="206" width="1" height="35" fill="#c8e3c2" />
  <rect y="0" x="209" width="1" height="35" fill="#c8e3c2" />
  <rect y="0" x="210" width="1" height="35" fill="#c8e3c2" />
  <rect y="0" x="211" width="1" height="35" fill="#c8e3c2" />
  <rect y="0" x="212" width="1" height="35" fill="#c8e3c2" />
  <rect y="0" x="214" width="1" height="35" fill="#c8e3c2" />
  <rect y="0" x="215" width="1" height="35" fill="#c8e3c2" />
  <rect y="0" x="217" width="1" height="35" fill="#c8e3c2" />
  <rect y="0" x="218" width="1" height="35" fill="#c8e3c2" />
  <rect y="0" x="219" width="1" height="35" fill="#c8e3c2" />
  <rect y="0" x="222" width="1" height="35" fill="#c8e3c2" />
  <rect y="0" x="226" width="1" height="35" fill="#c8e3c2" />
  <rect y="0" x="231" width="1" height="35" fill="#c8e3c2" />
  <rect y="0" x="232" width="1" height="35" fill="#c8e3c2" />
  <rect y="0" x="233" width="1" height="35" fill="#c8e3c2" />
  <rect y="0" x="236" width="1" height="35" fill="#c8e3c2" />
  <rect y="0" x="237" width="1" height="35" fill="#c8e3c2" />
  <rect y="0" x="240" width="1" height="35" fill="#c8e3c2" />
  <rect y="0" x="241" width="1" height="35" fill="#c8e3c2" />
  <rect y="0" x="242" width="1" height="35" fill="#c8e3c2" />
  <rect y="0" x="243" width="1" height="35" fill="#c8e3c2" />
  <rect y="0" x="244" width="1" height="35" fill="#c8e3c2" />
  <rect y="0" x="245" width="1" height="35" fill="#c8e3c2" />
  <rect y="0" x="246" width="1" height="35" fill="#c8e3c2" />
  <rect y="0" x="247" width="1" height="35" fill="#c8e3c2" />
  <rect y="0" x="248" width="1" height="35" fill="#c8e3c2" />
  <rect y="0" x="249" width="1" height="35" fill="#c8e3c2" />
  <rect y="0" x="250" width="1" height="35" fill="#c8e3c2" />
  <rect y="0" x="253" width="1" height="35" fill="#c8e3c2" />
  <rect y="0" x="254" width="1" height="35" fill="#c8e3c2" />
  <rect y="0" x="255" width="1" height="35" fill="#c8e3c2" />
  <rect y="0" x="256" width="1" height="35" fill="#c8e3c2" />
  <rect y="0" x="257" width="1" height="35" fill="#c8e3c2" />
  <rect y="0" x="258" width="1" height="35" fill="#c8e3c2" />
  <rect y="0" x="259" width="1" height="35" fill="#c8e3c2" />
  <rect y="0" x="260" width="1" height="35" fill="#c8e3c2" />
  <rect y="0" x="262" width="1" height="35" fill="#c8e3c2" />
  <rect y="0" x="264" width="1" height="35" fill="#c8e3c2" />
  <rect y="0" x="266" width="1" height="35" fill="#c8e3c2" />
  <rect y="0" x="267" width="1" height="35" fill="#c8e3c2" />
  <rect y="0" x="268" width="1" height="35" fill="#c8e3c2" />
  <rect y="0" x="269" width="1" height="35" fill="#c8e3c2" />
  <rect y="0" x="270" width="1" height="35" fill="#c8e3c2" />
  <rect y="0" x="272" width="1" height="35" fill="#c8e3c2" />
  <rect y="0" x="273" width="1" height="35" fill="#c8e3c2" />
  <rect y="0" x="274" width="1" height="35" fill="#c8e3c2" />
  <rect y="0" x="275" width="1" height="35" fill="#c8e3c2" />
  <rect y="0" x="277" width="1" height="35" fill="#c8e3c2" />
  <rect y="0" x="278" width="1" height="35" fill="#c8e3c2" />
  <rect y="0" x="279" width="1" height="35" fill="#c8e3c2" />
  <rect y="0" x="280" width="1" height="35" fill="#c8e3c2" />
  <rect y="0" x="281" width="1" height="35" fill="#c8e3c2" />
  <rect y="0" x="282" width="1" height="35" fill="#c8e3c2" />
  <rect y="0" x="283" width="1" height="35" fill="#c8e3c2" />
  <rect y="0" x="284" width="1" height="35" fill="#c8e3c2" />
  <rect y="0" x="285" width="1" height="35" fill="#c8e3c2" />
  <rect y="0" x="286" width="1" height="35" fill="#c8e3c2" />
  <rect y="0" x="288" width="1" height="35" fill="#c8e3c2" />
  <rect y="0" x="289" width="1" height="35" fill="#c8e3c2" />
  <rect y="0" x="290" width="1" height="35" fill="#c8e3c2" />
  <rect y="0" x="291" width="1" height="35" fill="#c8e3c2" />
  <rect y="0" x="292" width="1" height="35" fill="#c8e3c2" />
  <rect y="0" x="293" width="1" height="35" fill="#c8e3c2" />
  <rect y="0" x="294" width="1" height="35" fill="#c8e3c2" />
  <rect y="0" x="295" width="1" height="35" fill="#c8e3c2" />
  <rect y="0" x="296" width="1" height="35" fill="#c8e3c2" />
  <rect y="0" x="297" width="1" height="35" fill="#c8e3c2" />
  <rect y="0" x="298" width="1" height="35" fill="#c8e3c2" />
  <rect y="0" x="299" width="1" height="35" fill="#c8e3c2" />
  <rect y="0" x="300" width="1" height="35" fill="#c8e3c2" />
  <rect y="0" x="301" width="1" height="35" fill="#c8e3c2" />
  <rect y="0" x="302" width="1" height="35" fill="#c8e3c2" />
  <rect y="0" x="303" width="1" height="35" fill="#c8e3c2" />
  <rect y="0" x="304" width="1" height="35" fill="#c8e3c2" />
  <rect y="0" x="305" width="1" height="35" fill="#c8e3c2" />
  <rect y="0" x="306" width="1" height="35" fill="#c8e3c2" />
  <rect y="0" x="307" width="1" height="35" fill="#c8e3c2" />
  <rect y="0" x="308" width="1" height="35" fill="#c8e3c2" />
  <rect y="0" x="309" width="1" height="35" fill="#c8e3c2" />
  <rect y="0" x="310" width="1" height="35" fill="#c8e3c2" />
  <rect y="0" x="311" width="1" height="35" fill="#c8e3c2" />
  <rect y="0" x="312" width="1" height="35" fill="#c8e3c2" />
  <rect y="0" x="313" width="1" height="35" fill="#c8e3c2" />
  <rect y="0" x="314" width="1" height="35" fill="#c8e3c2" />
  <rect y="0" x="315" width="1" height="35" fill="#c8e3c2" />
  <rect y="0" x="316" width="1" height="35" fill="#c8e3c2" />
  <rect y="0" x="317" width="1" height="35" fill="#c8e3c2" />
  <rect y="0" x="318" width="1" height="35" fill="#c8e3c2" />
  <rect y="0" x="319" width="1" height="35" fill="#c8e3c2" />
  <rect y="0" x="320" width="1" height="35" fill="#c8e3c2" />
  <rect y="0" x="321" width="1" height="35" fill="#c8e3c2" />
  <rect y="0" x="322" width="1" height="35" fill="#c8e3c2" />
  <rect y="0" x="323" width="1" height="35" fill="#c8e3c2" />
  <rect y="0" x="324" width="1" height="35" fill="#c8e3c2" />
  <rect y="0" x="325" width="1" height="35" fill="#c8e3c2" />
  <rect y="0" x="326" width="1" height="35" fill="#c8e3c2" />
  <rect y="0" x="327" width="1" height="35" fill="#c8e3c2" />
  <rect y="0" x="328" width="1" height="35" fill="#c8e3c2" />
  <rect y="0" x="329" width="1" height="35" fill="#c8e3c2" />
  <rect y="0" x="330" width="1" height="35" fill="#c8e3c2" />
  <rect y="0" x="331" width="1" height="35" fill="#c8e3c2" />
  <rect y="0" x="332" width="1" height="35" fill="#c8e3c2" />
  <rect y="0" x="333" width="1" height="35" fill="#c8e3c2" />
  <rect y="0" x="334" width="1" height="35" fill="#c8e3c2" />
  <rect y="0" x="335" width="1" height="35" fill="#c8e3c2" />
  <rect y="0" x="336" width="1" height="35" fill="#c8e3c2" />
  <rect y="0" x="339" width="1" height="35" fill="#c8e3c2" />
  <rect y="0" x="340" width="1" height="35" fill="#c8e3c2" />
  <rect y="0" x="341" width="1" height="35" fill="#c8e3c2" />
  <rect y="0" x="342" width="1" height="35" fill="#c8e3c2" />
  <rect y="0" x="343" width="1" height="35" fill="#c8e3c2" />
  <rect y="0" x="344" width="1" height="35" fill="#c8e3c2" />
  <rect y="0" x="345" width="1" height="35" fill="#c8e3c2" />
  <rect y="0" x="346" width="1" height="35" fill="#c8e3c2" />
  <rect y="0" x="347" width="1" height="35" fill="#c8e3c2" />
  <rect y="0" x="348" width="1" height="35" fill="#c8e3c2" />
  <rect y="0" x="349" width="1" height="35" fill="#c8e3c2" />
  <rect y="0" x="350" width="1" height="35" fill="#c8e3c2" />
  <rect y="0" x="351" width="1" height="35" fill="#c8e3c2" />
  <rect y="0" x="352" width="1" height="35" fill="#c8e3c2" />
  <rect y="0" x="353" width="1" height="35" fill="#c8e3c2" />
  <rect y="0" x="354" width="1" height="35" fill="#c8e3c2" />
  <rect y="0" x="355" width="1" height="35" fill="#c8e3c2" />
  <rect y="0" x="356" width="1" height="35" fill="#c8e3c2" />
  <rect y="0" x="357" width="1" height="35" fill="#c8e3c2" />
  <rect y="0" x="358" width="1" height="35" fill="#c8e3c2" />
  <rect y="0" x="367" width="1" height="35" fill="#c8e3c2" />
  <rect y="0" x="368" width="1" height="35" fill="#c8e3c2" />
  <rect y="0" x="371" width="1" height="35" fill="#c8e3c2" />
  <rect y="0" x="372" width="1" height="35" fill="#c8e3c2" />
  <rect y="0" x="373" width="1" height="35" fill="#c8e3c2" />
  <rect y="0" x="375" width="1" height="35" fill="#c8e3c2" />
  <rect y="0" x="377" width="1" height="35" fill="#c8e3c2" />
  <rect y="0" x="378" width="1" height="35" fill="#c8e3c2" />
  <rect y="0" x="379" width="1" height="35" fill="#c8e3c2" />
  <rect y="0" x="380" width="1" height="35" fill="#c8e3c2" />
  <rect y="0" x="381" width="1" height="35" fill="#c8e3c2" />
  <rect y="0" x="382" width="1" height="35" fill="#c8e3c2" />
  <rect y="0" x="383" width="1" height="35" fill="#c8e3c2" />
  <rect y="0" x="384" width="1" height="35" fill="#c8e3c2" />
  <rect y="0" x="389" width="1" height="35" fill="#c8e3c2" />
  <rect y="0" x="399" width="1" height="35" fill="#c8e3c2" />
  <rect y="0" x="401" width="1" height="35" fill="#c8e3c2" />
  <rect y="0" x="402" width="1" height="35" fill="#c8e3c2" />
  <rect y="0" x="405" width="1" height="35" fill="#c8e3c2" />
  <rect y="0" x="407" width="1" height="35" fill="#c8e3c2" />
  <rect y="0" x="408" width="1" height="35" fill="#c8e3c2" />
  <rect y="0" x="410" width="1" height="35" fill="#c8e3c2" />
  <rect y="0" x="413" width="1" height="35" fill="#c8e3c2" />
  <rect y="0" x="414" width="1" height="35" fill="#c8e3c2" />
  <rect y="0" x="416" width="1" height="35" fill="#c8e3c2" />
  <rect y="0" x="417" width="1" height="35" fill="#c8e3c2" />
  <rect y="0" x="419" width="1" height="35" fill="#c8e3c2" />
  <rect y="0" x="420" width="1" height="35" fill="#c8e3c2" />
  <rect y="0" x="421" width="1" height="35" fill="#c8e3c2" />
  <rect y="0" x="422" width="1" height="35" fill="#c8e3c2" />
  <rect y="0" x="423" width="1" height="35" fill="#c8e3c2" />
  <rect y="0" x="425" width="1" height="35" fill="#c8e3c2" />
  <rect y="0" x="427" width="1" height="35" fill="#c8e3c2" />
  <rect y="0" x="428" width="1" height="35" fill="#c8e3c2" />
  <rect y="0" x="429" width="1" height="35" fill="#c8e3c2" />
  <rect y="0" x="430" width="1" height="35" fill="#c8e3c2" />
  <rect y="0" x="432" width="1" height="35" fill="#c8e3c2" />
</svg>
