<svg viewBox="0 0 522 35" shape-rendering="crispEdges" xmlns="http://www.w3.org/2000/svg">
  <rect y="0" x="7" width="426" height="35" fill="#a3bff4" />
  <rect y="0" x="7" width="1" height="35" fill="#c8e3c2" />
  <rect y="0" x="37" width="1" height="35" fill="#c8e3c2" />
  <rect y="0" x="62" width="1" height="35" fill="#c8e3c2" />
  <rect y="0" x="87" width="1" height="35" fill="#c8e3c2" />
  <rect y="0" x="93" width="1" height="35" fill="#c8e3c2" />
  <rect y="0" x="118" width="1" height="35" fill="#c8e3c2" />
  <rect y="0" x="146" width="1" height="35" fill="#c8e3c2" />
  <rect y="0" x="169" width="1" height="35" fill="#c8e3c2" />
  <rect y="0" x="299" width="1" height="35" fill="#c8e3c2" />
  <rect y="0" x="307" width="1" height="35" fill="#c8e3c2" />
  <rect y="0" x="381" width="1" height="35" fill="#c8e3c2" />
  <rect y="0" x="400" width="1" height="35" fill="#c8e3c2" />
  <rect y="0" x="404" width="1" height="35" fill="#c8e3c2" />
  <rect y="0" x="406" width="1" height="35" fill="#c8e3c2" />
  <rect y="0" x="425" width="1" height="35" fill="#c8e3c2" />
  <rect y="0" x="432" width="1" height="35" fill="#c8e3c2" />
</svg>
