<svg viewBox="0 0 523 35" shape-rendering="crispEdges" xmlns="http://www.w3.org/2000/svg">
  <rect y="0" x="14" width="496" height="35" fill="#e5e5e5" />
  <rect y="0" x="14" width="1" height="35" fill="#c75f51" />
  <rect y="0" x="102" width="1" height="35" fill="#e0854b" />
  <rect y="0" x="112" width="1" height="35" fill="#e18b4b" />
  <rect y="0" x="125" width="1" height="35" fill="#e2944c" />
  <rect y="0" x="162" width="1" height="35" fill="#e5ac4d" />
  <rect y="0" x="225" width="1" height="35" fill="#d1c551" />
  <rect y="0" x="348" width="1" height="35" fill="#70bd80" />
  <rect y="0" x="354" width="1" height="35" fill="#6cbc85" />
  <rect y="0" x="359" width="1" height="35" fill="#68bb89" />
  <rect y="0" x="360" width="1" height="35" fill="#67bb8a" />
  <rect y="0" x="363" width="1" height="35" fill="#65ba8d" />
  <rect y="0" x="375" width="1" height="35" fill="#5bb796" />
  <rect y="0" x="378" width="1" height="35" fill="#59b799" />
  <rect y="0" x="384" width="1" height="35" fill="#55b59e" />
  <rect y="0" x="388" width="1" height="35" fill="#51b4a1" />
  <rect y="0" x="390" width="1" height="35" fill="#50b4a3" />
  <rect y="0" x="392" width="1" height="35" fill="#4eb4a4" />
  <rect y="0" x="397" width="1" height="35" fill="#4bb3a9" />
  <rect y="0" x="398" width="1" height="35" fill="#4bb2a9" />
  <rect y="0" x="399" width="1" height="35" fill="#4bb2aa" />
  <rect y="0" x="402" width="1" height="35" fill="#4bb1ac" />
  <rect y="0" x="403" width="1" height="35" fill="#4bb0ac" />
  <rect y="0" x="404" width="1" height="35" fill="#4bb0ad" />
  <rect y="0" x="405" width="1" height="35" fill="#4bafad" />
  <rect y="0" x="417" width="1" height="35" fill="#4babb5" />
  <rect y="0" x="422" width="1" height="35" fill="#4ba9b8" />
  <rect y="0" x="423" width="1" height="35" fill="#4ba8b8" />
  <rect y="0" x="425" width="1" height="35" fill="#4ba8ba" />
  <rect y="0" x="428" width="1" height="35" fill="#4ba6bb" />
  <rect y="0" x="431" width="1" height="35" fill="#4ca5bd" />
  <rect y="0" x="432" width="1" height="35" fill="#4ca5be" />
  <rect y="0" x="482" width="1" height="35" fill="#4d91dc" />
  <rect y="0" x="485" width="1" height="35" fill="#4d90de" />
  <rect y="0" x="509" width="1" height="35" fill="#5786e6" />
</svg>
