<svg viewBox="0 0 522 35" shape-rendering="crispEdges" xmlns="http://www.w3.org/2000/svg">
  <rect y="0" x="14" width="496" height="35" fill="#a3bff4" />
  <rect y="0" x="14" width="1" height="35" fill="#c8e3c2" />
  <rect y="0" x="102" width="1" height="35" fill="#c8e3c2" />
  <rect y="0" x="112" width="1" height="35" fill="#c8e3c2" />
  <rect y="0" x="125" width="1" height="35" fill="#c8e3c2" />
  <rect y="0" x="162" width="1" height="35" fill="#c8e3c2" />
  <rect y="0" x="225" width="1" height="35" fill="#c8e3c2" />
  <rect y="0" x="348" width="1" height="35" fill="#c8e3c2" />
  <rect y="0" x="354" width="1" height="35" fill="#c8e3c2" />
  <rect y="0" x="359" width="1" height="35" fill="#c8e3c2" />
  <rect y="0" x="360" width="1" height="35" fill="#c8e3c2" />
  <rect y="0" x="363" width="1" height="35" fill="#c8e3c2" />
  <rect y="0" x="375" width="1" height="35" fill="#c8e3c2" />
  <rect y="0" x="378" width="1" height="35" fill="#c8e3c2" />
  <rect y="0" x="388" width="1" height="35" fill="#c8e3c2" />
  <rect y="0" x="397" width="1" height="35" fill="#c8e3c2" />
  <rect y="0" x="398" width="1" height="35" fill="#c8e3c2" />
  <rect y="0" x="399" width="1" height="35" fill="#c8e3c2" />
  <rect y="0" x="402" width="1" height="35" fill="#c8e3c2" />
  <rect y="0" x="403" width="1" height="35" fill="#c8e3c2" />
  <rect y="0" x="404" width="1" height="35" fill="#c8e3c2" />
  <rect y="0" x="405" width="1" height="35" fill="#c8e3c2" />
  <rect y="0" x="417" width="1" height="35" fill="#c8e3c2" />
  <rect y="0" x="422" width="1" height="35" fill="#c8e3c2" />
  <rect y="0" x="423" width="1" height="35" fill="#c8e3c2" />
  <rect y="0" x="425" width="1" height="35" fill="#c8e3c2" />
  <rect y="0" x="428" width="1" height="35" fill="#c8e3c2" />
  <rect y="0" x="431" width="1" height="35" fill="#c8e3c2" />
  <rect y="0" x="432" width="1" height="35" fill="#c8e3c2" />
  <rect y="0" x="482" width="1" height="35" fill="#c8e3c2" />
  <rect y="0" x="485" width="1" height="35" fill="#c8e3c2" />
  <rect y="0" x="509" width="1" height="35" fill="#c8e3c2" />
</svg>
