<svg viewBox="0 0 465 35" shape-rendering="crispEdges" xmlns="http://www.w3.org/2000/svg">
  <rect y="0" x="45" width="408" height="35" fill="#a3bff4" />
  <rect y="0" x="45" width="1" height="35" fill="#c8e3c2" />
  <rect y="0" x="55" width="1" height="35" fill="#c8e3c2" />
  <rect y="0" x="68" width="1" height="35" fill="#c8e3c2" />
  <rect y="0" x="105" width="1" height="35" fill="#c8e3c2" />
  <rect y="0" x="168" width="1" height="35" fill="#c8e3c2" />
  <rect y="0" x="291" width="1" height="35" fill="#c8e3c2" />
  <rect y="0" x="297" width="1" height="35" fill="#c8e3c2" />
  <rect y="0" x="302" width="1" height="35" fill="#c8e3c2" />
  <rect y="0" x="303" width="1" height="35" fill="#c8e3c2" />
  <rect y="0" x="306" width="1" height="35" fill="#c8e3c2" />
  <rect y="0" x="318" width="1" height="35" fill="#c8e3c2" />
  <rect y="0" x="321" width="1" height="35" fill="#c8e3c2" />
  <rect y="0" x="331" width="1" height="35" fill="#c8e3c2" />
  <rect y="0" x="340" width="1" height="35" fill="#c8e3c2" />
  <rect y="0" x="341" width="1" height="35" fill="#c8e3c2" />
  <rect y="0" x="342" width="1" height="35" fill="#c8e3c2" />
  <rect y="0" x="345" width="1" height="35" fill="#c8e3c2" />
  <rect y="0" x="346" width="1" height="35" fill="#c8e3c2" />
  <rect y="0" x="347" width="1" height="35" fill="#c8e3c2" />
  <rect y="0" x="348" width="1" height="35" fill="#c8e3c2" />
  <rect y="0" x="360" width="1" height="35" fill="#c8e3c2" />
  <rect y="0" x="365" width="1" height="35" fill="#c8e3c2" />
  <rect y="0" x="366" width="1" height="35" fill="#c8e3c2" />
  <rect y="0" x="368" width="1" height="35" fill="#c8e3c2" />
  <rect y="0" x="371" width="1" height="35" fill="#c8e3c2" />
  <rect y="0" x="374" width="1" height="35" fill="#c8e3c2" />
  <rect y="0" x="375" width="1" height="35" fill="#c8e3c2" />
  <rect y="0" x="425" width="1" height="35" fill="#c8e3c2" />
  <rect y="0" x="428" width="1" height="35" fill="#c8e3c2" />
  <rect y="0" x="452" width="1" height="35" fill="#c8e3c2" />
</svg>
