<svg viewBox="0 0 465 35" shape-rendering="crispEdges" xmlns="http://www.w3.org/2000/svg">
  <rect y="0" x="20" width="441" height="35" fill="#a3bff4" />
  <rect y="0" x="20" width="1" height="35" fill="#c8e3c2" />
  <rect y="0" x="47" width="1" height="35" fill="#c8e3c2" />
  <rect y="0" x="69" width="1" height="35" fill="#c8e3c2" />
  <rect y="0" x="71" width="1" height="35" fill="#c8e3c2" />
  <rect y="0" x="98" width="1" height="35" fill="#c8e3c2" />
  <rect y="0" x="105" width="1" height="35" fill="#c8e3c2" />
  <rect y="0" x="108" width="1" height="35" fill="#c8e3c2" />
  <rect y="0" x="109" width="1" height="35" fill="#c8e3c2" />
  <rect y="0" x="115" width="1" height="35" fill="#c8e3c2" />
  <rect y="0" x="117" width="1" height="35" fill="#c8e3c2" />
  <rect y="0" x="124" width="1" height="35" fill="#c8e3c2" />
  <rect y="0" x="125" width="1" height="35" fill="#c8e3c2" />
  <rect y="0" x="126" width="1" height="35" fill="#c8e3c2" />
  <rect y="0" x="132" width="1" height="35" fill="#c8e3c2" />
  <rect y="0" x="135" width="1" height="35" fill="#c8e3c2" />
  <rect y="0" x="136" width="1" height="35" fill="#c8e3c2" />
  <rect y="0" x="142" width="1" height="35" fill="#c8e3c2" />
  <rect y="0" x="143" width="1" height="35" fill="#c8e3c2" />
  <rect y="0" x="145" width="1" height="35" fill="#c8e3c2" />
  <rect y="0" x="149" width="1" height="35" fill="#c8e3c2" />
  <rect y="0" x="153" width="1" height="35" fill="#c8e3c2" />
  <rect y="0" x="159" width="1" height="35" fill="#c8e3c2" />
  <rect y="0" x="160" width="1" height="35" fill="#c8e3c2" />
  <rect y="0" x="161" width="1" height="35" fill="#c8e3c2" />
  <rect y="0" x="162" width="1" height="35" fill="#c8e3c2" />
  <rect y="0" x="163" width="1" height="35" fill="#c8e3c2" />
  <rect y="0" x="165" width="1" height="35" fill="#c8e3c2" />
  <rect y="0" x="166" width="1" height="35" fill="#c8e3c2" />
  <rect y="0" x="169" width="1" height="35" fill="#c8e3c2" />
  <rect y="0" x="171" width="1" height="35" fill="#c8e3c2" />
  <rect y="0" x="172" width="1" height="35" fill="#c8e3c2" />
  <rect y="0" x="174" width="1" height="35" fill="#c8e3c2" />
  <rect y="0" x="176" width="1" height="35" fill="#c8e3c2" />
  <rect y="0" x="183" width="1" height="35" fill="#c8e3c2" />
  <rect y="0" x="184" width="1" height="35" fill="#c8e3c2" />
  <rect y="0" x="188" width="1" height="35" fill="#c8e3c2" />
  <rect y="0" x="195" width="1" height="35" fill="#c8e3c2" />
  <rect y="0" x="200" width="1" height="35" fill="#c8e3c2" />
  <rect y="0" x="201" width="1" height="35" fill="#c8e3c2" />
  <rect y="0" x="202" width="1" height="35" fill="#c8e3c2" />
  <rect y="0" x="206" width="1" height="35" fill="#c8e3c2" />
  <rect y="0" x="207" width="1" height="35" fill="#c8e3c2" />
  <rect y="0" x="216" width="1" height="35" fill="#c8e3c2" />
  <rect y="0" x="222" width="1" height="35" fill="#c8e3c2" />
  <rect y="0" x="224" width="1" height="35" fill="#c8e3c2" />
  <rect y="0" x="225" width="1" height="35" fill="#c8e3c2" />
  <rect y="0" x="226" width="1" height="35" fill="#c8e3c2" />
  <rect y="0" x="228" width="1" height="35" fill="#c8e3c2" />
  <rect y="0" x="229" width="1" height="35" fill="#c8e3c2" />
  <rect y="0" x="230" width="1" height="35" fill="#c8e3c2" />
  <rect y="0" x="231" width="1" height="35" fill="#c8e3c2" />
  <rect y="0" x="232" width="1" height="35" fill="#c8e3c2" />
  <rect y="0" x="234" width="1" height="35" fill="#c8e3c2" />
  <rect y="0" x="235" width="1" height="35" fill="#c8e3c2" />
  <rect y="0" x="237" width="1" height="35" fill="#c8e3c2" />
  <rect y="0" x="239" width="1" height="35" fill="#c8e3c2" />
  <rect y="0" x="242" width="1" height="35" fill="#c8e3c2" />
  <rect y="0" x="246" width="1" height="35" fill="#c8e3c2" />
  <rect y="0" x="251" width="1" height="35" fill="#c8e3c2" />
  <rect y="0" x="252" width="1" height="35" fill="#c8e3c2" />
  <rect y="0" x="253" width="1" height="35" fill="#c8e3c2" />
  <rect y="0" x="256" width="1" height="35" fill="#c8e3c2" />
  <rect y="0" x="257" width="1" height="35" fill="#c8e3c2" />
  <rect y="0" x="260" width="1" height="35" fill="#c8e3c2" />
  <rect y="0" x="261" width="1" height="35" fill="#c8e3c2" />
  <rect y="0" x="262" width="1" height="35" fill="#c8e3c2" />
  <rect y="0" x="263" width="1" height="35" fill="#c8e3c2" />
  <rect y="0" x="264" width="1" height="35" fill="#c8e3c2" />
  <rect y="0" x="265" width="1" height="35" fill="#c8e3c2" />
  <rect y="0" x="266" width="1" height="35" fill="#c8e3c2" />
  <rect y="0" x="267" width="1" height="35" fill="#c8e3c2" />
  <rect y="0" x="268" width="1" height="35" fill="#c8e3c2" />
  <rect y="0" x="269" width="1" height="35" fill="#c8e3c2" />
  <rect y="0" x="270" width="1" height="35" fill="#c8e3c2" />
  <rect y="0" x="273" width="1" height="35" fill="#c8e3c2" />
  <rect y="0" x="274" width="1" height="35" fill="#c8e3c2" />
  <rect y="0" x="275" width="1" height="35" fill="#c8e3c2" />
  <rect y="0" x="276" width="1" height="35" fill="#c8e3c2" />
  <rect y="0" x="277" width="1" height="35" fill="#c8e3c2" />
  <rect y="0" x="278" width="1" height="35" fill="#c8e3c2" />
  <rect y="0" x="279" width="1" height="35" fill="#c8e3c2" />
  <rect y="0" x="280" width="1" height="35" fill="#c8e3c2" />
  <rect y="0" x="282" width="1" height="35" fill="#c8e3c2" />
  <rect y="0" x="284" width="1" height="35" fill="#c8e3c2" />
  <rect y="0" x="285" width="1" height="35" fill="#c8e3c2" />
  <rect y="0" x="286" width="1" height="35" fill="#c8e3c2" />
  <rect y="0" x="287" width="1" height="35" fill="#c8e3c2" />
  <rect y="0" x="288" width="1" height="35" fill="#c8e3c2" />
  <rect y="0" x="289" width="1" height="35" fill="#c8e3c2" />
  <rect y="0" x="290" width="1" height="35" fill="#c8e3c2" />
  <rect y="0" x="291" width="1" height="35" fill="#c8e3c2" />
  <rect y="0" x="292" width="1" height="35" fill="#c8e3c2" />
  <rect y="0" x="293" width="1" height="35" fill="#c8e3c2" />
  <rect y="0" x="294" width="1" height="35" fill="#c8e3c2" />
  <rect y="0" x="295" width="1" height="35" fill="#c8e3c2" />
  <rect y="0" x="297" width="1" height="35" fill="#c8e3c2" />
  <rect y="0" x="298" width="1" height="35" fill="#c8e3c2" />
  <rect y="0" x="299" width="1" height="35" fill="#c8e3c2" />
  <rect y="0" x="300" width="1" height="35" fill="#c8e3c2" />
  <rect y="0" x="301" width="1" height="35" fill="#c8e3c2" />
  <rect y="0" x="302" width="1" height="35" fill="#c8e3c2" />
  <rect y="0" x="303" width="1" height="35" fill="#c8e3c2" />
  <rect y="0" x="304" width="1" height="35" fill="#c8e3c2" />
  <rect y="0" x="305" width="1" height="35" fill="#c8e3c2" />
  <rect y="0" x="306" width="1" height="35" fill="#c8e3c2" />
  <rect y="0" x="307" width="1" height="35" fill="#c8e3c2" />
  <rect y="0" x="308" width="1" height="35" fill="#c8e3c2" />
  <rect y="0" x="309" width="1" height="35" fill="#c8e3c2" />
  <rect y="0" x="310" width="1" height="35" fill="#c8e3c2" />
  <rect y="0" x="311" width="1" height="35" fill="#c8e3c2" />
  <rect y="0" x="312" width="1" height="35" fill="#c8e3c2" />
  <rect y="0" x="313" width="1" height="35" fill="#c8e3c2" />
  <rect y="0" x="314" width="1" height="35" fill="#c8e3c2" />
  <rect y="0" x="315" width="1" height="35" fill="#c8e3c2" />
  <rect y="0" x="316" width="1" height="35" fill="#c8e3c2" />
  <rect y="0" x="317" width="1" height="35" fill="#c8e3c2" />
  <rect y="0" x="318" width="1" height="35" fill="#c8e3c2" />
  <rect y="0" x="319" width="1" height="35" fill="#c8e3c2" />
  <rect y="0" x="320" width="1" height="35" fill="#c8e3c2" />
  <rect y="0" x="321" width="1" height="35" fill="#c8e3c2" />
  <rect y="0" x="322" width="1" height="35" fill="#c8e3c2" />
  <rect y="0" x="323" width="1" height="35" fill="#c8e3c2" />
  <rect y="0" x="324" width="1" height="35" fill="#c8e3c2" />
  <rect y="0" x="325" width="1" height="35" fill="#c8e3c2" />
  <rect y="0" x="326" width="1" height="35" fill="#c8e3c2" />
  <rect y="0" x="327" width="1" height="35" fill="#c8e3c2" />
  <rect y="0" x="328" width="1" height="35" fill="#c8e3c2" />
  <rect y="0" x="329" width="1" height="35" fill="#c8e3c2" />
  <rect y="0" x="330" width="1" height="35" fill="#c8e3c2" />
  <rect y="0" x="331" width="1" height="35" fill="#c8e3c2" />
  <rect y="0" x="332" width="1" height="35" fill="#c8e3c2" />
  <rect y="0" x="333" width="1" height="35" fill="#c8e3c2" />
  <rect y="0" x="334" width="1" height="35" fill="#c8e3c2" />
  <rect y="0" x="335" width="1" height="35" fill="#c8e3c2" />
  <rect y="0" x="336" width="1" height="35" fill="#c8e3c2" />
  <rect y="0" x="337" width="1" height="35" fill="#c8e3c2" />
  <rect y="0" x="338" width="1" height="35" fill="#c8e3c2" />
  <rect y="0" x="339" width="1" height="35" fill="#c8e3c2" />
  <rect y="0" x="340" width="1" height="35" fill="#c8e3c2" />
  <rect y="0" x="341" width="1" height="35" fill="#c8e3c2" />
  <rect y="0" x="342" width="1" height="35" fill="#c8e3c2" />
  <rect y="0" x="343" width="1" height="35" fill="#c8e3c2" />
  <rect y="0" x="344" width="1" height="35" fill="#c8e3c2" />
  <rect y="0" x="345" width="1" height="35" fill="#c8e3c2" />
  <rect y="0" x="346" width="1" height="35" fill="#c8e3c2" />
  <rect y="0" x="347" width="1" height="35" fill="#c8e3c2" />
  <rect y="0" x="348" width="1" height="35" fill="#c8e3c2" />
  <rect y="0" x="349" width="1" height="35" fill="#c8e3c2" />
  <rect y="0" x="350" width="1" height="35" fill="#c8e3c2" />
  <rect y="0" x="351" width="1" height="35" fill="#c8e3c2" />
  <rect y="0" x="352" width="1" height="35" fill="#c8e3c2" />
  <rect y="0" x="353" width="1" height="35" fill="#c8e3c2" />
  <rect y="0" x="354" width="1" height="35" fill="#c8e3c2" />
  <rect y="0" x="355" width="1" height="35" fill="#c8e3c2" />
  <rect y="0" x="356" width="1" height="35" fill="#c8e3c2" />
  <rect y="0" x="359" width="1" height="35" fill="#c8e3c2" />
  <rect y="0" x="360" width="1" height="35" fill="#c8e3c2" />
  <rect y="0" x="361" width="1" height="35" fill="#c8e3c2" />
  <rect y="0" x="362" width="1" height="35" fill="#c8e3c2" />
  <rect y="0" x="363" width="1" height="35" fill="#c8e3c2" />
  <rect y="0" x="364" width="1" height="35" fill="#c8e3c2" />
  <rect y="0" x="365" width="1" height="35" fill="#c8e3c2" />
  <rect y="0" x="366" width="1" height="35" fill="#c8e3c2" />
  <rect y="0" x="367" width="1" height="35" fill="#c8e3c2" />
  <rect y="0" x="368" width="1" height="35" fill="#c8e3c2" />
  <rect y="0" x="369" width="1" height="35" fill="#c8e3c2" />
  <rect y="0" x="370" width="1" height="35" fill="#c8e3c2" />
  <rect y="0" x="371" width="1" height="35" fill="#c8e3c2" />
  <rect y="0" x="372" width="1" height="35" fill="#c8e3c2" />
  <rect y="0" x="373" width="1" height="35" fill="#c8e3c2" />
  <rect y="0" x="374" width="1" height="35" fill="#c8e3c2" />
  <rect y="0" x="375" width="1" height="35" fill="#c8e3c2" />
  <rect y="0" x="376" width="1" height="35" fill="#c8e3c2" />
  <rect y="0" x="377" width="1" height="35" fill="#c8e3c2" />
  <rect y="0" x="378" width="1" height="35" fill="#c8e3c2" />
  <rect y="0" x="379" width="1" height="35" fill="#c8e3c2" />
  <rect y="0" x="387" width="1" height="35" fill="#c8e3c2" />
  <rect y="0" x="388" width="1" height="35" fill="#c8e3c2" />
  <rect y="0" x="391" width="1" height="35" fill="#c8e3c2" />
  <rect y="0" x="392" width="1" height="35" fill="#c8e3c2" />
  <rect y="0" x="393" width="1" height="35" fill="#c8e3c2" />
  <rect y="0" x="394" width="1" height="35" fill="#c8e3c2" />
  <rect y="0" x="395" width="1" height="35" fill="#c8e3c2" />
  <rect y="0" x="397" width="1" height="35" fill="#c8e3c2" />
  <rect y="0" x="398" width="1" height="35" fill="#c8e3c2" />
  <rect y="0" x="399" width="1" height="35" fill="#c8e3c2" />
  <rect y="0" x="400" width="1" height="35" fill="#c8e3c2" />
  <rect y="0" x="401" width="1" height="35" fill="#c8e3c2" />
  <rect y="0" x="402" width="1" height="35" fill="#c8e3c2" />
  <rect y="0" x="403" width="1" height="35" fill="#c8e3c2" />
  <rect y="0" x="404" width="1" height="35" fill="#c8e3c2" />
  <rect y="0" x="409" width="1" height="35" fill="#c8e3c2" />
  <rect y="0" x="419" width="1" height="35" fill="#c8e3c2" />
  <rect y="0" x="420" width="1" height="35" fill="#c8e3c2" />
  <rect y="0" x="421" width="1" height="35" fill="#c8e3c2" />
  <rect y="0" x="422" width="1" height="35" fill="#c8e3c2" />
  <rect y="0" x="425" width="1" height="35" fill="#c8e3c2" />
  <rect y="0" x="426" width="1" height="35" fill="#c8e3c2" />
  <rect y="0" x="427" width="1" height="35" fill="#c8e3c2" />
  <rect y="0" x="428" width="1" height="35" fill="#c8e3c2" />
  <rect y="0" x="429" width="1" height="35" fill="#c8e3c2" />
  <rect y="0" x="430" width="1" height="35" fill="#c8e3c2" />
  <rect y="0" x="433" width="1" height="35" fill="#c8e3c2" />
  <rect y="0" x="434" width="1" height="35" fill="#c8e3c2" />
  <rect y="0" x="435" width="1" height="35" fill="#c8e3c2" />
  <rect y="0" x="436" width="1" height="35" fill="#c8e3c2" />
  <rect y="0" x="437" width="1" height="35" fill="#c8e3c2" />
  <rect y="0" x="438" width="1" height="35" fill="#c8e3c2" />
  <rect y="0" x="439" width="1" height="35" fill="#c8e3c2" />
  <rect y="0" x="440" width="1" height="35" fill="#c8e3c2" />
  <rect y="0" x="441" width="1" height="35" fill="#c8e3c2" />
  <rect y="0" x="442" width="1" height="35" fill="#c8e3c2" />
  <rect y="0" x="443" width="1" height="35" fill="#c8e3c2" />
  <rect y="0" x="444" width="1" height="35" fill="#c8e3c2" />
  <rect y="0" x="445" width="1" height="35" fill="#c8e3c2" />
  <rect y="0" x="446" width="1" height="35" fill="#c8e3c2" />
  <rect y="0" x="447" width="1" height="35" fill="#c8e3c2" />
  <rect y="0" x="448" width="1" height="35" fill="#c8e3c2" />
  <rect y="0" x="449" width="1" height="35" fill="#c8e3c2" />
  <rect y="0" x="450" width="1" height="35" fill="#c8e3c2" />
  <rect y="0" x="451" width="1" height="35" fill="#c8e3c2" />
  <rect y="0" x="452" width="1" height="35" fill="#c8e3c2" />
  <rect y="0" x="453" width="1" height="35" fill="#c8e3c2" />
  <rect y="0" x="454" width="1" height="35" fill="#c8e3c2" />
  <rect y="0" x="455" width="1" height="35" fill="#c8e3c2" />
  <rect y="0" x="456" width="1" height="35" fill="#c8e3c2" />
  <rect y="0" x="460" width="1" height="35" fill="#c8e3c2" />
</svg>
