<svg viewBox="0 0 353 35" shape-rendering="crispEdges" xmlns="http://www.w3.org/2000/svg">
  <rect y="0" x="40" width="292" height="35" fill="#a3bff4" />
  <rect y="0" x="40" width="1" height="35" fill="#c8e3c2" />
  <rect y="0" x="54" width="1" height="35" fill="#c8e3c2" />
  <rect y="0" x="57" width="1" height="35" fill="#c8e3c2" />
  <rect y="0" x="65" width="1" height="35" fill="#c8e3c2" />
  <rect y="0" x="75" width="1" height="35" fill="#c8e3c2" />
  <rect y="0" x="79" width="1" height="35" fill="#c8e3c2" />
  <rect y="0" x="98" width="1" height="35" fill="#c8e3c2" />
  <rect y="0" x="154" width="1" height="35" fill="#c8e3c2" />
  <rect y="0" x="157" width="1" height="35" fill="#c8e3c2" />
  <rect y="0" x="161" width="1" height="35" fill="#c8e3c2" />
  <rect y="0" x="165" width="1" height="35" fill="#c8e3c2" />
  <rect y="0" x="170" width="1" height="35" fill="#c8e3c2" />
  <rect y="0" x="179" width="1" height="35" fill="#c8e3c2" />
  <rect y="0" x="181" width="1" height="35" fill="#c8e3c2" />
  <rect y="0" x="183" width="1" height="35" fill="#c8e3c2" />
  <rect y="0" x="192" width="1" height="35" fill="#c8e3c2" />
  <rect y="0" x="193" width="1" height="35" fill="#c8e3c2" />
  <rect y="0" x="194" width="1" height="35" fill="#c8e3c2" />
  <rect y="0" x="196" width="1" height="35" fill="#c8e3c2" />
  <rect y="0" x="197" width="1" height="35" fill="#c8e3c2" />
  <rect y="0" x="200" width="1" height="35" fill="#c8e3c2" />
  <rect y="0" x="204" width="1" height="35" fill="#c8e3c2" />
  <rect y="0" x="205" width="1" height="35" fill="#c8e3c2" />
  <rect y="0" x="206" width="1" height="35" fill="#c8e3c2" />
  <rect y="0" x="209" width="1" height="35" fill="#c8e3c2" />
  <rect y="0" x="210" width="1" height="35" fill="#c8e3c2" />
  <rect y="0" x="211" width="1" height="35" fill="#c8e3c2" />
  <rect y="0" x="213" width="1" height="35" fill="#c8e3c2" />
  <rect y="0" x="214" width="1" height="35" fill="#c8e3c2" />
  <rect y="0" x="215" width="1" height="35" fill="#c8e3c2" />
  <rect y="0" x="217" width="1" height="35" fill="#c8e3c2" />
  <rect y="0" x="218" width="1" height="35" fill="#c8e3c2" />
  <rect y="0" x="220" width="1" height="35" fill="#c8e3c2" />
  <rect y="0" x="221" width="1" height="35" fill="#c8e3c2" />
  <rect y="0" x="225" width="1" height="35" fill="#c8e3c2" />
  <rect y="0" x="227" width="1" height="35" fill="#c8e3c2" />
  <rect y="0" x="228" width="1" height="35" fill="#c8e3c2" />
  <rect y="0" x="229" width="1" height="35" fill="#c8e3c2" />
  <rect y="0" x="230" width="1" height="35" fill="#c8e3c2" />
  <rect y="0" x="231" width="1" height="35" fill="#c8e3c2" />
  <rect y="0" x="232" width="1" height="35" fill="#c8e3c2" />
  <rect y="0" x="234" width="1" height="35" fill="#c8e3c2" />
  <rect y="0" x="235" width="1" height="35" fill="#c8e3c2" />
  <rect y="0" x="236" width="1" height="35" fill="#c8e3c2" />
  <rect y="0" x="237" width="1" height="35" fill="#c8e3c2" />
  <rect y="0" x="238" width="1" height="35" fill="#c8e3c2" />
  <rect y="0" x="239" width="1" height="35" fill="#c8e3c2" />
  <rect y="0" x="241" width="1" height="35" fill="#c8e3c2" />
  <rect y="0" x="242" width="1" height="35" fill="#c8e3c2" />
  <rect y="0" x="243" width="1" height="35" fill="#c8e3c2" />
  <rect y="0" x="244" width="1" height="35" fill="#c8e3c2" />
  <rect y="0" x="245" width="1" height="35" fill="#c8e3c2" />
  <rect y="0" x="251" width="1" height="35" fill="#c8e3c2" />
  <rect y="0" x="255" width="1" height="35" fill="#c8e3c2" />
  <rect y="0" x="256" width="1" height="35" fill="#c8e3c2" />
  <rect y="0" x="263" width="1" height="35" fill="#c8e3c2" />
  <rect y="0" x="264" width="1" height="35" fill="#c8e3c2" />
  <rect y="0" x="267" width="1" height="35" fill="#c8e3c2" />
  <rect y="0" x="310" width="1" height="35" fill="#c8e3c2" />
  <rect y="0" x="316" width="1" height="35" fill="#c8e3c2" />
  <rect y="0" x="319" width="1" height="35" fill="#c8e3c2" />
  <rect y="0" x="324" width="1" height="35" fill="#c8e3c2" />
  <rect y="0" x="330" width="1" height="35" fill="#c8e3c2" />
  <rect y="0" x="331" width="1" height="35" fill="#c8e3c2" />
</svg>
