<svg viewBox="0 0 364 35" shape-rendering="crispEdges" xmlns="http://www.w3.org/2000/svg">
  <rect y="0" x="0" width="345" height="35" fill="#a3bff4" />
  <rect y="0" x="0" width="1" height="35" fill="#c8e3c2" />
  <rect y="0" x="7" width="1" height="35" fill="#c8e3c2" />
  <rect y="0" x="11" width="1" height="35" fill="#c8e3c2" />
  <rect y="0" x="44" width="1" height="35" fill="#c8e3c2" />
  <rect y="0" x="47" width="1" height="35" fill="#c8e3c2" />
  <rect y="0" x="51" width="1" height="35" fill="#c8e3c2" />
  <rect y="0" x="55" width="1" height="35" fill="#c8e3c2" />
  <rect y="0" x="61" width="1" height="35" fill="#c8e3c2" />
  <rect y="0" x="62" width="1" height="35" fill="#c8e3c2" />
  <rect y="0" x="63" width="1" height="35" fill="#c8e3c2" />
  <rect y="0" x="65" width="1" height="35" fill="#c8e3c2" />
  <rect y="0" x="68" width="1" height="35" fill="#c8e3c2" />
  <rect y="0" x="73" width="1" height="35" fill="#c8e3c2" />
  <rect y="0" x="76" width="1" height="35" fill="#c8e3c2" />
  <rect y="0" x="85" width="1" height="35" fill="#c8e3c2" />
  <rect y="0" x="86" width="1" height="35" fill="#c8e3c2" />
  <rect y="0" x="90" width="1" height="35" fill="#c8e3c2" />
  <rect y="0" x="97" width="1" height="35" fill="#c8e3c2" />
  <rect y="0" x="102" width="1" height="35" fill="#c8e3c2" />
  <rect y="0" x="103" width="1" height="35" fill="#c8e3c2" />
  <rect y="0" x="104" width="1" height="35" fill="#c8e3c2" />
  <rect y="0" x="108" width="1" height="35" fill="#c8e3c2" />
  <rect y="0" x="109" width="1" height="35" fill="#c8e3c2" />
  <rect y="0" x="118" width="1" height="35" fill="#c8e3c2" />
  <rect y="0" x="124" width="1" height="35" fill="#c8e3c2" />
  <rect y="0" x="127" width="1" height="35" fill="#c8e3c2" />
  <rect y="0" x="128" width="1" height="35" fill="#c8e3c2" />
  <rect y="0" x="131" width="1" height="35" fill="#c8e3c2" />
  <rect y="0" x="132" width="1" height="35" fill="#c8e3c2" />
  <rect y="0" x="133" width="1" height="35" fill="#c8e3c2" />
  <rect y="0" x="134" width="1" height="35" fill="#c8e3c2" />
  <rect y="0" x="137" width="1" height="35" fill="#c8e3c2" />
  <rect y="0" x="139" width="1" height="35" fill="#c8e3c2" />
  <rect y="0" x="141" width="1" height="35" fill="#c8e3c2" />
  <rect y="0" x="147" width="1" height="35" fill="#c8e3c2" />
  <rect y="0" x="153" width="1" height="35" fill="#c8e3c2" />
  <rect y="0" x="154" width="1" height="35" fill="#c8e3c2" />
  <rect y="0" x="158" width="1" height="35" fill="#c8e3c2" />
  <rect y="0" x="162" width="1" height="35" fill="#c8e3c2" />
  <rect y="0" x="163" width="1" height="35" fill="#c8e3c2" />
  <rect y="0" x="164" width="1" height="35" fill="#c8e3c2" />
  <rect y="0" x="165" width="1" height="35" fill="#c8e3c2" />
  <rect y="0" x="166" width="1" height="35" fill="#c8e3c2" />
  <rect y="0" x="167" width="1" height="35" fill="#c8e3c2" />
  <rect y="0" x="168" width="1" height="35" fill="#c8e3c2" />
  <rect y="0" x="170" width="1" height="35" fill="#c8e3c2" />
  <rect y="0" x="171" width="1" height="35" fill="#c8e3c2" />
  <rect y="0" x="172" width="1" height="35" fill="#c8e3c2" />
  <rect y="0" x="175" width="1" height="35" fill="#c8e3c2" />
  <rect y="0" x="176" width="1" height="35" fill="#c8e3c2" />
  <rect y="0" x="177" width="1" height="35" fill="#c8e3c2" />
  <rect y="0" x="178" width="1" height="35" fill="#c8e3c2" />
  <rect y="0" x="180" width="1" height="35" fill="#c8e3c2" />
  <rect y="0" x="181" width="1" height="35" fill="#c8e3c2" />
  <rect y="0" x="182" width="1" height="35" fill="#c8e3c2" />
  <rect y="0" x="184" width="1" height="35" fill="#c8e3c2" />
  <rect y="0" x="186" width="1" height="35" fill="#c8e3c2" />
  <rect y="0" x="188" width="1" height="35" fill="#c8e3c2" />
  <rect y="0" x="189" width="1" height="35" fill="#c8e3c2" />
  <rect y="0" x="190" width="1" height="35" fill="#c8e3c2" />
  <rect y="0" x="192" width="1" height="35" fill="#c8e3c2" />
  <rect y="0" x="194" width="1" height="35" fill="#c8e3c2" />
  <rect y="0" x="195" width="1" height="35" fill="#c8e3c2" />
  <rect y="0" x="196" width="1" height="35" fill="#c8e3c2" />
  <rect y="0" x="197" width="1" height="35" fill="#c8e3c2" />
  <rect y="0" x="199" width="1" height="35" fill="#c8e3c2" />
  <rect y="0" x="200" width="1" height="35" fill="#c8e3c2" />
  <rect y="0" x="202" width="1" height="35" fill="#c8e3c2" />
  <rect y="0" x="203" width="1" height="35" fill="#c8e3c2" />
  <rect y="0" x="204" width="1" height="35" fill="#c8e3c2" />
  <rect y="0" x="205" width="1" height="35" fill="#c8e3c2" />
  <rect y="0" x="206" width="1" height="35" fill="#c8e3c2" />
  <rect y="0" x="207" width="1" height="35" fill="#c8e3c2" />
  <rect y="0" x="208" width="1" height="35" fill="#c8e3c2" />
  <rect y="0" x="210" width="1" height="35" fill="#c8e3c2" />
  <rect y="0" x="211" width="1" height="35" fill="#c8e3c2" />
  <rect y="0" x="212" width="1" height="35" fill="#c8e3c2" />
  <rect y="0" x="213" width="1" height="35" fill="#c8e3c2" />
  <rect y="0" x="214" width="1" height="35" fill="#c8e3c2" />
  <rect y="0" x="215" width="1" height="35" fill="#c8e3c2" />
  <rect y="0" x="216" width="1" height="35" fill="#c8e3c2" />
  <rect y="0" x="217" width="1" height="35" fill="#c8e3c2" />
  <rect y="0" x="218" width="1" height="35" fill="#c8e3c2" />
  <rect y="0" x="219" width="1" height="35" fill="#c8e3c2" />
  <rect y="0" x="220" width="1" height="35" fill="#c8e3c2" />
  <rect y="0" x="221" width="1" height="35" fill="#c8e3c2" />
  <rect y="0" x="222" width="1" height="35" fill="#c8e3c2" />
  <rect y="0" x="223" width="1" height="35" fill="#c8e3c2" />
  <rect y="0" x="224" width="1" height="35" fill="#c8e3c2" />
  <rect y="0" x="225" width="1" height="35" fill="#c8e3c2" />
  <rect y="0" x="226" width="1" height="35" fill="#c8e3c2" />
  <rect y="0" x="227" width="1" height="35" fill="#c8e3c2" />
  <rect y="0" x="228" width="1" height="35" fill="#c8e3c2" />
  <rect y="0" x="229" width="1" height="35" fill="#c8e3c2" />
  <rect y="0" x="230" width="1" height="35" fill="#c8e3c2" />
  <rect y="0" x="231" width="1" height="35" fill="#c8e3c2" />
  <rect y="0" x="232" width="1" height="35" fill="#c8e3c2" />
  <rect y="0" x="233" width="1" height="35" fill="#c8e3c2" />
  <rect y="0" x="234" width="1" height="35" fill="#c8e3c2" />
  <rect y="0" x="235" width="1" height="35" fill="#c8e3c2" />
  <rect y="0" x="236" width="1" height="35" fill="#c8e3c2" />
  <rect y="0" x="237" width="1" height="35" fill="#c8e3c2" />
  <rect y="0" x="238" width="1" height="35" fill="#c8e3c2" />
  <rect y="0" x="239" width="1" height="35" fill="#c8e3c2" />
  <rect y="0" x="240" width="1" height="35" fill="#c8e3c2" />
  <rect y="0" x="241" width="1" height="35" fill="#c8e3c2" />
  <rect y="0" x="242" width="1" height="35" fill="#c8e3c2" />
  <rect y="0" x="243" width="1" height="35" fill="#c8e3c2" />
  <rect y="0" x="244" width="1" height="35" fill="#c8e3c2" />
  <rect y="0" x="245" width="1" height="35" fill="#c8e3c2" />
  <rect y="0" x="246" width="1" height="35" fill="#c8e3c2" />
  <rect y="0" x="247" width="1" height="35" fill="#c8e3c2" />
  <rect y="0" x="248" width="1" height="35" fill="#c8e3c2" />
  <rect y="0" x="249" width="1" height="35" fill="#c8e3c2" />
  <rect y="0" x="250" width="1" height="35" fill="#c8e3c2" />
  <rect y="0" x="251" width="1" height="35" fill="#c8e3c2" />
  <rect y="0" x="252" width="1" height="35" fill="#c8e3c2" />
  <rect y="0" x="253" width="1" height="35" fill="#c8e3c2" />
  <rect y="0" x="254" width="1" height="35" fill="#c8e3c2" />
  <rect y="0" x="255" width="1" height="35" fill="#c8e3c2" />
  <rect y="0" x="256" width="1" height="35" fill="#c8e3c2" />
  <rect y="0" x="257" width="1" height="35" fill="#c8e3c2" />
  <rect y="0" x="261" width="1" height="35" fill="#c8e3c2" />
  <rect y="0" x="262" width="1" height="35" fill="#c8e3c2" />
  <rect y="0" x="263" width="1" height="35" fill="#c8e3c2" />
  <rect y="0" x="264" width="1" height="35" fill="#c8e3c2" />
  <rect y="0" x="265" width="1" height="35" fill="#c8e3c2" />
  <rect y="0" x="266" width="1" height="35" fill="#c8e3c2" />
  <rect y="0" x="267" width="1" height="35" fill="#c8e3c2" />
  <rect y="0" x="268" width="1" height="35" fill="#c8e3c2" />
  <rect y="0" x="269" width="1" height="35" fill="#c8e3c2" />
  <rect y="0" x="271" width="1" height="35" fill="#c8e3c2" />
  <rect y="0" x="273" width="1" height="35" fill="#c8e3c2" />
  <rect y="0" x="274" width="1" height="35" fill="#c8e3c2" />
  <rect y="0" x="275" width="1" height="35" fill="#c8e3c2" />
  <rect y="0" x="276" width="1" height="35" fill="#c8e3c2" />
  <rect y="0" x="278" width="1" height="35" fill="#c8e3c2" />
  <rect y="0" x="297" width="1" height="35" fill="#c8e3c2" />
  <rect y="0" x="304" width="1" height="35" fill="#c8e3c2" />
  <rect y="0" x="311" width="1" height="35" fill="#c8e3c2" />
  <rect y="0" x="321" width="1" height="35" fill="#c8e3c2" />
  <rect y="0" x="327" width="1" height="35" fill="#c8e3c2" />
  <rect y="0" x="329" width="1" height="35" fill="#c8e3c2" />
  <rect y="0" x="330" width="1" height="35" fill="#c8e3c2" />
  <rect y="0" x="335" width="1" height="35" fill="#c8e3c2" />
  <rect y="0" x="339" width="1" height="35" fill="#c8e3c2" />
  <rect y="0" x="341" width="1" height="35" fill="#c8e3c2" />
  <rect y="0" x="342" width="1" height="35" fill="#c8e3c2" />
  <rect y="0" x="343" width="1" height="35" fill="#c8e3c2" />
  <rect y="0" x="344" width="1" height="35" fill="#c8e3c2" />
</svg>
