<svg viewBox="0 0 523 35" shape-rendering="crispEdges" xmlns="http://www.w3.org/2000/svg">
  <rect y="0" x="119" width="282" height="35" fill="#e5e5e5" />
  <rect y="0" x="119" width="1" height="35" fill="#e1904b" />
  <rect y="0" x="145" width="1" height="35" fill="#e3a14c" />
  <rect y="0" x="175" width="1" height="35" fill="#e6b54e" />
  <rect y="0" x="196" width="1" height="35" fill="#e7c34e" />
  <rect y="0" x="212" width="1" height="35" fill="#dcc450" />
  <rect y="0" x="213" width="1" height="35" fill="#dbc450" />
  <rect y="0" x="214" width="1" height="35" fill="#dac450" />
  <rect y="0" x="232" width="1" height="35" fill="#ccc551" />
  <rect y="0" x="246" width="1" height="35" fill="#c0c652" />
  <rect y="0" x="249" width="1" height="35" fill="#bec653" />
  <rect y="0" x="253" width="1" height="35" fill="#bbc653" />
  <rect y="0" x="256" width="1" height="35" fill="#b8c653" />
  <rect y="0" x="261" width="1" height="35" fill="#b4c754" />
  <rect y="0" x="270" width="1" height="35" fill="#adc754" />
  <rect y="0" x="329" width="1" height="35" fill="#7fc171" />
  <rect y="0" x="342" width="1" height="35" fill="#75bf7b" />
  <rect y="0" x="355" width="1" height="35" fill="#6bbc86" />
  <rect y="0" x="359" width="1" height="35" fill="#68bb89" />
  <rect y="0" x="365" width="1" height="35" fill="#63ba8e" />
  <rect y="0" x="375" width="1" height="35" fill="#5bb796" />
  <rect y="0" x="378" width="1" height="35" fill="#59b799" />
  <rect y="0" x="395" width="1" height="35" fill="#4cb3a7" />
  <rect y="0" x="400" width="1" height="35" fill="#4bb1aa" />
</svg>
