<svg viewBox="0 0 522 35" shape-rendering="crispEdges" xmlns="http://www.w3.org/2000/svg">
  <rect y="0" x="34" width="476" height="35" fill="#a3bff4" />
  <rect y="0" x="34" width="1" height="35" fill="#c8e3c2" />
  <rect y="0" x="79" width="1" height="35" fill="#c8e3c2" />
  <rect y="0" x="84" width="1" height="35" fill="#c8e3c2" />
  <rect y="0" x="107" width="1" height="35" fill="#c8e3c2" />
  <rect y="0" x="142" width="1" height="35" fill="#c8e3c2" />
  <rect y="0" x="151" width="1" height="35" fill="#c8e3c2" />
  <rect y="0" x="168" width="1" height="35" fill="#c8e3c2" />
  <rect y="0" x="173" width="1" height="35" fill="#c8e3c2" />
  <rect y="0" x="178" width="1" height="35" fill="#c8e3c2" />
  <rect y="0" x="179" width="1" height="35" fill="#c8e3c2" />
  <rect y="0" x="205" width="1" height="35" fill="#c8e3c2" />
  <rect y="0" x="234" width="1" height="35" fill="#c8e3c2" />
  <rect y="0" x="237" width="1" height="35" fill="#c8e3c2" />
  <rect y="0" x="248" width="1" height="35" fill="#c8e3c2" />
  <rect y="0" x="275" width="1" height="35" fill="#c8e3c2" />
  <rect y="0" x="277" width="1" height="35" fill="#c8e3c2" />
  <rect y="0" x="280" width="1" height="35" fill="#c8e3c2" />
  <rect y="0" x="291" width="1" height="35" fill="#c8e3c2" />
  <rect y="0" x="310" width="1" height="35" fill="#c8e3c2" />
  <rect y="0" x="366" width="1" height="35" fill="#c8e3c2" />
  <rect y="0" x="376" width="1" height="35" fill="#c8e3c2" />
  <rect y="0" x="382" width="1" height="35" fill="#c8e3c2" />
  <rect y="0" x="384" width="1" height="35" fill="#c8e3c2" />
  <rect y="0" x="385" width="1" height="35" fill="#c8e3c2" />
  <rect y="0" x="386" width="1" height="35" fill="#c8e3c2" />
  <rect y="0" x="388" width="1" height="35" fill="#c8e3c2" />
  <rect y="0" x="391" width="1" height="35" fill="#c8e3c2" />
  <rect y="0" x="394" width="1" height="35" fill="#c8e3c2" />
  <rect y="0" x="398" width="1" height="35" fill="#c8e3c2" />
  <rect y="0" x="400" width="1" height="35" fill="#c8e3c2" />
  <rect y="0" x="402" width="1" height="35" fill="#c8e3c2" />
  <rect y="0" x="404" width="1" height="35" fill="#c8e3c2" />
  <rect y="0" x="405" width="1" height="35" fill="#c8e3c2" />
  <rect y="0" x="407" width="1" height="35" fill="#c8e3c2" />
  <rect y="0" x="424" width="1" height="35" fill="#c8e3c2" />
  <rect y="0" x="426" width="1" height="35" fill="#c8e3c2" />
  <rect y="0" x="432" width="1" height="35" fill="#c8e3c2" />
  <rect y="0" x="435" width="1" height="35" fill="#c8e3c2" />
  <rect y="0" x="436" width="1" height="35" fill="#c8e3c2" />
  <rect y="0" x="443" width="1" height="35" fill="#c8e3c2" />
  <rect y="0" x="479" width="1" height="35" fill="#c8e3c2" />
  <rect y="0" x="491" width="1" height="35" fill="#c8e3c2" />
  <rect y="0" x="492" width="1" height="35" fill="#c8e3c2" />
  <rect y="0" x="497" width="1" height="35" fill="#c8e3c2" />
  <rect y="0" x="503" width="1" height="35" fill="#c8e3c2" />
  <rect y="0" x="509" width="1" height="35" fill="#c8e3c2" />
</svg>
