<svg viewBox="0 0 523 35" shape-rendering="crispEdges" xmlns="http://www.w3.org/2000/svg">
  <rect y="0" x="34" width="476" height="35" fill="#e5e5e5" />
  <rect y="0" x="34" width="1" height="35" fill="#cd6850" />
  <rect y="0" x="79" width="1" height="35" fill="#da7a4c" />
  <rect y="0" x="84" width="1" height="35" fill="#dc7c4c" />
  <rect y="0" x="107" width="1" height="35" fill="#e0884b" />
  <rect y="0" x="142" width="1" height="35" fill="#e39f4c" />
  <rect y="0" x="151" width="1" height="35" fill="#e4a54d" />
  <rect y="0" x="168" width="1" height="35" fill="#e5b04d" />
  <rect y="0" x="173" width="1" height="35" fill="#e6b44e" />
  <rect y="0" x="178" width="1" height="35" fill="#e6b74e" />
  <rect y="0" x="179" width="1" height="35" fill="#e6b84e" />
  <rect y="0" x="205" width="1" height="35" fill="#e1c44f" />
  <rect y="0" x="234" width="1" height="35" fill="#cac551" />
  <rect y="0" x="237" width="1" height="35" fill="#c8c652" />
  <rect y="0" x="248" width="1" height="35" fill="#bfc653" />
  <rect y="0" x="275" width="1" height="35" fill="#a9c755" />
  <rect y="0" x="277" width="1" height="35" fill="#a8c855" />
  <rect y="0" x="280" width="1" height="35" fill="#a5c855" />
  <rect y="0" x="291" width="1" height="35" fill="#9cc856" />
  <rect y="0" x="310" width="1" height="35" fill="#8dc661" />
  <rect y="0" x="366" width="1" height="35" fill="#62b98f" />
  <rect y="0" x="376" width="1" height="35" fill="#5bb797" />
  <rect y="0" x="382" width="1" height="35" fill="#56b69c" />
  <rect y="0" x="384" width="1" height="35" fill="#55b59e" />
  <rect y="0" x="385" width="1" height="35" fill="#54b59f" />
  <rect y="0" x="386" width="1" height="35" fill="#53b59f" />
  <rect y="0" x="388" width="1" height="35" fill="#51b4a1" />
  <rect y="0" x="391" width="1" height="35" fill="#4fb4a4" />
  <rect y="0" x="394" width="1" height="35" fill="#4db3a6" />
  <rect y="0" x="398" width="1" height="35" fill="#4bb2a9" />
  <rect y="0" x="400" width="1" height="35" fill="#4bb1aa" />
  <rect y="0" x="402" width="1" height="35" fill="#4bb1ac" />
  <rect y="0" x="404" width="1" height="35" fill="#4bb0ad" />
  <rect y="0" x="405" width="1" height="35" fill="#4bafad" />
  <rect y="0" x="407" width="1" height="35" fill="#4bafaf" />
  <rect y="0" x="424" width="1" height="35" fill="#4ba8b9" />
  <rect y="0" x="426" width="1" height="35" fill="#4ba7ba" />
  <rect y="0" x="432" width="1" height="35" fill="#4ca5be" />
  <rect y="0" x="435" width="1" height="35" fill="#4ca4c0" />
  <rect y="0" x="436" width="1" height="35" fill="#4ca3c0" />
  <rect y="0" x="443" width="1" height="35" fill="#4ca1c5" />
  <rect y="0" x="479" width="1" height="35" fill="#4d93db" />
  <rect y="0" x="491" width="1" height="35" fill="#4d8ee2" />
  <rect y="0" x="492" width="1" height="35" fill="#4d8de2" />
  <rect y="0" x="497" width="1" height="35" fill="#4e8ce6" />
  <rect y="0" x="503" width="1" height="35" fill="#5289e6" />
  <rect y="0" x="509" width="1" height="35" fill="#5786e6" />
</svg>
