<svg viewBox="0 0 465 35" shape-rendering="crispEdges" xmlns="http://www.w3.org/2000/svg">
  <rect y="0" x="3" width="275" height="35" fill="#a3bff4" />
  <rect y="0" x="3" width="1" height="35" fill="#c8e3c2" />
  <rect y="0" x="16" width="1" height="35" fill="#c8e3c2" />
  <rect y="0" x="18" width="1" height="35" fill="#c8e3c2" />
  <rect y="0" x="38" width="1" height="35" fill="#c8e3c2" />
  <rect y="0" x="64" width="1" height="35" fill="#c8e3c2" />
  <rect y="0" x="133" width="1" height="35" fill="#c8e3c2" />
  <rect y="0" x="137" width="1" height="35" fill="#c8e3c2" />
  <rect y="0" x="138" width="1" height="35" fill="#c8e3c2" />
  <rect y="0" x="146" width="1" height="35" fill="#c8e3c2" />
  <rect y="0" x="179" width="1" height="35" fill="#c8e3c2" />
  <rect y="0" x="185" width="1" height="35" fill="#c8e3c2" />
  <rect y="0" x="187" width="1" height="35" fill="#c8e3c2" />
  <rect y="0" x="203" width="1" height="35" fill="#c8e3c2" />
  <rect y="0" x="241" width="1" height="35" fill="#c8e3c2" />
  <rect y="0" x="243" width="1" height="35" fill="#c8e3c2" />
  <rect y="0" x="255" width="1" height="35" fill="#c8e3c2" />
  <rect y="0" x="258" width="1" height="35" fill="#c8e3c2" />
  <rect y="0" x="277" width="1" height="35" fill="#c8e3c2" />
</svg>
