<svg viewBox="0 0 523 35" shape-rendering="crispEdges" xmlns="http://www.w3.org/2000/svg">
  <rect y="0" x="60" width="376" height="35" fill="#e5e5e5" />
  <rect y="0" x="60" width="1" height="35" fill="#d4724d" />
  <rect y="0" x="73" width="1" height="35" fill="#d8784c" />
  <rect y="0" x="75" width="1" height="35" fill="#d9784c" />
  <rect y="0" x="95" width="1" height="35" fill="#df814b" />
  <rect y="0" x="121" width="1" height="35" fill="#e1914b" />
  <rect y="0" x="190" width="1" height="35" fill="#e7bf4e" />
  <rect y="0" x="194" width="1" height="35" fill="#e7c24e" />
  <rect y="0" x="195" width="1" height="35" fill="#e7c24e" />
  <rect y="0" x="203" width="1" height="35" fill="#e3c44f" />
  <rect y="0" x="236" width="1" height="35" fill="#c8c552" />
  <rect y="0" x="242" width="1" height="35" fill="#c4c652" />
  <rect y="0" x="244" width="1" height="35" fill="#c2c652" />
  <rect y="0" x="260" width="1" height="35" fill="#b5c754" />
  <rect y="0" x="298" width="1" height="35" fill="#97c857" />
  <rect y="0" x="300" width="1" height="35" fill="#95c859" />
  <rect y="0" x="312" width="1" height="35" fill="#8cc563" />
  <rect y="0" x="315" width="1" height="35" fill="#8ac565" />
  <rect y="0" x="334" width="1" height="35" fill="#7bc075" />
  <rect y="0" x="435" width="1" height="35" fill="#4ca4c0" />
</svg>
