<svg viewBox="0 0 458 35" shape-rendering="crispEdges" xmlns="http://www.w3.org/2000/svg">
  <rect y="0" x="159" width="282" height="35" fill="#a3bff4" />
  <rect y="0" x="159" width="1" height="35" fill="#c8e3c2" />
  <rect y="0" x="189" width="1" height="35" fill="#c8e3c2" />
  <rect y="0" x="314" width="1" height="35" fill="#c8e3c2" />
  <rect y="0" x="321" width="1" height="35" fill="#c8e3c2" />
  <rect y="0" x="322" width="1" height="35" fill="#c8e3c2" />
  <rect y="0" x="332" width="1" height="35" fill="#c8e3c2" />
  <rect y="0" x="338" width="1" height="35" fill="#c8e3c2" />
  <rect y="0" x="339" width="1" height="35" fill="#c8e3c2" />
  <rect y="0" x="340" width="1" height="35" fill="#c8e3c2" />
  <rect y="0" x="342" width="1" height="35" fill="#c8e3c2" />
  <rect y="0" x="357" width="1" height="35" fill="#c8e3c2" />
  <rect y="0" x="361" width="1" height="35" fill="#c8e3c2" />
  <rect y="0" x="430" width="1" height="35" fill="#c8e3c2" />
  <rect y="0" x="433" width="1" height="35" fill="#c8e3c2" />
  <rect y="0" x="435" width="1" height="35" fill="#c8e3c2" />
  <rect y="0" x="440" width="1" height="35" fill="#c8e3c2" />
</svg>
