<svg viewBox="0 0 353 35" shape-rendering="crispEdges" xmlns="http://www.w3.org/2000/svg">
  <rect y="0" x="0" width="268" height="35" fill="#a3bff4" />
  <rect y="0" x="0" width="1" height="35" fill="#c8e3c2" />
  <rect y="0" x="40" width="1" height="35" fill="#c8e3c2" />
  <rect y="0" x="50" width="1" height="35" fill="#c8e3c2" />
  <rect y="0" x="52" width="1" height="35" fill="#c8e3c2" />
  <rect y="0" x="57" width="1" height="35" fill="#c8e3c2" />
  <rect y="0" x="65" width="1" height="35" fill="#c8e3c2" />
  <rect y="0" x="74" width="1" height="35" fill="#c8e3c2" />
  <rect y="0" x="75" width="1" height="35" fill="#c8e3c2" />
  <rect y="0" x="79" width="1" height="35" fill="#c8e3c2" />
  <rect y="0" x="91" width="1" height="35" fill="#c8e3c2" />
  <rect y="0" x="93" width="1" height="35" fill="#c8e3c2" />
  <rect y="0" x="97" width="1" height="35" fill="#c8e3c2" />
  <rect y="0" x="98" width="1" height="35" fill="#c8e3c2" />
  <rect y="0" x="121" width="1" height="35" fill="#c8e3c2" />
  <rect y="0" x="143" width="1" height="35" fill="#c8e3c2" />
  <rect y="0" x="147" width="1" height="35" fill="#c8e3c2" />
  <rect y="0" x="152" width="1" height="35" fill="#c8e3c2" />
  <rect y="0" x="153" width="1" height="35" fill="#c8e3c2" />
  <rect y="0" x="154" width="1" height="35" fill="#c8e3c2" />
  <rect y="0" x="155" width="1" height="35" fill="#c8e3c2" />
  <rect y="0" x="157" width="1" height="35" fill="#c8e3c2" />
  <rect y="0" x="160" width="1" height="35" fill="#c8e3c2" />
  <rect y="0" x="161" width="1" height="35" fill="#c8e3c2" />
  <rect y="0" x="165" width="1" height="35" fill="#c8e3c2" />
  <rect y="0" x="166" width="1" height="35" fill="#c8e3c2" />
  <rect y="0" x="169" width="1" height="35" fill="#c8e3c2" />
  <rect y="0" x="171" width="1" height="35" fill="#c8e3c2" />
  <rect y="0" x="173" width="1" height="35" fill="#c8e3c2" />
  <rect y="0" x="181" width="1" height="35" fill="#c8e3c2" />
  <rect y="0" x="185" width="1" height="35" fill="#c8e3c2" />
  <rect y="0" x="189" width="1" height="35" fill="#c8e3c2" />
  <rect y="0" x="191" width="1" height="35" fill="#c8e3c2" />
  <rect y="0" x="193" width="1" height="35" fill="#c8e3c2" />
  <rect y="0" x="194" width="1" height="35" fill="#c8e3c2" />
  <rect y="0" x="195" width="1" height="35" fill="#c8e3c2" />
  <rect y="0" x="196" width="1" height="35" fill="#c8e3c2" />
  <rect y="0" x="197" width="1" height="35" fill="#c8e3c2" />
  <rect y="0" x="199" width="1" height="35" fill="#c8e3c2" />
  <rect y="0" x="201" width="1" height="35" fill="#c8e3c2" />
  <rect y="0" x="204" width="1" height="35" fill="#c8e3c2" />
  <rect y="0" x="208" width="1" height="35" fill="#c8e3c2" />
  <rect y="0" x="209" width="1" height="35" fill="#c8e3c2" />
  <rect y="0" x="210" width="1" height="35" fill="#c8e3c2" />
  <rect y="0" x="212" width="1" height="35" fill="#c8e3c2" />
  <rect y="0" x="217" width="1" height="35" fill="#c8e3c2" />
  <rect y="0" x="218" width="1" height="35" fill="#c8e3c2" />
  <rect y="0" x="219" width="1" height="35" fill="#c8e3c2" />
  <rect y="0" x="220" width="1" height="35" fill="#c8e3c2" />
  <rect y="0" x="222" width="1" height="35" fill="#c8e3c2" />
  <rect y="0" x="223" width="1" height="35" fill="#c8e3c2" />
  <rect y="0" x="224" width="1" height="35" fill="#c8e3c2" />
  <rect y="0" x="225" width="1" height="35" fill="#c8e3c2" />
  <rect y="0" x="226" width="1" height="35" fill="#c8e3c2" />
  <rect y="0" x="227" width="1" height="35" fill="#c8e3c2" />
  <rect y="0" x="228" width="1" height="35" fill="#c8e3c2" />
  <rect y="0" x="229" width="1" height="35" fill="#c8e3c2" />
  <rect y="0" x="230" width="1" height="35" fill="#c8e3c2" />
  <rect y="0" x="232" width="1" height="35" fill="#c8e3c2" />
  <rect y="0" x="233" width="1" height="35" fill="#c8e3c2" />
  <rect y="0" x="235" width="1" height="35" fill="#c8e3c2" />
  <rect y="0" x="237" width="1" height="35" fill="#c8e3c2" />
  <rect y="0" x="240" width="1" height="35" fill="#c8e3c2" />
  <rect y="0" x="244" width="1" height="35" fill="#c8e3c2" />
  <rect y="0" x="245" width="1" height="35" fill="#c8e3c2" />
  <rect y="0" x="250" width="1" height="35" fill="#c8e3c2" />
  <rect y="0" x="252" width="1" height="35" fill="#c8e3c2" />
  <rect y="0" x="253" width="1" height="35" fill="#c8e3c2" />
  <rect y="0" x="257" width="1" height="35" fill="#c8e3c2" />
  <rect y="0" x="260" width="1" height="35" fill="#c8e3c2" />
  <rect y="0" x="262" width="1" height="35" fill="#c8e3c2" />
  <rect y="0" x="267" width="1" height="35" fill="#c8e3c2" />
</svg>
