<svg viewBox="0 0 415 35" shape-rendering="crispEdges" xmlns="http://www.w3.org/2000/svg">
  <rect y="0" x="22" width="374" height="35" fill="#a3bff4" />
  <rect y="0" x="22" width="1" height="35" fill="#c8e3c2" />
  <rect y="0" x="58" width="1" height="35" fill="#c8e3c2" />
  <rect y="0" x="62" width="1" height="35" fill="#c8e3c2" />
  <rect y="0" x="98" width="1" height="35" fill="#c8e3c2" />
  <rect y="0" x="124" width="1" height="35" fill="#c8e3c2" />
  <rect y="0" x="148" width="1" height="35" fill="#c8e3c2" />
  <rect y="0" x="154" width="1" height="35" fill="#c8e3c2" />
  <rect y="0" x="190" width="1" height="35" fill="#c8e3c2" />
  <rect y="0" x="192" width="1" height="35" fill="#c8e3c2" />
  <rect y="0" x="204" width="1" height="35" fill="#c8e3c2" />
  <rect y="0" x="235" width="1" height="35" fill="#c8e3c2" />
  <rect y="0" x="289" width="1" height="35" fill="#c8e3c2" />
  <rect y="0" x="297" width="1" height="35" fill="#c8e3c2" />
  <rect y="0" x="299" width="1" height="35" fill="#c8e3c2" />
  <rect y="0" x="320" width="1" height="35" fill="#c8e3c2" />
  <rect y="0" x="392" width="1" height="35" fill="#c8e3c2" />
  <rect y="0" x="395" width="1" height="35" fill="#c8e3c2" />
</svg>
