<svg viewBox="0 0 364 35" shape-rendering="crispEdges" xmlns="http://www.w3.org/2000/svg">
  <rect y="0" x="0" width="345" height="35" fill="#a3bff4" />
  <rect y="0" x="0" width="1" height="35" fill="#c8e3c2" />
  <rect y="0" x="7" width="1" height="35" fill="#c8e3c2" />
  <rect y="0" x="11" width="1" height="35" fill="#c8e3c2" />
  <rect y="0" x="44" width="1" height="35" fill="#c8e3c2" />
  <rect y="0" x="47" width="1" height="35" fill="#c8e3c2" />
  <rect y="0" x="55" width="1" height="35" fill="#c8e3c2" />
  <rect y="0" x="73" width="1" height="35" fill="#c8e3c2" />
  <rect y="0" x="97" width="1" height="35" fill="#c8e3c2" />
  <rect y="0" x="103" width="1" height="35" fill="#c8e3c2" />
  <rect y="0" x="109" width="1" height="35" fill="#c8e3c2" />
  <rect y="0" x="124" width="1" height="35" fill="#c8e3c2" />
  <rect y="0" x="127" width="1" height="35" fill="#c8e3c2" />
  <rect y="0" x="133" width="1" height="35" fill="#c8e3c2" />
  <rect y="0" x="134" width="1" height="35" fill="#c8e3c2" />
  <rect y="0" x="137" width="1" height="35" fill="#c8e3c2" />
  <rect y="0" x="139" width="1" height="35" fill="#c8e3c2" />
  <rect y="0" x="141" width="1" height="35" fill="#c8e3c2" />
  <rect y="0" x="147" width="1" height="35" fill="#c8e3c2" />
  <rect y="0" x="153" width="1" height="35" fill="#c8e3c2" />
  <rect y="0" x="171" width="1" height="35" fill="#c8e3c2" />
  <rect y="0" x="184" width="1" height="35" fill="#c8e3c2" />
  <rect y="0" x="196" width="1" height="35" fill="#c8e3c2" />
  <rect y="0" x="199" width="1" height="35" fill="#c8e3c2" />
  <rect y="0" x="206" width="1" height="35" fill="#c8e3c2" />
  <rect y="0" x="233" width="1" height="35" fill="#c8e3c2" />
  <rect y="0" x="234" width="1" height="35" fill="#c8e3c2" />
  <rect y="0" x="238" width="1" height="35" fill="#c8e3c2" />
  <rect y="0" x="245" width="1" height="35" fill="#c8e3c2" />
  <rect y="0" x="246" width="1" height="35" fill="#c8e3c2" />
  <rect y="0" x="248" width="1" height="35" fill="#c8e3c2" />
  <rect y="0" x="251" width="1" height="35" fill="#c8e3c2" />
  <rect y="0" x="269" width="1" height="35" fill="#c8e3c2" />
  <rect y="0" x="273" width="1" height="35" fill="#c8e3c2" />
  <rect y="0" x="276" width="1" height="35" fill="#c8e3c2" />
  <rect y="0" x="344" width="1" height="35" fill="#c8e3c2" />
</svg>
