<svg viewBox="0 0 442 35" shape-rendering="crispEdges" xmlns="http://www.w3.org/2000/svg">
  <rect y="0" x="85" width="345" height="35" fill="#a3bff4" />
  <rect y="0" x="85" width="1" height="35" fill="#c8e3c2" />
  <rect y="0" x="89" width="1" height="35" fill="#c8e3c2" />
  <rect y="0" x="95" width="1" height="35" fill="#c8e3c2" />
  <rect y="0" x="116" width="1" height="35" fill="#c8e3c2" />
  <rect y="0" x="125" width="1" height="35" fill="#c8e3c2" />
  <rect y="0" x="149" width="1" height="35" fill="#c8e3c2" />
  <rect y="0" x="151" width="1" height="35" fill="#c8e3c2" />
  <rect y="0" x="175" width="1" height="35" fill="#c8e3c2" />
  <rect y="0" x="181" width="1" height="35" fill="#c8e3c2" />
  <rect y="0" x="217" width="1" height="35" fill="#c8e3c2" />
  <rect y="0" x="219" width="1" height="35" fill="#c8e3c2" />
  <rect y="0" x="231" width="1" height="35" fill="#c8e3c2" />
  <rect y="0" x="262" width="1" height="35" fill="#c8e3c2" />
  <rect y="0" x="316" width="1" height="35" fill="#c8e3c2" />
  <rect y="0" x="324" width="1" height="35" fill="#c8e3c2" />
  <rect y="0" x="326" width="1" height="35" fill="#c8e3c2" />
  <rect y="0" x="347" width="1" height="35" fill="#c8e3c2" />
  <rect y="0" x="373" width="1" height="35" fill="#c8e3c2" />
  <rect y="0" x="377" width="1" height="35" fill="#c8e3c2" />
  <rect y="0" x="419" width="1" height="35" fill="#c8e3c2" />
  <rect y="0" x="422" width="1" height="35" fill="#c8e3c2" />
  <rect y="0" x="423" width="1" height="35" fill="#c8e3c2" />
  <rect y="0" x="429" width="1" height="35" fill="#c8e3c2" />
</svg>
