<svg viewBox="0 0 313 35" shape-rendering="crispEdges" xmlns="http://www.w3.org/2000/svg">
  <rect y="0" x="0" width="302" height="35" fill="#a3bff4" />
  <rect y="0" x="0" width="1" height="35" fill="#c8e3c2" />
  <rect y="0" x="10" width="1" height="35" fill="#c8e3c2" />
  <rect y="0" x="14" width="1" height="35" fill="#c8e3c2" />
  <rect y="0" x="34" width="1" height="35" fill="#c8e3c2" />
  <rect y="0" x="39" width="1" height="35" fill="#c8e3c2" />
  <rect y="0" x="47" width="1" height="35" fill="#c8e3c2" />
  <rect y="0" x="51" width="1" height="35" fill="#c8e3c2" />
  <rect y="0" x="53" width="1" height="35" fill="#c8e3c2" />
  <rect y="0" x="58" width="1" height="35" fill="#c8e3c2" />
  <rect y="0" x="120" width="1" height="35" fill="#c8e3c2" />
  <rect y="0" x="121" width="1" height="35" fill="#c8e3c2" />
  <rect y="0" x="125" width="1" height="35" fill="#c8e3c2" />
  <rect y="0" x="130" width="1" height="35" fill="#c8e3c2" />
  <rect y="0" x="133" width="1" height="35" fill="#c8e3c2" />
  <rect y="0" x="141" width="1" height="35" fill="#c8e3c2" />
  <rect y="0" x="145" width="1" height="35" fill="#c8e3c2" />
  <rect y="0" x="149" width="1" height="35" fill="#c8e3c2" />
  <rect y="0" x="151" width="1" height="35" fill="#c8e3c2" />
  <rect y="0" x="152" width="1" height="35" fill="#c8e3c2" />
  <rect y="0" x="153" width="1" height="35" fill="#c8e3c2" />
  <rect y="0" x="154" width="1" height="35" fill="#c8e3c2" />
  <rect y="0" x="155" width="1" height="35" fill="#c8e3c2" />
  <rect y="0" x="156" width="1" height="35" fill="#c8e3c2" />
  <rect y="0" x="157" width="1" height="35" fill="#c8e3c2" />
  <rect y="0" x="159" width="1" height="35" fill="#c8e3c2" />
  <rect y="0" x="161" width="1" height="35" fill="#c8e3c2" />
  <rect y="0" x="164" width="1" height="35" fill="#c8e3c2" />
  <rect y="0" x="165" width="1" height="35" fill="#c8e3c2" />
  <rect y="0" x="166" width="1" height="35" fill="#c8e3c2" />
  <rect y="0" x="168" width="1" height="35" fill="#c8e3c2" />
  <rect y="0" x="169" width="1" height="35" fill="#c8e3c2" />
  <rect y="0" x="170" width="1" height="35" fill="#c8e3c2" />
  <rect y="0" x="171" width="1" height="35" fill="#c8e3c2" />
  <rect y="0" x="172" width="1" height="35" fill="#c8e3c2" />
  <rect y="0" x="174" width="1" height="35" fill="#c8e3c2" />
  <rect y="0" x="175" width="1" height="35" fill="#c8e3c2" />
  <rect y="0" x="177" width="1" height="35" fill="#c8e3c2" />
  <rect y="0" x="178" width="1" height="35" fill="#c8e3c2" />
  <rect y="0" x="179" width="1" height="35" fill="#c8e3c2" />
  <rect y="0" x="180" width="1" height="35" fill="#c8e3c2" />
  <rect y="0" x="181" width="1" height="35" fill="#c8e3c2" />
  <rect y="0" x="182" width="1" height="35" fill="#c8e3c2" />
  <rect y="0" x="183" width="1" height="35" fill="#c8e3c2" />
  <rect y="0" x="184" width="1" height="35" fill="#c8e3c2" />
  <rect y="0" x="185" width="1" height="35" fill="#c8e3c2" />
  <rect y="0" x="186" width="1" height="35" fill="#c8e3c2" />
  <rect y="0" x="187" width="1" height="35" fill="#c8e3c2" />
  <rect y="0" x="188" width="1" height="35" fill="#c8e3c2" />
  <rect y="0" x="189" width="1" height="35" fill="#c8e3c2" />
  <rect y="0" x="190" width="1" height="35" fill="#c8e3c2" />
  <rect y="0" x="191" width="1" height="35" fill="#c8e3c2" />
  <rect y="0" x="192" width="1" height="35" fill="#c8e3c2" />
  <rect y="0" x="193" width="1" height="35" fill="#c8e3c2" />
  <rect y="0" x="194" width="1" height="35" fill="#c8e3c2" />
  <rect y="0" x="195" width="1" height="35" fill="#c8e3c2" />
  <rect y="0" x="196" width="1" height="35" fill="#c8e3c2" />
  <rect y="0" x="197" width="1" height="35" fill="#c8e3c2" />
  <rect y="0" x="198" width="1" height="35" fill="#c8e3c2" />
  <rect y="0" x="200" width="1" height="35" fill="#c8e3c2" />
  <rect y="0" x="202" width="1" height="35" fill="#c8e3c2" />
  <rect y="0" x="204" width="1" height="35" fill="#c8e3c2" />
  <rect y="0" x="205" width="1" height="35" fill="#c8e3c2" />
  <rect y="0" x="210" width="1" height="35" fill="#c8e3c2" />
  <rect y="0" x="212" width="1" height="35" fill="#c8e3c2" />
  <rect y="0" x="213" width="1" height="35" fill="#c8e3c2" />
  <rect y="0" x="215" width="1" height="35" fill="#c8e3c2" />
  <rect y="0" x="217" width="1" height="35" fill="#c8e3c2" />
  <rect y="0" x="220" width="1" height="35" fill="#c8e3c2" />
  <rect y="0" x="222" width="1" height="35" fill="#c8e3c2" />
  <rect y="0" x="223" width="1" height="35" fill="#c8e3c2" />
  <rect y="0" x="224" width="1" height="35" fill="#c8e3c2" />
  <rect y="0" x="227" width="1" height="35" fill="#c8e3c2" />
  <rect y="0" x="284" width="1" height="35" fill="#c8e3c2" />
  <rect y="0" x="290" width="1" height="35" fill="#c8e3c2" />
  <rect y="0" x="291" width="1" height="35" fill="#c8e3c2" />
  <rect y="0" x="301" width="1" height="35" fill="#c8e3c2" />
</svg>
