<svg viewBox="0 0 458 35" shape-rendering="crispEdges" xmlns="http://www.w3.org/2000/svg">
  <rect y="0" x="0" width="455" height="35" fill="#a3bff4" />
  <rect y="0" x="0" width="1" height="35" fill="#c8e3c2" />
  <rect y="0" x="14" width="1" height="35" fill="#c8e3c2" />
  <rect y="0" x="27" width="1" height="35" fill="#c8e3c2" />
  <rect y="0" x="34" width="1" height="35" fill="#c8e3c2" />
  <rect y="0" x="35" width="1" height="35" fill="#c8e3c2" />
  <rect y="0" x="36" width="1" height="35" fill="#c8e3c2" />
  <rect y="0" x="37" width="1" height="35" fill="#c8e3c2" />
  <rect y="0" x="38" width="1" height="35" fill="#c8e3c2" />
  <rect y="0" x="40" width="1" height="35" fill="#c8e3c2" />
  <rect y="0" x="41" width="1" height="35" fill="#c8e3c2" />
  <rect y="0" x="42" width="1" height="35" fill="#c8e3c2" />
  <rect y="0" x="43" width="1" height="35" fill="#c8e3c2" />
  <rect y="0" x="44" width="1" height="35" fill="#c8e3c2" />
  <rect y="0" x="45" width="1" height="35" fill="#c8e3c2" />
  <rect y="0" x="46" width="1" height="35" fill="#c8e3c2" />
  <rect y="0" x="47" width="1" height="35" fill="#c8e3c2" />
  <rect y="0" x="48" width="1" height="35" fill="#c8e3c2" />
  <rect y="0" x="49" width="1" height="35" fill="#c8e3c2" />
  <rect y="0" x="50" width="1" height="35" fill="#c8e3c2" />
  <rect y="0" x="51" width="1" height="35" fill="#c8e3c2" />
  <rect y="0" x="52" width="1" height="35" fill="#c8e3c2" />
  <rect y="0" x="53" width="1" height="35" fill="#c8e3c2" />
  <rect y="0" x="54" width="1" height="35" fill="#c8e3c2" />
  <rect y="0" x="55" width="1" height="35" fill="#c8e3c2" />
  <rect y="0" x="56" width="1" height="35" fill="#c8e3c2" />
  <rect y="0" x="57" width="1" height="35" fill="#c8e3c2" />
  <rect y="0" x="58" width="1" height="35" fill="#c8e3c2" />
  <rect y="0" x="59" width="1" height="35" fill="#c8e3c2" />
  <rect y="0" x="60" width="1" height="35" fill="#c8e3c2" />
  <rect y="0" x="61" width="1" height="35" fill="#c8e3c2" />
  <rect y="0" x="62" width="1" height="35" fill="#c8e3c2" />
  <rect y="0" x="63" width="1" height="35" fill="#c8e3c2" />
  <rect y="0" x="64" width="1" height="35" fill="#c8e3c2" />
  <rect y="0" x="65" width="1" height="35" fill="#c8e3c2" />
  <rect y="0" x="66" width="1" height="35" fill="#c8e3c2" />
  <rect y="0" x="67" width="1" height="35" fill="#c8e3c2" />
  <rect y="0" x="68" width="1" height="35" fill="#c8e3c2" />
  <rect y="0" x="69" width="1" height="35" fill="#c8e3c2" />
  <rect y="0" x="70" width="1" height="35" fill="#c8e3c2" />
  <rect y="0" x="71" width="1" height="35" fill="#c8e3c2" />
  <rect y="0" x="72" width="1" height="35" fill="#c8e3c2" />
  <rect y="0" x="74" width="1" height="35" fill="#c8e3c2" />
  <rect y="0" x="75" width="1" height="35" fill="#c8e3c2" />
  <rect y="0" x="76" width="1" height="35" fill="#c8e3c2" />
  <rect y="0" x="77" width="1" height="35" fill="#c8e3c2" />
  <rect y="0" x="79" width="1" height="35" fill="#c8e3c2" />
  <rect y="0" x="80" width="1" height="35" fill="#c8e3c2" />
  <rect y="0" x="81" width="1" height="35" fill="#c8e3c2" />
  <rect y="0" x="82" width="1" height="35" fill="#c8e3c2" />
  <rect y="0" x="83" width="1" height="35" fill="#c8e3c2" />
  <rect y="0" x="84" width="1" height="35" fill="#c8e3c2" />
  <rect y="0" x="85" width="1" height="35" fill="#c8e3c2" />
  <rect y="0" x="86" width="1" height="35" fill="#c8e3c2" />
  <rect y="0" x="87" width="1" height="35" fill="#c8e3c2" />
  <rect y="0" x="88" width="1" height="35" fill="#c8e3c2" />
  <rect y="0" x="89" width="1" height="35" fill="#c8e3c2" />
  <rect y="0" x="90" width="1" height="35" fill="#c8e3c2" />
  <rect y="0" x="91" width="1" height="35" fill="#c8e3c2" />
  <rect y="0" x="92" width="1" height="35" fill="#c8e3c2" />
  <rect y="0" x="93" width="1" height="35" fill="#c8e3c2" />
  <rect y="0" x="94" width="1" height="35" fill="#c8e3c2" />
  <rect y="0" x="95" width="1" height="35" fill="#c8e3c2" />
  <rect y="0" x="96" width="1" height="35" fill="#c8e3c2" />
  <rect y="0" x="97" width="1" height="35" fill="#c8e3c2" />
  <rect y="0" x="98" width="1" height="35" fill="#c8e3c2" />
  <rect y="0" x="99" width="1" height="35" fill="#c8e3c2" />
  <rect y="0" x="100" width="1" height="35" fill="#c8e3c2" />
  <rect y="0" x="101" width="1" height="35" fill="#c8e3c2" />
  <rect y="0" x="102" width="1" height="35" fill="#c8e3c2" />
  <rect y="0" x="103" width="1" height="35" fill="#c8e3c2" />
  <rect y="0" x="104" width="1" height="35" fill="#c8e3c2" />
  <rect y="0" x="105" width="1" height="35" fill="#c8e3c2" />
  <rect y="0" x="106" width="1" height="35" fill="#c8e3c2" />
  <rect y="0" x="107" width="1" height="35" fill="#c8e3c2" />
  <rect y="0" x="108" width="1" height="35" fill="#c8e3c2" />
  <rect y="0" x="109" width="1" height="35" fill="#c8e3c2" />
  <rect y="0" x="110" width="1" height="35" fill="#c8e3c2" />
  <rect y="0" x="111" width="1" height="35" fill="#c8e3c2" />
  <rect y="0" x="112" width="1" height="35" fill="#c8e3c2" />
  <rect y="0" x="113" width="1" height="35" fill="#c8e3c2" />
  <rect y="0" x="114" width="1" height="35" fill="#c8e3c2" />
  <rect y="0" x="115" width="1" height="35" fill="#c8e3c2" />
  <rect y="0" x="116" width="1" height="35" fill="#c8e3c2" />
  <rect y="0" x="117" width="1" height="35" fill="#c8e3c2" />
  <rect y="0" x="118" width="1" height="35" fill="#c8e3c2" />
  <rect y="0" x="119" width="1" height="35" fill="#c8e3c2" />
  <rect y="0" x="120" width="1" height="35" fill="#c8e3c2" />
  <rect y="0" x="121" width="1" height="35" fill="#c8e3c2" />
  <rect y="0" x="122" width="1" height="35" fill="#c8e3c2" />
  <rect y="0" x="123" width="1" height="35" fill="#c8e3c2" />
  <rect y="0" x="124" width="1" height="35" fill="#c8e3c2" />
  <rect y="0" x="125" width="1" height="35" fill="#c8e3c2" />
  <rect y="0" x="126" width="1" height="35" fill="#c8e3c2" />
  <rect y="0" x="127" width="1" height="35" fill="#c8e3c2" />
  <rect y="0" x="128" width="1" height="35" fill="#c8e3c2" />
  <rect y="0" x="129" width="1" height="35" fill="#c8e3c2" />
  <rect y="0" x="130" width="1" height="35" fill="#c8e3c2" />
  <rect y="0" x="131" width="1" height="35" fill="#c8e3c2" />
  <rect y="0" x="132" width="1" height="35" fill="#c8e3c2" />
  <rect y="0" x="133" width="1" height="35" fill="#c8e3c2" />
  <rect y="0" x="134" width="1" height="35" fill="#c8e3c2" />
  <rect y="0" x="135" width="1" height="35" fill="#c8e3c2" />
  <rect y="0" x="136" width="1" height="35" fill="#c8e3c2" />
  <rect y="0" x="137" width="1" height="35" fill="#c8e3c2" />
  <rect y="0" x="138" width="1" height="35" fill="#c8e3c2" />
  <rect y="0" x="139" width="1" height="35" fill="#c8e3c2" />
  <rect y="0" x="140" width="1" height="35" fill="#c8e3c2" />
  <rect y="0" x="141" width="1" height="35" fill="#c8e3c2" />
  <rect y="0" x="142" width="1" height="35" fill="#c8e3c2" />
  <rect y="0" x="143" width="1" height="35" fill="#c8e3c2" />
  <rect y="0" x="144" width="1" height="35" fill="#c8e3c2" />
  <rect y="0" x="145" width="1" height="35" fill="#c8e3c2" />
  <rect y="0" x="146" width="1" height="35" fill="#c8e3c2" />
  <rect y="0" x="147" width="1" height="35" fill="#c8e3c2" />
  <rect y="0" x="148" width="1" height="35" fill="#c8e3c2" />
  <rect y="0" x="149" width="1" height="35" fill="#c8e3c2" />
  <rect y="0" x="150" width="1" height="35" fill="#c8e3c2" />
  <rect y="0" x="151" width="1" height="35" fill="#c8e3c2" />
  <rect y="0" x="152" width="1" height="35" fill="#c8e3c2" />
  <rect y="0" x="153" width="1" height="35" fill="#c8e3c2" />
  <rect y="0" x="154" width="1" height="35" fill="#c8e3c2" />
  <rect y="0" x="155" width="1" height="35" fill="#c8e3c2" />
  <rect y="0" x="156" width="1" height="35" fill="#c8e3c2" />
  <rect y="0" x="157" width="1" height="35" fill="#c8e3c2" />
  <rect y="0" x="158" width="1" height="35" fill="#c8e3c2" />
  <rect y="0" x="159" width="1" height="35" fill="#c8e3c2" />
  <rect y="0" x="160" width="1" height="35" fill="#c8e3c2" />
  <rect y="0" x="161" width="1" height="35" fill="#c8e3c2" />
  <rect y="0" x="162" width="1" height="35" fill="#c8e3c2" />
  <rect y="0" x="163" width="1" height="35" fill="#c8e3c2" />
  <rect y="0" x="164" width="1" height="35" fill="#c8e3c2" />
  <rect y="0" x="165" width="1" height="35" fill="#c8e3c2" />
  <rect y="0" x="166" width="1" height="35" fill="#c8e3c2" />
  <rect y="0" x="167" width="1" height="35" fill="#c8e3c2" />
  <rect y="0" x="168" width="1" height="35" fill="#c8e3c2" />
  <rect y="0" x="169" width="1" height="35" fill="#c8e3c2" />
  <rect y="0" x="170" width="1" height="35" fill="#c8e3c2" />
  <rect y="0" x="171" width="1" height="35" fill="#c8e3c2" />
  <rect y="0" x="172" width="1" height="35" fill="#c8e3c2" />
  <rect y="0" x="173" width="1" height="35" fill="#c8e3c2" />
  <rect y="0" x="174" width="1" height="35" fill="#c8e3c2" />
  <rect y="0" x="175" width="1" height="35" fill="#c8e3c2" />
  <rect y="0" x="176" width="1" height="35" fill="#c8e3c2" />
  <rect y="0" x="177" width="1" height="35" fill="#c8e3c2" />
  <rect y="0" x="178" width="1" height="35" fill="#c8e3c2" />
  <rect y="0" x="179" width="1" height="35" fill="#c8e3c2" />
  <rect y="0" x="180" width="1" height="35" fill="#c8e3c2" />
  <rect y="0" x="181" width="1" height="35" fill="#c8e3c2" />
  <rect y="0" x="182" width="1" height="35" fill="#c8e3c2" />
  <rect y="0" x="183" width="1" height="35" fill="#c8e3c2" />
  <rect y="0" x="184" width="1" height="35" fill="#c8e3c2" />
  <rect y="0" x="185" width="1" height="35" fill="#c8e3c2" />
  <rect y="0" x="186" width="1" height="35" fill="#c8e3c2" />
  <rect y="0" x="187" width="1" height="35" fill="#c8e3c2" />
  <rect y="0" x="188" width="1" height="35" fill="#c8e3c2" />
  <rect y="0" x="189" width="1" height="35" fill="#c8e3c2" />
  <rect y="0" x="190" width="1" height="35" fill="#c8e3c2" />
  <rect y="0" x="191" width="1" height="35" fill="#c8e3c2" />
  <rect y="0" x="192" width="1" height="35" fill="#c8e3c2" />
  <rect y="0" x="193" width="1" height="35" fill="#c8e3c2" />
  <rect y="0" x="194" width="1" height="35" fill="#c8e3c2" />
  <rect y="0" x="195" width="1" height="35" fill="#c8e3c2" />
  <rect y="0" x="196" width="1" height="35" fill="#c8e3c2" />
  <rect y="0" x="197" width="1" height="35" fill="#c8e3c2" />
  <rect y="0" x="198" width="1" height="35" fill="#c8e3c2" />
  <rect y="0" x="199" width="1" height="35" fill="#c8e3c2" />
  <rect y="0" x="200" width="1" height="35" fill="#c8e3c2" />
  <rect y="0" x="201" width="1" height="35" fill="#c8e3c2" />
  <rect y="0" x="202" width="1" height="35" fill="#c8e3c2" />
  <rect y="0" x="203" width="1" height="35" fill="#c8e3c2" />
  <rect y="0" x="204" width="1" height="35" fill="#c8e3c2" />
  <rect y="0" x="205" width="1" height="35" fill="#c8e3c2" />
  <rect y="0" x="206" width="1" height="35" fill="#c8e3c2" />
  <rect y="0" x="207" width="1" height="35" fill="#c8e3c2" />
  <rect y="0" x="208" width="1" height="35" fill="#c8e3c2" />
  <rect y="0" x="209" width="1" height="35" fill="#c8e3c2" />
  <rect y="0" x="210" width="1" height="35" fill="#c8e3c2" />
  <rect y="0" x="211" width="1" height="35" fill="#c8e3c2" />
  <rect y="0" x="212" width="1" height="35" fill="#c8e3c2" />
  <rect y="0" x="213" width="1" height="35" fill="#c8e3c2" />
  <rect y="0" x="214" width="1" height="35" fill="#c8e3c2" />
  <rect y="0" x="215" width="1" height="35" fill="#c8e3c2" />
  <rect y="0" x="216" width="1" height="35" fill="#c8e3c2" />
  <rect y="0" x="217" width="1" height="35" fill="#c8e3c2" />
  <rect y="0" x="218" width="1" height="35" fill="#c8e3c2" />
  <rect y="0" x="219" width="1" height="35" fill="#c8e3c2" />
  <rect y="0" x="220" width="1" height="35" fill="#c8e3c2" />
  <rect y="0" x="221" width="1" height="35" fill="#c8e3c2" />
  <rect y="0" x="222" width="1" height="35" fill="#c8e3c2" />
  <rect y="0" x="223" width="1" height="35" fill="#c8e3c2" />
  <rect y="0" x="224" width="1" height="35" fill="#c8e3c2" />
  <rect y="0" x="225" width="1" height="35" fill="#c8e3c2" />
  <rect y="0" x="226" width="1" height="35" fill="#c8e3c2" />
  <rect y="0" x="227" width="1" height="35" fill="#c8e3c2" />
  <rect y="0" x="228" width="1" height="35" fill="#c8e3c2" />
  <rect y="0" x="229" width="1" height="35" fill="#c8e3c2" />
  <rect y="0" x="230" width="1" height="35" fill="#c8e3c2" />
  <rect y="0" x="231" width="1" height="35" fill="#c8e3c2" />
  <rect y="0" x="232" width="1" height="35" fill="#c8e3c2" />
  <rect y="0" x="233" width="1" height="35" fill="#c8e3c2" />
  <rect y="0" x="234" width="1" height="35" fill="#c8e3c2" />
  <rect y="0" x="235" width="1" height="35" fill="#c8e3c2" />
  <rect y="0" x="236" width="1" height="35" fill="#c8e3c2" />
  <rect y="0" x="237" width="1" height="35" fill="#c8e3c2" />
  <rect y="0" x="238" width="1" height="35" fill="#c8e3c2" />
  <rect y="0" x="239" width="1" height="35" fill="#c8e3c2" />
  <rect y="0" x="240" width="1" height="35" fill="#c8e3c2" />
  <rect y="0" x="241" width="1" height="35" fill="#c8e3c2" />
  <rect y="0" x="242" width="1" height="35" fill="#c8e3c2" />
  <rect y="0" x="243" width="1" height="35" fill="#c8e3c2" />
  <rect y="0" x="244" width="1" height="35" fill="#c8e3c2" />
  <rect y="0" x="245" width="1" height="35" fill="#c8e3c2" />
  <rect y="0" x="246" width="1" height="35" fill="#c8e3c2" />
  <rect y="0" x="247" width="1" height="35" fill="#c8e3c2" />
  <rect y="0" x="248" width="1" height="35" fill="#c8e3c2" />
  <rect y="0" x="249" width="1" height="35" fill="#c8e3c2" />
  <rect y="0" x="250" width="1" height="35" fill="#c8e3c2" />
  <rect y="0" x="251" width="1" height="35" fill="#c8e3c2" />
  <rect y="0" x="252" width="1" height="35" fill="#c8e3c2" />
  <rect y="0" x="253" width="1" height="35" fill="#c8e3c2" />
  <rect y="0" x="254" width="1" height="35" fill="#c8e3c2" />
  <rect y="0" x="255" width="1" height="35" fill="#c8e3c2" />
  <rect y="0" x="256" width="1" height="35" fill="#c8e3c2" />
  <rect y="0" x="257" width="1" height="35" fill="#c8e3c2" />
  <rect y="0" x="258" width="1" height="35" fill="#c8e3c2" />
  <rect y="0" x="259" width="1" height="35" fill="#c8e3c2" />
  <rect y="0" x="260" width="1" height="35" fill="#c8e3c2" />
  <rect y="0" x="261" width="1" height="35" fill="#c8e3c2" />
  <rect y="0" x="262" width="1" height="35" fill="#c8e3c2" />
  <rect y="0" x="263" width="1" height="35" fill="#c8e3c2" />
  <rect y="0" x="264" width="1" height="35" fill="#c8e3c2" />
  <rect y="0" x="265" width="1" height="35" fill="#c8e3c2" />
  <rect y="0" x="266" width="1" height="35" fill="#c8e3c2" />
  <rect y="0" x="267" width="1" height="35" fill="#c8e3c2" />
  <rect y="0" x="268" width="1" height="35" fill="#c8e3c2" />
  <rect y="0" x="269" width="1" height="35" fill="#c8e3c2" />
  <rect y="0" x="270" width="1" height="35" fill="#c8e3c2" />
  <rect y="0" x="271" width="1" height="35" fill="#c8e3c2" />
  <rect y="0" x="272" width="1" height="35" fill="#c8e3c2" />
  <rect y="0" x="273" width="1" height="35" fill="#c8e3c2" />
  <rect y="0" x="274" width="1" height="35" fill="#c8e3c2" />
  <rect y="0" x="275" width="1" height="35" fill="#c8e3c2" />
  <rect y="0" x="276" width="1" height="35" fill="#c8e3c2" />
  <rect y="0" x="277" width="1" height="35" fill="#c8e3c2" />
  <rect y="0" x="278" width="1" height="35" fill="#c8e3c2" />
  <rect y="0" x="279" width="1" height="35" fill="#c8e3c2" />
  <rect y="0" x="280" width="1" height="35" fill="#c8e3c2" />
  <rect y="0" x="281" width="1" height="35" fill="#c8e3c2" />
  <rect y="0" x="282" width="1" height="35" fill="#c8e3c2" />
  <rect y="0" x="283" width="1" height="35" fill="#c8e3c2" />
  <rect y="0" x="284" width="1" height="35" fill="#c8e3c2" />
  <rect y="0" x="285" width="1" height="35" fill="#c8e3c2" />
  <rect y="0" x="286" width="1" height="35" fill="#c8e3c2" />
  <rect y="0" x="287" width="1" height="35" fill="#c8e3c2" />
  <rect y="0" x="288" width="1" height="35" fill="#c8e3c2" />
  <rect y="0" x="289" width="1" height="35" fill="#c8e3c2" />
  <rect y="0" x="290" width="1" height="35" fill="#c8e3c2" />
  <rect y="0" x="291" width="1" height="35" fill="#c8e3c2" />
  <rect y="0" x="292" width="1" height="35" fill="#c8e3c2" />
  <rect y="0" x="293" width="1" height="35" fill="#c8e3c2" />
  <rect y="0" x="294" width="1" height="35" fill="#c8e3c2" />
  <rect y="0" x="295" width="1" height="35" fill="#c8e3c2" />
  <rect y="0" x="296" width="1" height="35" fill="#c8e3c2" />
  <rect y="0" x="297" width="1" height="35" fill="#c8e3c2" />
  <rect y="0" x="298" width="1" height="35" fill="#c8e3c2" />
  <rect y="0" x="299" width="1" height="35" fill="#c8e3c2" />
  <rect y="0" x="300" width="1" height="35" fill="#c8e3c2" />
  <rect y="0" x="301" width="1" height="35" fill="#c8e3c2" />
  <rect y="0" x="302" width="1" height="35" fill="#c8e3c2" />
  <rect y="0" x="303" width="1" height="35" fill="#c8e3c2" />
  <rect y="0" x="304" width="1" height="35" fill="#c8e3c2" />
  <rect y="0" x="305" width="1" height="35" fill="#c8e3c2" />
  <rect y="0" x="306" width="1" height="35" fill="#c8e3c2" />
  <rect y="0" x="307" width="1" height="35" fill="#c8e3c2" />
  <rect y="0" x="308" width="1" height="35" fill="#c8e3c2" />
  <rect y="0" x="309" width="1" height="35" fill="#c8e3c2" />
  <rect y="0" x="310" width="1" height="35" fill="#c8e3c2" />
  <rect y="0" x="311" width="1" height="35" fill="#c8e3c2" />
  <rect y="0" x="312" width="1" height="35" fill="#c8e3c2" />
  <rect y="0" x="313" width="1" height="35" fill="#c8e3c2" />
  <rect y="0" x="314" width="1" height="35" fill="#c8e3c2" />
  <rect y="0" x="315" width="1" height="35" fill="#c8e3c2" />
  <rect y="0" x="316" width="1" height="35" fill="#c8e3c2" />
  <rect y="0" x="317" width="1" height="35" fill="#c8e3c2" />
  <rect y="0" x="318" width="1" height="35" fill="#c8e3c2" />
  <rect y="0" x="319" width="1" height="35" fill="#c8e3c2" />
  <rect y="0" x="320" width="1" height="35" fill="#c8e3c2" />
  <rect y="0" x="321" width="1" height="35" fill="#c8e3c2" />
  <rect y="0" x="322" width="1" height="35" fill="#c8e3c2" />
  <rect y="0" x="323" width="1" height="35" fill="#c8e3c2" />
  <rect y="0" x="324" width="1" height="35" fill="#c8e3c2" />
  <rect y="0" x="325" width="1" height="35" fill="#c8e3c2" />
  <rect y="0" x="326" width="1" height="35" fill="#c8e3c2" />
  <rect y="0" x="327" width="1" height="35" fill="#c8e3c2" />
  <rect y="0" x="328" width="1" height="35" fill="#c8e3c2" />
  <rect y="0" x="329" width="1" height="35" fill="#c8e3c2" />
  <rect y="0" x="330" width="1" height="35" fill="#c8e3c2" />
  <rect y="0" x="331" width="1" height="35" fill="#c8e3c2" />
  <rect y="0" x="332" width="1" height="35" fill="#c8e3c2" />
  <rect y="0" x="333" width="1" height="35" fill="#c8e3c2" />
  <rect y="0" x="334" width="1" height="35" fill="#c8e3c2" />
  <rect y="0" x="335" width="1" height="35" fill="#c8e3c2" />
  <rect y="0" x="336" width="1" height="35" fill="#c8e3c2" />
  <rect y="0" x="337" width="1" height="35" fill="#c8e3c2" />
  <rect y="0" x="338" width="1" height="35" fill="#c8e3c2" />
  <rect y="0" x="339" width="1" height="35" fill="#c8e3c2" />
  <rect y="0" x="340" width="1" height="35" fill="#c8e3c2" />
  <rect y="0" x="341" width="1" height="35" fill="#c8e3c2" />
  <rect y="0" x="342" width="1" height="35" fill="#c8e3c2" />
  <rect y="0" x="343" width="1" height="35" fill="#c8e3c2" />
  <rect y="0" x="344" width="1" height="35" fill="#c8e3c2" />
  <rect y="0" x="345" width="1" height="35" fill="#c8e3c2" />
  <rect y="0" x="346" width="1" height="35" fill="#c8e3c2" />
  <rect y="0" x="347" width="1" height="35" fill="#c8e3c2" />
  <rect y="0" x="348" width="1" height="35" fill="#c8e3c2" />
  <rect y="0" x="349" width="1" height="35" fill="#c8e3c2" />
  <rect y="0" x="350" width="1" height="35" fill="#c8e3c2" />
  <rect y="0" x="351" width="1" height="35" fill="#c8e3c2" />
  <rect y="0" x="353" width="1" height="35" fill="#c8e3c2" />
  <rect y="0" x="354" width="1" height="35" fill="#c8e3c2" />
  <rect y="0" x="355" width="1" height="35" fill="#c8e3c2" />
  <rect y="0" x="356" width="1" height="35" fill="#c8e3c2" />
  <rect y="0" x="357" width="1" height="35" fill="#c8e3c2" />
  <rect y="0" x="358" width="1" height="35" fill="#c8e3c2" />
  <rect y="0" x="359" width="1" height="35" fill="#c8e3c2" />
  <rect y="0" x="360" width="1" height="35" fill="#c8e3c2" />
  <rect y="0" x="361" width="1" height="35" fill="#c8e3c2" />
  <rect y="0" x="362" width="1" height="35" fill="#c8e3c2" />
  <rect y="0" x="363" width="1" height="35" fill="#c8e3c2" />
  <rect y="0" x="364" width="1" height="35" fill="#c8e3c2" />
  <rect y="0" x="365" width="1" height="35" fill="#c8e3c2" />
  <rect y="0" x="366" width="1" height="35" fill="#c8e3c2" />
  <rect y="0" x="367" width="1" height="35" fill="#c8e3c2" />
  <rect y="0" x="368" width="1" height="35" fill="#c8e3c2" />
  <rect y="0" x="369" width="1" height="35" fill="#c8e3c2" />
  <rect y="0" x="370" width="1" height="35" fill="#c8e3c2" />
  <rect y="0" x="371" width="1" height="35" fill="#c8e3c2" />
  <rect y="0" x="372" width="1" height="35" fill="#c8e3c2" />
  <rect y="0" x="373" width="1" height="35" fill="#c8e3c2" />
  <rect y="0" x="381" width="1" height="35" fill="#c8e3c2" />
  <rect y="0" x="382" width="1" height="35" fill="#c8e3c2" />
  <rect y="0" x="385" width="1" height="35" fill="#c8e3c2" />
  <rect y="0" x="386" width="1" height="35" fill="#c8e3c2" />
  <rect y="0" x="387" width="1" height="35" fill="#c8e3c2" />
  <rect y="0" x="388" width="1" height="35" fill="#c8e3c2" />
  <rect y="0" x="389" width="1" height="35" fill="#c8e3c2" />
  <rect y="0" x="391" width="1" height="35" fill="#c8e3c2" />
  <rect y="0" x="392" width="1" height="35" fill="#c8e3c2" />
  <rect y="0" x="393" width="1" height="35" fill="#c8e3c2" />
  <rect y="0" x="394" width="1" height="35" fill="#c8e3c2" />
  <rect y="0" x="395" width="1" height="35" fill="#c8e3c2" />
  <rect y="0" x="396" width="1" height="35" fill="#c8e3c2" />
  <rect y="0" x="397" width="1" height="35" fill="#c8e3c2" />
  <rect y="0" x="398" width="1" height="35" fill="#c8e3c2" />
  <rect y="0" x="402" width="1" height="35" fill="#c8e3c2" />
  <rect y="0" x="403" width="1" height="35" fill="#c8e3c2" />
  <rect y="0" x="413" width="1" height="35" fill="#c8e3c2" />
  <rect y="0" x="414" width="1" height="35" fill="#c8e3c2" />
  <rect y="0" x="415" width="1" height="35" fill="#c8e3c2" />
  <rect y="0" x="416" width="1" height="35" fill="#c8e3c2" />
  <rect y="0" x="419" width="1" height="35" fill="#c8e3c2" />
  <rect y="0" x="420" width="1" height="35" fill="#c8e3c2" />
  <rect y="0" x="421" width="1" height="35" fill="#c8e3c2" />
  <rect y="0" x="422" width="1" height="35" fill="#c8e3c2" />
  <rect y="0" x="423" width="1" height="35" fill="#c8e3c2" />
  <rect y="0" x="424" width="1" height="35" fill="#c8e3c2" />
  <rect y="0" x="427" width="1" height="35" fill="#c8e3c2" />
  <rect y="0" x="428" width="1" height="35" fill="#c8e3c2" />
  <rect y="0" x="429" width="1" height="35" fill="#c8e3c2" />
  <rect y="0" x="430" width="1" height="35" fill="#c8e3c2" />
  <rect y="0" x="431" width="1" height="35" fill="#c8e3c2" />
  <rect y="0" x="432" width="1" height="35" fill="#c8e3c2" />
  <rect y="0" x="433" width="1" height="35" fill="#c8e3c2" />
  <rect y="0" x="434" width="1" height="35" fill="#c8e3c2" />
  <rect y="0" x="435" width="1" height="35" fill="#c8e3c2" />
  <rect y="0" x="436" width="1" height="35" fill="#c8e3c2" />
  <rect y="0" x="437" width="1" height="35" fill="#c8e3c2" />
  <rect y="0" x="438" width="1" height="35" fill="#c8e3c2" />
  <rect y="0" x="439" width="1" height="35" fill="#c8e3c2" />
  <rect y="0" x="440" width="1" height="35" fill="#c8e3c2" />
  <rect y="0" x="441" width="1" height="35" fill="#c8e3c2" />
  <rect y="0" x="442" width="1" height="35" fill="#c8e3c2" />
  <rect y="0" x="443" width="1" height="35" fill="#c8e3c2" />
  <rect y="0" x="444" width="1" height="35" fill="#c8e3c2" />
  <rect y="0" x="445" width="1" height="35" fill="#c8e3c2" />
  <rect y="0" x="446" width="1" height="35" fill="#c8e3c2" />
  <rect y="0" x="447" width="1" height="35" fill="#c8e3c2" />
  <rect y="0" x="448" width="1" height="35" fill="#c8e3c2" />
  <rect y="0" x="449" width="1" height="35" fill="#c8e3c2" />
  <rect y="0" x="450" width="1" height="35" fill="#c8e3c2" />
  <rect y="0" x="454" width="1" height="35" fill="#c8e3c2" />
</svg>
