<svg viewBox="0 0 523 35" shape-rendering="crispEdges" xmlns="http://www.w3.org/2000/svg">
  <rect y="0" x="0" width="523" height="35" fill="#e5e5e5" />
  <rect y="0" x="0" width="1" height="35" fill="#c25a52" />
  <rect y="0" x="7" width="1" height="35" fill="#c55d52" />
  <rect y="0" x="14" width="1" height="35" fill="#c75f51" />
  <rect y="0" x="17" width="1" height="35" fill="#c86151" />
  <rect y="0" x="18" width="1" height="35" fill="#c86151" />
  <rect y="0" x="22" width="1" height="35" fill="#c96351" />
  <rect y="0" x="23" width="1" height="35" fill="#c96350" />
  <rect y="0" x="28" width="1" height="35" fill="#cb6550" />
  <rect y="0" x="34" width="1" height="35" fill="#cd6850" />
  <rect y="0" x="36" width="1" height="35" fill="#cd684f" />
  <rect y="0" x="37" width="1" height="35" fill="#ce694f" />
  <rect y="0" x="38" width="1" height="35" fill="#ce694f" />
  <rect y="0" x="46" width="1" height="35" fill="#d06d4f" />
  <rect y="0" x="57" width="1" height="35" fill="#d4714e" />
  <rect y="0" x="60" width="1" height="35" fill="#d4724d" />
  <rect y="0" x="61" width="1" height="35" fill="#d5734d" />
  <rect y="0" x="62" width="1" height="35" fill="#d5734d" />
  <rect y="0" x="63" width="1" height="35" fill="#d5744d" />
  <rect y="0" x="68" width="1" height="35" fill="#d7764d" />
  <rect y="0" x="70" width="1" height="35" fill="#d7764d" />
  <rect y="0" x="71" width="1" height="35" fill="#d8774d" />
  <rect y="0" x="72" width="1" height="35" fill="#d8774d" />
  <rect y="0" x="73" width="1" height="35" fill="#d8784c" />
  <rect y="0" x="74" width="1" height="35" fill="#d9784c" />
  <rect y="0" x="75" width="1" height="35" fill="#d9784c" />
  <rect y="0" x="77" width="1" height="35" fill="#da794c" />
  <rect y="0" x="78" width="1" height="35" fill="#da7a4c" />
  <rect y="0" x="79" width="1" height="35" fill="#da7a4c" />
  <rect y="0" x="80" width="1" height="35" fill="#da7b4c" />
  <rect y="0" x="82" width="1" height="35" fill="#db7b4c" />
  <rect y="0" x="83" width="1" height="35" fill="#db7c4c" />
  <rect y="0" x="84" width="1" height="35" fill="#dc7c4c" />
  <rect y="0" x="87" width="1" height="35" fill="#dd7d4b" />
  <rect y="0" x="89" width="1" height="35" fill="#dd7e4b" />
  <rect y="0" x="90" width="1" height="35" fill="#dd7f4b" />
  <rect y="0" x="91" width="1" height="35" fill="#de7f4b" />
  <rect y="0" x="92" width="1" height="35" fill="#de7f4b" />
  <rect y="0" x="93" width="1" height="35" fill="#de804b" />
  <rect y="0" x="94" width="1" height="35" fill="#df804b" />
  <rect y="0" x="95" width="1" height="35" fill="#df814b" />
  <rect y="0" x="96" width="1" height="35" fill="#df814b" />
  <rect y="0" x="97" width="1" height="35" fill="#e0824b" />
  <rect y="0" x="98" width="1" height="35" fill="#e0824b" />
  <rect y="0" x="99" width="1" height="35" fill="#e0834b" />
  <rect y="0" x="100" width="1" height="35" fill="#e0834b" />
  <rect y="0" x="101" width="1" height="35" fill="#e0844b" />
  <rect y="0" x="102" width="1" height="35" fill="#e0854b" />
  <rect y="0" x="103" width="1" height="35" fill="#e0854b" />
  <rect y="0" x="104" width="1" height="35" fill="#e0864b" />
  <rect y="0" x="105" width="1" height="35" fill="#e0874b" />
  <rect y="0" x="106" width="1" height="35" fill="#e0874b" />
  <rect y="0" x="107" width="1" height="35" fill="#e0884b" />
  <rect y="0" x="108" width="1" height="35" fill="#e0894b" />
  <rect y="0" x="109" width="1" height="35" fill="#e0894b" />
  <rect y="0" x="110" width="1" height="35" fill="#e18a4b" />
  <rect y="0" x="111" width="1" height="35" fill="#e18b4b" />
  <rect y="0" x="112" width="1" height="35" fill="#e18b4b" />
  <rect y="0" x="113" width="1" height="35" fill="#e18c4b" />
  <rect y="0" x="114" width="1" height="35" fill="#e18d4b" />
  <rect y="0" x="115" width="1" height="35" fill="#e18d4b" />
  <rect y="0" x="116" width="1" height="35" fill="#e18e4b" />
  <rect y="0" x="117" width="1" height="35" fill="#e18f4b" />
  <rect y="0" x="118" width="1" height="35" fill="#e18f4b" />
  <rect y="0" x="119" width="1" height="35" fill="#e1904b" />
  <rect y="0" x="120" width="1" height="35" fill="#e1914b" />
  <rect y="0" x="121" width="1" height="35" fill="#e1914b" />
  <rect y="0" x="122" width="1" height="35" fill="#e2924c" />
  <rect y="0" x="123" width="1" height="35" fill="#e2934c" />
  <rect y="0" x="124" width="1" height="35" fill="#e2934c" />
  <rect y="0" x="125" width="1" height="35" fill="#e2944c" />
  <rect y="0" x="126" width="1" height="35" fill="#e2954c" />
  <rect y="0" x="127" width="1" height="35" fill="#e2954c" />
  <rect y="0" x="128" width="1" height="35" fill="#e2964c" />
  <rect y="0" x="129" width="1" height="35" fill="#e2974c" />
  <rect y="0" x="130" width="1" height="35" fill="#e2974c" />
  <rect y="0" x="131" width="1" height="35" fill="#e2984c" />
  <rect y="0" x="132" width="1" height="35" fill="#e2994c" />
  <rect y="0" x="133" width="1" height="35" fill="#e2994c" />
  <rect y="0" x="134" width="1" height="35" fill="#e29a4c" />
  <rect y="0" x="135" width="1" height="35" fill="#e39b4c" />
  <rect y="0" x="136" width="1" height="35" fill="#e39b4c" />
  <rect y="0" x="137" width="1" height="35" fill="#e39c4c" />
  <rect y="0" x="138" width="1" height="35" fill="#e39d4c" />
  <rect y="0" x="139" width="1" height="35" fill="#e39d4c" />
  <rect y="0" x="140" width="1" height="35" fill="#e39e4c" />
  <rect y="0" x="141" width="1" height="35" fill="#e39f4c" />
  <rect y="0" x="142" width="1" height="35" fill="#e39f4c" />
  <rect y="0" x="143" width="1" height="35" fill="#e3a04c" />
  <rect y="0" x="144" width="1" height="35" fill="#e3a14c" />
  <rect y="0" x="145" width="1" height="35" fill="#e3a14c" />
  <rect y="0" x="146" width="1" height="35" fill="#e3a24c" />
  <rect y="0" x="147" width="1" height="35" fill="#e4a34d" />
  <rect y="0" x="148" width="1" height="35" fill="#e4a34d" />
  <rect y="0" x="149" width="1" height="35" fill="#e4a44d" />
  <rect y="0" x="150" width="1" height="35" fill="#e4a44d" />
  <rect y="0" x="151" width="1" height="35" fill="#e4a54d" />
  <rect y="0" x="152" width="1" height="35" fill="#e4a64d" />
  <rect y="0" x="153" width="1" height="35" fill="#e4a64d" />
  <rect y="0" x="154" width="1" height="35" fill="#e4a74d" />
  <rect y="0" x="155" width="1" height="35" fill="#e4a84d" />
  <rect y="0" x="156" width="1" height="35" fill="#e4a84d" />
  <rect y="0" x="157" width="1" height="35" fill="#e4a94d" />
  <rect y="0" x="158" width="1" height="35" fill="#e4aa4d" />
  <rect y="0" x="159" width="1" height="35" fill="#e4aa4d" />
  <rect y="0" x="160" width="1" height="35" fill="#e5ab4d" />
  <rect y="0" x="161" width="1" height="35" fill="#e5ac4d" />
  <rect y="0" x="162" width="1" height="35" fill="#e5ac4d" />
  <rect y="0" x="163" width="1" height="35" fill="#e5ad4d" />
  <rect y="0" x="164" width="1" height="35" fill="#e5ae4d" />
  <rect y="0" x="165" width="1" height="35" fill="#e5ae4d" />
  <rect y="0" x="166" width="1" height="35" fill="#e5af4d" />
  <rect y="0" x="167" width="1" height="35" fill="#e5b04d" />
  <rect y="0" x="168" width="1" height="35" fill="#e5b04d" />
  <rect y="0" x="169" width="1" height="35" fill="#e5b14d" />
  <rect y="0" x="170" width="1" height="35" fill="#e5b24d" />
  <rect y="0" x="171" width="1" height="35" fill="#e5b24d" />
  <rect y="0" x="172" width="1" height="35" fill="#e6b34e" />
  <rect y="0" x="173" width="1" height="35" fill="#e6b44e" />
  <rect y="0" x="174" width="1" height="35" fill="#e6b44e" />
  <rect y="0" x="175" width="1" height="35" fill="#e6b54e" />
  <rect y="0" x="176" width="1" height="35" fill="#e6b64e" />
  <rect y="0" x="177" width="1" height="35" fill="#e6b64e" />
  <rect y="0" x="178" width="1" height="35" fill="#e6b74e" />
  <rect y="0" x="179" width="1" height="35" fill="#e6b84e" />
  <rect y="0" x="180" width="1" height="35" fill="#e6b84e" />
  <rect y="0" x="181" width="1" height="35" fill="#e6b94e" />
  <rect y="0" x="182" width="1" height="35" fill="#e6ba4e" />
  <rect y="0" x="183" width="1" height="35" fill="#e6ba4e" />
  <rect y="0" x="184" width="1" height="35" fill="#e6bb4e" />
  <rect y="0" x="185" width="1" height="35" fill="#e7bc4e" />
  <rect y="0" x="186" width="1" height="35" fill="#e7bc4e" />
  <rect y="0" x="187" width="1" height="35" fill="#e7bd4e" />
  <rect y="0" x="188" width="1" height="35" fill="#e7be4e" />
  <rect y="0" x="189" width="1" height="35" fill="#e7be4e" />
  <rect y="0" x="190" width="1" height="35" fill="#e7bf4e" />
  <rect y="0" x="191" width="1" height="35" fill="#e7c04e" />
  <rect y="0" x="192" width="1" height="35" fill="#e7c04e" />
  <rect y="0" x="193" width="1" height="35" fill="#e7c14e" />
  <rect y="0" x="194" width="1" height="35" fill="#e7c24e" />
  <rect y="0" x="195" width="1" height="35" fill="#e7c24e" />
  <rect y="0" x="196" width="1" height="35" fill="#e7c34e" />
  <rect y="0" x="197" width="1" height="35" fill="#e8c44f" />
  <rect y="0" x="198" width="1" height="35" fill="#e7c44f" />
  <rect y="0" x="199" width="1" height="35" fill="#e6c44f" />
  <rect y="0" x="200" width="1" height="35" fill="#e5c44f" />
  <rect y="0" x="201" width="1" height="35" fill="#e4c44f" />
  <rect y="0" x="202" width="1" height="35" fill="#e4c44f" />
  <rect y="0" x="203" width="1" height="35" fill="#e3c44f" />
  <rect y="0" x="204" width="1" height="35" fill="#e2c44f" />
  <rect y="0" x="205" width="1" height="35" fill="#e1c44f" />
  <rect y="0" x="206" width="1" height="35" fill="#e0c44f" />
  <rect y="0" x="207" width="1" height="35" fill="#e0c44f" />
  <rect y="0" x="208" width="1" height="35" fill="#dfc44f" />
  <rect y="0" x="209" width="1" height="35" fill="#dec44f" />
  <rect y="0" x="210" width="1" height="35" fill="#ddc450" />
  <rect y="0" x="211" width="1" height="35" fill="#dcc450" />
  <rect y="0" x="212" width="1" height="35" fill="#dcc450" />
  <rect y="0" x="213" width="1" height="35" fill="#dbc450" />
  <rect y="0" x="214" width="1" height="35" fill="#dac450" />
  <rect y="0" x="215" width="1" height="35" fill="#d9c450" />
  <rect y="0" x="216" width="1" height="35" fill="#d8c450" />
  <rect y="0" x="217" width="1" height="35" fill="#d8c550" />
  <rect y="0" x="218" width="1" height="35" fill="#d7c550" />
  <rect y="0" x="219" width="1" height="35" fill="#d6c550" />
  <rect y="0" x="220" width="1" height="35" fill="#d5c550" />
  <rect y="0" x="221" width="1" height="35" fill="#d4c550" />
  <rect y="0" x="222" width="1" height="35" fill="#d4c551" />
  <rect y="0" x="223" width="1" height="35" fill="#d3c551" />
  <rect y="0" x="224" width="1" height="35" fill="#d2c551" />
  <rect y="0" x="225" width="1" height="35" fill="#d1c551" />
  <rect y="0" x="226" width="1" height="35" fill="#d0c551" />
  <rect y="0" x="227" width="1" height="35" fill="#d0c551" />
  <rect y="0" x="228" width="1" height="35" fill="#cfc551" />
  <rect y="0" x="229" width="1" height="35" fill="#cec551" />
  <rect y="0" x="230" width="1" height="35" fill="#cdc551" />
  <rect y="0" x="231" width="1" height="35" fill="#ccc551" />
  <rect y="0" x="232" width="1" height="35" fill="#ccc551" />
  <rect y="0" x="233" width="1" height="35" fill="#cbc551" />
  <rect y="0" x="234" width="1" height="35" fill="#cac551" />
  <rect y="0" x="235" width="1" height="35" fill="#c9c552" />
  <rect y="0" x="236" width="1" height="35" fill="#c8c552" />
  <rect y="0" x="237" width="1" height="35" fill="#c8c652" />
  <rect y="0" x="238" width="1" height="35" fill="#c7c652" />
  <rect y="0" x="239" width="1" height="35" fill="#c6c652" />
  <rect y="0" x="240" width="1" height="35" fill="#c5c652" />
  <rect y="0" x="241" width="1" height="35" fill="#c4c652" />
  <rect y="0" x="242" width="1" height="35" fill="#c4c652" />
  <rect y="0" x="243" width="1" height="35" fill="#c3c652" />
  <rect y="0" x="244" width="1" height="35" fill="#c2c652" />
  <rect y="0" x="245" width="1" height="35" fill="#c1c652" />
  <rect y="0" x="246" width="1" height="35" fill="#c0c652" />
  <rect y="0" x="247" width="1" height="35" fill="#c0c653" />
  <rect y="0" x="248" width="1" height="35" fill="#bfc653" />
  <rect y="0" x="249" width="1" height="35" fill="#bec653" />
  <rect y="0" x="250" width="1" height="35" fill="#bdc653" />
  <rect y="0" x="251" width="1" height="35" fill="#bcc653" />
  <rect y="0" x="252" width="1" height="35" fill="#bcc653" />
  <rect y="0" x="253" width="1" height="35" fill="#bbc653" />
  <rect y="0" x="254" width="1" height="35" fill="#bac653" />
  <rect y="0" x="255" width="1" height="35" fill="#b9c653" />
  <rect y="0" x="256" width="1" height="35" fill="#b8c653" />
  <rect y="0" x="257" width="1" height="35" fill="#b8c753" />
  <rect y="0" x="258" width="1" height="35" fill="#b7c753" />
  <rect y="0" x="259" width="1" height="35" fill="#b6c753" />
  <rect y="0" x="260" width="1" height="35" fill="#b5c754" />
  <rect y="0" x="261" width="1" height="35" fill="#b4c754" />
  <rect y="0" x="262" width="1" height="35" fill="#b4c754" />
  <rect y="0" x="263" width="1" height="35" fill="#b3c754" />
  <rect y="0" x="264" width="1" height="35" fill="#b2c754" />
  <rect y="0" x="265" width="1" height="35" fill="#b1c754" />
  <rect y="0" x="266" width="1" height="35" fill="#b0c754" />
  <rect y="0" x="267" width="1" height="35" fill="#b0c754" />
  <rect y="0" x="268" width="1" height="35" fill="#afc754" />
  <rect y="0" x="269" width="1" height="35" fill="#aec754" />
  <rect y="0" x="270" width="1" height="35" fill="#adc754" />
  <rect y="0" x="271" width="1" height="35" fill="#acc754" />
  <rect y="0" x="272" width="1" height="35" fill="#acc755" />
  <rect y="0" x="273" width="1" height="35" fill="#abc755" />
  <rect y="0" x="274" width="1" height="35" fill="#aac755" />
  <rect y="0" x="275" width="1" height="35" fill="#a9c755" />
  <rect y="0" x="276" width="1" height="35" fill="#a8c755" />
  <rect y="0" x="277" width="1" height="35" fill="#a8c855" />
  <rect y="0" x="278" width="1" height="35" fill="#a7c855" />
  <rect y="0" x="279" width="1" height="35" fill="#a6c855" />
  <rect y="0" x="280" width="1" height="35" fill="#a5c855" />
  <rect y="0" x="281" width="1" height="35" fill="#a4c855" />
  <rect y="0" x="282" width="1" height="35" fill="#a4c855" />
  <rect y="0" x="283" width="1" height="35" fill="#a3c855" />
  <rect y="0" x="284" width="1" height="35" fill="#a2c855" />
  <rect y="0" x="285" width="1" height="35" fill="#a1c856" />
  <rect y="0" x="286" width="1" height="35" fill="#a0c856" />
  <rect y="0" x="287" width="1" height="35" fill="#a0c856" />
  <rect y="0" x="288" width="1" height="35" fill="#9fc856" />
  <rect y="0" x="289" width="1" height="35" fill="#9ec856" />
  <rect y="0" x="290" width="1" height="35" fill="#9dc856" />
  <rect y="0" x="291" width="1" height="35" fill="#9cc856" />
  <rect y="0" x="292" width="1" height="35" fill="#9cc856" />
  <rect y="0" x="293" width="1" height="35" fill="#9bc856" />
  <rect y="0" x="294" width="1" height="35" fill="#9ac856" />
  <rect y="0" x="295" width="1" height="35" fill="#99c856" />
  <rect y="0" x="296" width="1" height="35" fill="#98c856" />
  <rect y="0" x="297" width="1" height="35" fill="#98c957" />
  <rect y="0" x="298" width="1" height="35" fill="#97c857" />
  <rect y="0" x="299" width="1" height="35" fill="#96c858" />
  <rect y="0" x="300" width="1" height="35" fill="#95c859" />
  <rect y="0" x="301" width="1" height="35" fill="#94c85a" />
  <rect y="0" x="302" width="1" height="35" fill="#94c75b" />
  <rect y="0" x="303" width="1" height="35" fill="#93c75b" />
  <rect y="0" x="304" width="1" height="35" fill="#92c75c" />
  <rect y="0" x="305" width="1" height="35" fill="#91c75d" />
  <rect y="0" x="306" width="1" height="35" fill="#91c75e" />
  <rect y="0" x="307" width="1" height="35" fill="#90c65f" />
  <rect y="0" x="308" width="1" height="35" fill="#8fc660" />
  <rect y="0" x="309" width="1" height="35" fill="#8ec660" />
  <rect y="0" x="310" width="1" height="35" fill="#8dc661" />
  <rect y="0" x="311" width="1" height="35" fill="#8dc562" />
  <rect y="0" x="312" width="1" height="35" fill="#8cc563" />
  <rect y="0" x="313" width="1" height="35" fill="#8bc564" />
  <rect y="0" x="314" width="1" height="35" fill="#8ac564" />
  <rect y="0" x="315" width="1" height="35" fill="#8ac565" />
  <rect y="0" x="316" width="1" height="35" fill="#89c466" />
  <rect y="0" x="317" width="1" height="35" fill="#88c467" />
  <rect y="0" x="318" width="1" height="35" fill="#87c468" />
  <rect y="0" x="319" width="1" height="35" fill="#87c469" />
  <rect y="0" x="320" width="1" height="35" fill="#86c369" />
  <rect y="0" x="321" width="1" height="35" fill="#85c36a" />
  <rect y="0" x="322" width="1" height="35" fill="#84c36b" />
  <rect y="0" x="323" width="1" height="35" fill="#83c36c" />
  <rect y="0" x="324" width="1" height="35" fill="#83c36d" />
  <rect y="0" x="325" width="1" height="35" fill="#82c26d" />
  <rect y="0" x="326" width="1" height="35" fill="#81c26e" />
  <rect y="0" x="327" width="1" height="35" fill="#80c26f" />
  <rect y="0" x="328" width="1" height="35" fill="#80c270" />
  <rect y="0" x="329" width="1" height="35" fill="#7fc171" />
  <rect y="0" x="330" width="1" height="35" fill="#7ec172" />
  <rect y="0" x="331" width="1" height="35" fill="#7dc172" />
  <rect y="0" x="332" width="1" height="35" fill="#7dc173" />
  <rect y="0" x="333" width="1" height="35" fill="#7cc174" />
  <rect y="0" x="334" width="1" height="35" fill="#7bc075" />
  <rect y="0" x="335" width="1" height="35" fill="#7ac076" />
  <rect y="0" x="336" width="1" height="35" fill="#79c076" />
  <rect y="0" x="337" width="1" height="35" fill="#79c077" />
  <rect y="0" x="338" width="1" height="35" fill="#78bf78" />
  <rect y="0" x="339" width="1" height="35" fill="#77bf79" />
  <rect y="0" x="340" width="1" height="35" fill="#76bf7a" />
  <rect y="0" x="341" width="1" height="35" fill="#76bf7b" />
  <rect y="0" x="342" width="1" height="35" fill="#75bf7b" />
  <rect y="0" x="343" width="1" height="35" fill="#74be7c" />
  <rect y="0" x="344" width="1" height="35" fill="#73be7d" />
  <rect y="0" x="345" width="1" height="35" fill="#73be7e" />
  <rect y="0" x="346" width="1" height="35" fill="#72be7f" />
  <rect y="0" x="347" width="1" height="35" fill="#71be80" />
  <rect y="0" x="348" width="1" height="35" fill="#70bd80" />
  <rect y="0" x="349" width="1" height="35" fill="#6fbd81" />
  <rect y="0" x="350" width="1" height="35" fill="#6fbd82" />
  <rect y="0" x="351" width="1" height="35" fill="#6ebd83" />
  <rect y="0" x="352" width="1" height="35" fill="#6dbc84" />
  <rect y="0" x="353" width="1" height="35" fill="#6cbc84" />
  <rect y="0" x="354" width="1" height="35" fill="#6cbc85" />
  <rect y="0" x="355" width="1" height="35" fill="#6bbc86" />
  <rect y="0" x="356" width="1" height="35" fill="#6abc87" />
  <rect y="0" x="357" width="1" height="35" fill="#69bb88" />
  <rect y="0" x="358" width="1" height="35" fill="#69bb89" />
  <rect y="0" x="359" width="1" height="35" fill="#68bb89" />
  <rect y="0" x="360" width="1" height="35" fill="#67bb8a" />
  <rect y="0" x="361" width="1" height="35" fill="#66ba8b" />
  <rect y="0" x="362" width="1" height="35" fill="#65ba8c" />
  <rect y="0" x="363" width="1" height="35" fill="#65ba8d" />
  <rect y="0" x="364" width="1" height="35" fill="#64ba8d" />
  <rect y="0" x="365" width="1" height="35" fill="#63ba8e" />
  <rect y="0" x="366" width="1" height="35" fill="#62b98f" />
  <rect y="0" x="367" width="1" height="35" fill="#62b990" />
  <rect y="0" x="368" width="1" height="35" fill="#61b991" />
  <rect y="0" x="369" width="1" height="35" fill="#60b992" />
  <rect y="0" x="370" width="1" height="35" fill="#5fb892" />
  <rect y="0" x="371" width="1" height="35" fill="#5fb893" />
  <rect y="0" x="372" width="1" height="35" fill="#5eb894" />
  <rect y="0" x="373" width="1" height="35" fill="#5db895" />
  <rect y="0" x="374" width="1" height="35" fill="#5cb896" />
  <rect y="0" x="375" width="1" height="35" fill="#5bb796" />
  <rect y="0" x="376" width="1" height="35" fill="#5bb797" />
  <rect y="0" x="377" width="1" height="35" fill="#5ab798" />
  <rect y="0" x="378" width="1" height="35" fill="#59b799" />
  <rect y="0" x="379" width="1" height="35" fill="#58b69a" />
  <rect y="0" x="380" width="1" height="35" fill="#58b69b" />
  <rect y="0" x="381" width="1" height="35" fill="#57b69b" />
  <rect y="0" x="382" width="1" height="35" fill="#56b69c" />
  <rect y="0" x="383" width="1" height="35" fill="#55b69d" />
  <rect y="0" x="384" width="1" height="35" fill="#55b59e" />
  <rect y="0" x="385" width="1" height="35" fill="#54b59f" />
  <rect y="0" x="386" width="1" height="35" fill="#53b59f" />
  <rect y="0" x="387" width="1" height="35" fill="#52b5a0" />
  <rect y="0" x="388" width="1" height="35" fill="#51b4a1" />
  <rect y="0" x="389" width="1" height="35" fill="#51b4a2" />
  <rect y="0" x="390" width="1" height="35" fill="#50b4a3" />
  <rect y="0" x="391" width="1" height="35" fill="#4fb4a4" />
  <rect y="0" x="392" width="1" height="35" fill="#4eb4a4" />
  <rect y="0" x="393" width="1" height="35" fill="#4eb3a5" />
  <rect y="0" x="394" width="1" height="35" fill="#4db3a6" />
  <rect y="0" x="395" width="1" height="35" fill="#4cb3a7" />
  <rect y="0" x="396" width="1" height="35" fill="#4bb3a8" />
  <rect y="0" x="397" width="1" height="35" fill="#4bb3a9" />
  <rect y="0" x="398" width="1" height="35" fill="#4bb2a9" />
  <rect y="0" x="399" width="1" height="35" fill="#4bb2aa" />
  <rect y="0" x="400" width="1" height="35" fill="#4bb1aa" />
  <rect y="0" x="401" width="1" height="35" fill="#4bb1ab" />
  <rect y="0" x="402" width="1" height="35" fill="#4bb1ac" />
  <rect y="0" x="403" width="1" height="35" fill="#4bb0ac" />
  <rect y="0" x="404" width="1" height="35" fill="#4bb0ad" />
  <rect y="0" x="405" width="1" height="35" fill="#4bafad" />
  <rect y="0" x="406" width="1" height="35" fill="#4bafae" />
  <rect y="0" x="407" width="1" height="35" fill="#4bafaf" />
  <rect y="0" x="408" width="1" height="35" fill="#4baeaf" />
  <rect y="0" x="409" width="1" height="35" fill="#4baeb0" />
  <rect y="0" x="410" width="1" height="35" fill="#4badb0" />
  <rect y="0" x="411" width="1" height="35" fill="#4badb1" />
  <rect y="0" x="412" width="1" height="35" fill="#4badb2" />
  <rect y="0" x="413" width="1" height="35" fill="#4bacb2" />
  <rect y="0" x="414" width="1" height="35" fill="#4bacb3" />
  <rect y="0" x="416" width="1" height="35" fill="#4babb4" />
  <rect y="0" x="417" width="1" height="35" fill="#4babb5" />
  <rect y="0" x="418" width="1" height="35" fill="#4baab5" />
  <rect y="0" x="419" width="1" height="35" fill="#4baab6" />
  <rect y="0" x="420" width="1" height="35" fill="#4baab7" />
  <rect y="0" x="421" width="1" height="35" fill="#4ba9b7" />
  <rect y="0" x="422" width="1" height="35" fill="#4ba9b8" />
  <rect y="0" x="423" width="1" height="35" fill="#4ba8b8" />
  <rect y="0" x="424" width="1" height="35" fill="#4ba8b9" />
  <rect y="0" x="425" width="1" height="35" fill="#4ba8ba" />
  <rect y="0" x="426" width="1" height="35" fill="#4ba7ba" />
  <rect y="0" x="427" width="1" height="35" fill="#4ba7bb" />
  <rect y="0" x="428" width="1" height="35" fill="#4ba6bb" />
  <rect y="0" x="429" width="1" height="35" fill="#4ba6bc" />
  <rect y="0" x="430" width="1" height="35" fill="#4ba6bd" />
  <rect y="0" x="431" width="1" height="35" fill="#4ca5bd" />
  <rect y="0" x="432" width="1" height="35" fill="#4ca5be" />
  <rect y="0" x="433" width="1" height="35" fill="#4ca4be" />
  <rect y="0" x="434" width="1" height="35" fill="#4ca4bf" />
  <rect y="0" x="435" width="1" height="35" fill="#4ca4c0" />
  <rect y="0" x="436" width="1" height="35" fill="#4ca3c0" />
  <rect y="0" x="437" width="1" height="35" fill="#4ca3c1" />
  <rect y="0" x="443" width="1" height="35" fill="#4ca1c5" />
  <rect y="0" x="444" width="1" height="35" fill="#4ca0c5" />
  <rect y="0" x="445" width="1" height="35" fill="#4ca0c6" />
  <rect y="0" x="448" width="1" height="35" fill="#4c9fc8" />
  <rect y="0" x="449" width="1" height="35" fill="#4c9ec8" />
  <rect y="0" x="450" width="1" height="35" fill="#4c9ec9" />
  <rect y="0" x="451" width="1" height="35" fill="#4c9dc9" />
  <rect y="0" x="452" width="1" height="35" fill="#4c9dca" />
  <rect y="0" x="453" width="1" height="35" fill="#4c9dcb" />
  <rect y="0" x="454" width="1" height="35" fill="#4c9ccb" />
  <rect y="0" x="455" width="1" height="35" fill="#4c9ccc" />
  <rect y="0" x="456" width="1" height="35" fill="#4c9bcc" />
  <rect y="0" x="457" width="1" height="35" fill="#4c9bcd" />
  <rect y="0" x="458" width="1" height="35" fill="#4c9bce" />
  <rect y="0" x="459" width="1" height="35" fill="#4c9ace" />
  <rect y="0" x="460" width="1" height="35" fill="#4c9acf" />
  <rect y="0" x="461" width="1" height="35" fill="#4c9ad0" />
  <rect y="0" x="465" width="1" height="35" fill="#4d98d2" />
  <rect y="0" x="466" width="1" height="35" fill="#4d98d3" />
  <rect y="0" x="474" width="1" height="35" fill="#4d94d7" />
  <rect y="0" x="476" width="1" height="35" fill="#4d94d9" />
  <rect y="0" x="477" width="1" height="35" fill="#4d93d9" />
  <rect y="0" x="478" width="1" height="35" fill="#4d93da" />
  <rect y="0" x="479" width="1" height="35" fill="#4d93db" />
  <rect y="0" x="481" width="1" height="35" fill="#4d92dc" />
  <rect y="0" x="482" width="1" height="35" fill="#4d91dc" />
  <rect y="0" x="483" width="1" height="35" fill="#4d91dd" />
  <rect y="0" x="484" width="1" height="35" fill="#4d91de" />
  <rect y="0" x="485" width="1" height="35" fill="#4d90de" />
  <rect y="0" x="486" width="1" height="35" fill="#4d90df" />
  <rect y="0" x="487" width="1" height="35" fill="#4d8fdf" />
  <rect y="0" x="488" width="1" height="35" fill="#4d8fe0" />
  <rect y="0" x="489" width="1" height="35" fill="#4d8fe1" />
  <rect y="0" x="490" width="1" height="35" fill="#4d8ee1" />
  <rect y="0" x="491" width="1" height="35" fill="#4d8ee2" />
  <rect y="0" x="492" width="1" height="35" fill="#4d8de2" />
  <rect y="0" x="493" width="1" height="35" fill="#4d8de3" />
  <rect y="0" x="494" width="1" height="35" fill="#4d8de4" />
  <rect y="0" x="495" width="1" height="35" fill="#4d8ce4" />
  <rect y="0" x="496" width="1" height="35" fill="#4d8ce5" />
  <rect y="0" x="497" width="1" height="35" fill="#4e8ce6" />
  <rect y="0" x="498" width="1" height="35" fill="#4e8be6" />
  <rect y="0" x="499" width="1" height="35" fill="#4f8be6" />
  <rect y="0" x="500" width="1" height="35" fill="#508ae6" />
  <rect y="0" x="501" width="1" height="35" fill="#518ae6" />
  <rect y="0" x="502" width="1" height="35" fill="#5189e6" />
  <rect y="0" x="503" width="1" height="35" fill="#5289e6" />
  <rect y="0" x="504" width="1" height="35" fill="#5388e6" />
  <rect y="0" x="505" width="1" height="35" fill="#5488e6" />
  <rect y="0" x="506" width="1" height="35" fill="#5487e6" />
  <rect y="0" x="507" width="1" height="35" fill="#5587e6" />
  <rect y="0" x="508" width="1" height="35" fill="#5686e6" />
  <rect y="0" x="509" width="1" height="35" fill="#5786e6" />
  <rect y="0" x="510" width="1" height="35" fill="#5885e6" />
  <rect y="0" x="511" width="1" height="35" fill="#5885e6" />
  <rect y="0" x="512" width="1" height="35" fill="#5984e6" />
  <rect y="0" x="513" width="1" height="35" fill="#5a84e6" />
  <rect y="0" x="517" width="1" height="35" fill="#5d82e6" />
  <rect y="0" x="519" width="1" height="35" fill="#5e81e6" />
  <rect y="0" x="521" width="1" height="35" fill="#6080e6" />
  <rect y="0" x="522" width="1" height="35" fill="#6180e6" />
</svg>
